Merriweather-TextBoldWide.ufo
<glyph name="exclam" format="2">
  <advance width="568.5565042692115"/>
  <unicode hex="0021"/>
  <outline>
    <contour>
      <point x="440.4972375690608" y="1784.9723756906078" type="line"/>
      <point x="114.34455047714715" y="1784.9723756906078" type="line"/>
      <point x="204.6534404821698" y="492.4138623807132" type="line"/>
      <point x="353.17227523857355" y="492.4138623807132" type="line"/>
    </contour>
    <contour>
      <point x="117.29030637870417" y="129.48417880462077" type="curve" smooth="yes"/>
      <point x="117.29030637870417" y="41.60873932697137"/>
      <point x="191.36664992466098" y="-17.65745856353591"/>
      <point x="270.1391260673028" y="-17.65745856353591" type="curve" smooth="yes"/>
      <point x="376.9432446007032" y="-17.65745856353591"/>
      <point x="455.5429432446008" y="42.69161225514817"/>
      <point x="455.5429432446008" y="145.40130587644398" type="curve" smooth="yes"/>
      <point x="455.5429432446008" y="221.46911099949776"/>
      <point x="400.22852837769966" y="293.1351079859367"/>
      <point x="297.40783525866397" y="293.1351079859367" type="curve" smooth="yes"/>
      <point x="199.92114515318934" y="293.1351079859367"/>
      <point x="117.29030637870417" y="226.12305374183828"/>
    </contour>
  </outline>
</glyph>
<glyph name="quotedbl" format="2">
  <advance width="1237.5690607734807"/>
  <unicode hex="0022"/>
  <outline>
    <contour>
      <point x="485.99246609743847" y="1671.5027624309391" type="line"/>
      <point x="225.54495228528378" y="1671.5027624309391" type="line"/>
      <point x="281.0381717729784" y="890.0311401305877" type="line"/>
      <point x="428.449020592667" y="890.0311401305877" type="line"/>
    </contour>
    <contour>
      <point x="1013.4691109994978" y="1671.5027624309391" type="line"/>
      <point x="752.9904570567554" y="1671.5027624309391" type="line"/>
      <point x="808.3832245102963" y="890.0311401305877" type="line"/>
      <point x="956.02611752888" y="890.0311401305877" type="line"/>
    </contour>
  </outline>
</glyph>
<glyph name="numbersign" format="2">
  <advance width="1456.301356102461"/>
  <unicode hex="0023"/>
  <outline>
    <contour>
      <point x="363.2024108488197" y="413.0" type="line"/>
      <point x="299.2024108488197" y="0.0" type="line"/>
      <point x="408.11150175791056" y="0.0" type="line"/>
      <point x="473.11150175791056" y="413.0" type="line"/>
      <point x="862.1898543445504" y="413.0" type="line"/>
      <point x="799.1898543445504" y="0.0" type="line"/>
      <point x="908.0989452536413" y="0.0" type="line"/>
      <point x="971.0989452536413" y="413.0" type="line"/>
      <point x="1233.5740833751884" y="413.0" type="line"/>
      <point x="1258.8116524359618" y="596.6629834254144" type="line"/>
      <point x="1000.3365143144148" y="596.6629834254144" type="line"/>
      <point x="1056.1376192867906" y="926.3370165745856" type="line"/>
      <point x="1304.336514314415" y="926.3370165745856" type="line"/>
      <point x="1329.5740833751884" y="1108.0" type="line"/>
      <point x="1082.0989452536414" y="1108.0" type="line"/>
      <point x="1152.0989452536414" y="1539.0" type="line"/>
      <point x="1042.1898543445507" y="1539.0" type="line"/>
      <point x="972.1898543445504" y="1108.0" type="line"/>
      <point x="584.1115017579106" y="1108.0" type="line"/>
      <point x="652.1115017579106" y="1539.0" type="line"/>
      <point x="543.2024108488197" y="1539.0" type="line"/>
      <point x="475.2024108488197" y="1108.0" type="line"/>
      <point x="221.72727272727272" y="1108.0" type="line"/>
      <point x="196.48970366649925" y="926.3370165745856" type="line"/>
      <point x="446.9648417880462" y="926.3370165745856" type="line"/>
      <point x="393.61125062782526" y="596.6629834254144" type="line"/>
      <point x="151.9648417880462" y="596.6629834254144" type="line"/>
      <point x="126.72727272727273" y="413.0" type="line"/>
    </contour>
    <contour>
      <point x="891.4274234053239" y="596.6629834254144" type="line"/>
      <point x="501.52034153691613" y="596.6629834254144" type="line"/>
      <point x="556.8739326971371" y="926.3370165745856" type="line"/>
      <point x="946.2285283776996" y="926.3370165745856" type="line"/>
    </contour>
  </outline>
</glyph>
<glyph name="dollar" format="2">
  <advance width="1417.8704168759414"/>
  <unicode hex="0024"/>
  <outline>
    <contour>
      <point x="178.46860873932698" y="65.82872928176795" type="line"/>
      <point x="238.58513309894525" y="49.42189854344551"/>
      <point x="421.2898041185334" y="-9.99397287795078"/>
      <point x="630.9166248116524" y="-21.01557006529382" type="curve"/>
      <point x="629.5374183827222" y="-253.05273731793068" type="line"/>
      <point x="781.6032144650928" y="-253.05273731793068" type="line"/>
      <point x="784.158211953792" y="-17.66850828729282" type="line"/>
      <point x="1110.0386740331492" y="15.024108488196887"/>
      <point x="1266.702661978905" y="199.82772476142645"/>
      <point x="1266.702661978905" y="408.9286790557509" type="curve" smooth="yes"/>
      <point x="1266.702661978905" y="647.9994977398293"/>
      <point x="1069.2471120040182" y="747.8543445504771"/>
      <point x="828.2129583124057" y="871.334003013561" type="curve" smooth="yes"/>
      <point x="669.5042692114515" y="952.4445002511302"/>
      <point x="504.28980411853337" y="1027.1592164741337"/>
      <point x="504.28980411853337" y="1186.795580110497" type="curve" smooth="yes"/>
      <point x="504.28980411853337" y="1306.8161727774989"/>
      <point x="602.6931190356605" y="1394.2084379708688"/>
      <point x="744.0246107483675" y="1394.4344550477147" type="curve" smooth="yes"/>
      <point x="828.5600200904069" y="1394.710698141637"/>
      <point x="893.9110999497741" y="1369.199899547966"/>
      <point x="926.1094927172276" y="1339.5007533902562" type="curve"/>
      <point x="972.1074836765445" y="1101.446509291813" type="line"/>
      <point x="1161.6850828729282" y="1101.446509291813" type="line"/>
      <point x="1174.9377197388249" y="1430.342541436464" type="line"/>
      <point x="1118.703164239076" y="1445.9603214465092"/>
      <point x="968.3475640381718" y="1493.765444500251"/>
      <point x="800.8839779005524" y="1502.2631843294828" type="curve"/>
      <point x="800.8839779005524" y="1722.3686589653441" type="line"/>
      <point x="646.861376192868" y="1722.3184329482672" type="line"/>
      <point x="646.861376192868" y="1500.7021597187345" type="line"/>
      <point x="353.6233048719236" y="1466.8950276243093"/>
      <point x="194.12456052235058" y="1315.6268206931186"/>
      <point x="194.12456052235058" y="1104.1988950276243" type="curve" smooth="yes"/>
      <point x="194.12456052235058" y="847.2521346057257"/>
      <point x="407.4650929181316" y="730.3319939728779"/>
      <point x="590.5645404319437" y="639.9618282270216" type="curve" smooth="yes"/>
      <point x="790.8066298342541" y="540.2943244600705"/>
      <point x="944.7473631341034" y="474.68508287292826"/>
      <point x="944.7473631341034" y="313.3370165745856" type="curve" smooth="yes"/>
      <point x="944.7473631341034" y="188.14967353088903"/>
      <point x="855.3415369161224" y="92.43445504771474"/>
      <point x="679.0356604721245" y="92.43445504771474" type="curve" smooth="yes"/>
      <point x="572.3184329482672" y="92.43445504771474"/>
      <point x="478.4399799095932" y="124.07433450527373"/>
      <point x="437.2737317930688" y="163.74937217478654" type="curve"/>
      <point x="388.2988448016072" y="422.6860873932697" type="line"/>
      <point x="196.394776494224" y="422.6860873932697" type="line"/>
    </contour>
  </outline>
</glyph>
<glyph name="percent" format="2">
  <advance width="2156.051230537418"/>
  <unicode hex="0025"/>
  <outline>
    <contour>
      <point x="659.8643897538924" y="0.0" type="line"/>
      <point x="832.1798091411351" y="0.0" type="line"/>
      <point x="1492.2787543947763" y="1502.0" type="line"/>
      <point x="1319.7729784028127" y="1501.949773982923" type="line"/>
    </contour>
    <contour>
      <point x="488.64289301858366" y="630.6298342541436" type="curve" smooth="yes"/>
      <point x="724.008538422903" y="630.6298342541436"/>
      <point x="927.3566047212456" y="783.2752385735812"/>
      <point x="927.3566047212456" y="1062.3028628829734" type="curve" smooth="yes"/>
      <point x="927.3566047212456" y="1298.9773982923155"/>
      <point x="815.9306880964339" y="1486.5680562531393"/>
      <point x="527.305876443998" y="1486.5680562531393" type="curve" smooth="yes"/>
      <point x="287.6770467101959" y="1486.5680562531393"/>
      <point x="89.90808638874937" y="1329.3304871923658"/>
      <point x="89.90808638874937" y="1050.3028628829734" type="curve" smooth="yes"/>
      <point x="89.90808638874937" y="821.5886489201407"/>
      <point x="233.55801104972375" y="630.6298342541436"/>
    </contour>
    <contour>
      <point x="505.8036162732295" y="738.2576594676043" type="curve" smooth="yes"/>
      <point x="396.8714213962832" y="738.2576594676043"/>
      <point x="351.91160220994476" y="895.7840281265695"/>
      <point x="351.91160220994476" y="1061.3294826720241" type="curve" smooth="yes"/>
      <point x="351.91160220994476" y="1253.6710195881467"/>
      <point x="403.13410346559516" y="1378.0190858864892"/>
      <point x="514.305876443998" y="1378.0190858864892" type="curve" smooth="yes"/>
      <point x="623.7785032646912" y="1378.0190858864892"/>
      <point x="667.3972877950778" y="1234.6865896534405"/>
      <point x="667.3972877950778" y="1054.3028628829734" type="curve" smooth="yes"/>
      <point x="667.3972877950778" y="860.8689100954294"/>
      <point x="616.1200401808136" y="738.2576594676043"/>
    </contour>
    <contour>
      <point x="1627.2978402812655" y="28.377197388247108" type="curve" smooth="yes"/>
      <point x="1862.343043696635" y="28.377197388247108"/>
      <point x="2066.1431441486684" y="181.0226017076846"/>
      <point x="2066.1431441486684" y="460.05022601707685" type="curve" smooth="yes"/>
      <point x="2066.1431441486684" y="696.2727272727271"/>
      <point x="1954.265193370166" y="884.3154193872425"/>
      <point x="1665.9608237066798" y="884.3154193872425" type="curve" smooth="yes"/>
      <point x="1424.5554997488696" y="884.3154193872425"/>
      <point x="1228.5630336514316" y="727.077850326469"/>
      <point x="1228.5630336514316" y="448.05022601707685" type="curve" smooth="yes"/>
      <point x="1228.5630336514316" y="220.65193370165747"/>
      <point x="1371.7609241587143" y="28.377197388247108"/>
    </contour>
    <contour>
      <point x="1644.00652938222" y="136.00502260170768" type="curve" smooth="yes"/>
      <point x="1535.526368658965" y="136.00502260170768"/>
      <point x="1489.8884982420896" y="293.531391260673"/>
      <point x="1489.8884982420896" y="459.52887995981916" type="curve" smooth="yes"/>
      <point x="1489.8884982420896" y="651.4183827222502"/>
      <point x="1541.337016574586" y="775.7664490205925"/>
      <point x="1652.96082370668" y="775.7664490205925" type="curve" smooth="yes"/>
      <point x="1762.433450527373" y="775.7664490205925"/>
      <point x="1806.05223505776" y="631.3897538925164"/>
      <point x="1806.05223505776" y="452.05022601707685" type="curve" smooth="yes"/>
      <point x="1806.05223505776" y="259.20843797086894"/>
      <point x="1754.3229532898042" y="136.00502260170768"/>
    </contour>
  </outline>
</glyph>
<glyph name="ampersand" format="2">
  <advance width="1631.312908086389"/>
  <unicode hex="0026"/>
  <outline>
    <contour>
      <point x="1591.5675539929682" y="821.0185836263184" type="line"/>
      <point x="1115.6820693119037" y="821.0185836263184" type="line"/>
      <point x="1115.6820693119037" y="700.724761426419" type="line"/>
      <point x="1258.392767453541" y="672.7564038171773" type="line"/>
      <point x="1265.386238071321" y="564.475138121547"/>
      <point x="1239.84329482672" y="439.7011551983927"/>
      <point x="1162.270718232044" y="349.3003515821195" type="curve"/>
      <point x="1024.6539427423404" y="471.6353591160222"/>
      <point x="890.5439477649423" y="616.0100452034154"/>
      <point x="764.2360622802612" y="777.243093922652" type="curve"/>
      <point x="990.1336012054244" y="883.435961828227"/>
      <point x="1140.8342541436464" y="1003.5369161225514"/>
      <point x="1140.8342541436464" y="1196.0627825213462" type="curve" smooth="yes"/>
      <point x="1140.8342541436464" y="1383.5303867403313"/>
      <point x="991.485685585133" y="1504.7237569060774"/>
      <point x="740.1376192867905" y="1504.7237569060774" type="curve" smooth="yes"/>
      <point x="442.2355600200905" y="1504.7237569060774"/>
      <point x="252.84580612757412" y="1339.1436464088397"/>
      <point x="252.84580612757412" y="1135.5454545454547" type="curve" smooth="yes"/>
      <point x="252.84580612757412" y="1006.546459065796"/>
      <point x="327.1818181818182" y="871.1597187343043"/>
      <point x="434.0321446509291" y="724.5399296835761" type="curve"/>
      <point x="228.5002511300854" y="654.0683073832246"/>
      <point x="84.86338523355099" y="530.6499246609743"/>
      <point x="84.86338523355099" y="352.8357609241587" type="curve" smooth="yes"/>
      <point x="84.86338523355099" y="128.05173279758915"/>
      <point x="308.1978905072827" y="-20.34254143646409"/>
      <point x="645.6102461074836" y="-20.34254143646409" type="curve" smooth="yes"/>
      <point x="807.2370668006027" y="-20.34254143646409"/>
      <point x="949.0607734806631" y="15.88297338021095"/>
      <point x="1056.401305876444" y="92.60271220492216" type="curve"/>
      <point x="1172.1752887995983" y="14.766951280763434"/>
      <point x="1251.3545956805626" y="-13.497739829231541"/>
      <point x="1344.2983425414366" y="-13.497739829231541" type="curve" smooth="yes"/>
      <point x="1404.494726268207" y="-13.497739829231541"/>
      <point x="1523.9402310396788" y="-1.785534907081868"/>
      <point x="1546.5153189352081" y="15.408839779005525" type="curve"/>
      <point x="1546.5153189352081" y="114.5650426921145" type="line"/>
      <point x="1463.1351079859367" y="120.47664490205926"/>
      <point x="1354.190858864892" y="191.59065796082368"/>
      <point x="1257.0246107483674" y="271.13008538422906" type="curve"/>
      <point x="1351.2169763937723" y="349.79909593169265"/>
      <point x="1439.9859367152185" y="502.3922651933702"/>
      <point x="1445.4701155198393" y="672.7564038171773" type="curve"/>
      <point x="1591.5675539929682" y="700.724761426419" type="line"/>
    </contour>
    <contour>
      <point x="548.6228026117527" y="1192.6273229532899" type="curve" smooth="yes"/>
      <point x="548.6228026117527" y="1318.8533400301353"/>
      <point x="612.2661978905073" y="1412.1933701657458"/>
      <point x="722.8036162732295" y="1412.1933701657458" type="curve" smooth="yes"/>
      <point x="844.6810647915621" y="1412.1933701657458"/>
      <point x="878.4183827222502" y="1296.0858864892016"/>
      <point x="878.4183827222502" y="1195.2631843294826" type="curve" smooth="yes"/>
      <point x="878.4183827222502" y="1066.3299849321947"/>
      <point x="829.1988950276243" y="954.3606228026117"/>
      <point x="701.6223003515822" y="858.2355600200905" type="curve"/>
      <point x="611.2114515318935" y="979.8001004520343"/>
      <point x="548.6228026117527" y="1076.9919638372678"/>
    </contour>
    <contour>
      <point x="716.1642390758412" y="105.0160723254646" type="curve" smooth="yes"/>
      <point x="501.40231039678554" y="105.41788046207937"/>
      <point x="368.72978402812663" y="237.80964339527875"/>
      <point x="368.72978402812663" y="397.9527875439478" type="curve" smooth="yes"/>
      <point x="368.72978402812663" y="496.98895027624303"/>
      <point x="420.55248618784526" y="582.0411853340031"/>
      <point x="502.00150678051233" y="635.4962330487192" type="curve"/>
      <point x="637.7448518332496" y="464.1818181818182"/>
      <point x="803.5610246107483" y="287.2089402310396"/>
      <point x="955.5534907081868" y="165.394776494224" type="curve"/>
      <point x="889.6423907584127" y="127.911099949774"/>
      <point x="805.3792064289303" y="104.81516825715723"/>
    </contour>
  </outline>
</glyph>
<glyph name="quotesingle" format="2">
  <advance width="711.5374183827222"/>
  <unicode hex="0027"/>
  <outline>
    <contour>
      <point x="485.9924660974385" y="1671.5027624309391" type="line"/>
      <point x="225.54495228528378" y="1671.5027624309391" type="line"/>
      <point x="281.0381717729784" y="890.0311401305877" type="line"/>
      <point x="428.449020592667" y="890.0311401305877" type="line"/>
    </contour>
  </outline>
</glyph>
<glyph name="parenright" format="2">
  <advance width="889.0095429432448"/>
  <unicode hex="0029"/>
  <outline>
    <contour>
      <point x="770.7478653942742" y="621.6363636363636" type="curve" smooth="yes"/>
      <point x="770.7478653942742" y="1327.5620291310902"/>
      <point x="322.0396785534908" y="1612.1376192867906"/>
      <point x="225.88598694123556" y="1666.663987945756" type="curve"/>
      <point x="134.5816172777499" y="1597.254143646409" type="line"/>
      <point x="240.6604721245605" y="1523.8191863385234"/>
      <point x="518.639879457559" y="1197.544450025113"/>
      <point x="503.7343043696635" y="592.1501757910597" type="curve"/>
      <point x="491.14917127071817" y="38.66197890507282"/>
      <point x="229.69311903566046" y="-247.5113008538423"/>
      <point x="135.2626820693119" y="-306.7749874434957" type="curve"/>
      <point x="225.35961828227022" y="-375.3912606730286" type="line"/>
      <point x="337.7453540934204" y="-313.5750878955299"/>
      <point x="770.7478653942742" y="15.290808638874937"/>
    </contour>
  </outline>
</glyph>
<glyph name="asterisk" format="2">
  <advance width="1246.2014063284782"/>
  <unicode hex="002A"/>
  <outline>
    <contour>
      <point x="322.4329482672024" y="1096.1506780512307" type="line"/>
      <point x="125.19487694625816" y="999.0557508789553" type="line"/>
      <point x="234.1622300351582" y="815.0683073832246" type="line"/>
      <point x="413.7840281265695" y="945.5580110497237" type="line"/>
      <point x="587.7970868910096" y="1111.1155198392767" type="line"/>
      <point x="537.0316423907585" y="879.98694123556" type="line"/>
      <point x="519.8779507785033" y="655.728779507785" type="line"/>
      <point x="739.5474635861377" y="656.1808136614766" type="line"/>
      <point x="715.7528879959821" y="880.4319437468608" type="line"/>
      <point x="655.1818181818182" y="1109.3390256152688" type="line"/>
      <point x="837.4439979909594" y="949.2099447513812" type="line"/>
      <point x="1013.4816675037671" y="822.3184329482673" type="line"/>
      <point x="1124.817679558011" y="1011.9472626820693" type="line"/>
      <point x="924.8141637368157" y="1102.7061778001002" type="line"/>
      <point x="689.6966348568559" y="1167.9638372677048" type="line"/>
      <point x="924.5007533902561" y="1238.913108990457" type="line"/>
      <point x="1119.510296333501" y="1336.1481667503765" type="line"/>
      <point x="1010.4028126569565" y="1519.0914113510798" type="line"/>
      <point x="827.9603214465092" y="1389.1938724259167" type="line"/>
      <point x="655.1315921647415" y="1225.8648920140633" type="line"/>
      <point x="706.9412355600202" y="1455.216976393772" type="line"/>
      <point x="725.731290808639" y="1677.3867403314916" type="line"/>
      <point x="504.42541436464086" y="1677.3867403314916" type="line"/>
      <point x="527.7679558011051" y="1451.3591160220994" type="line"/>
      <point x="588.1988950276244" y="1222.4520341536916" type="line"/>
      <point x="409.4897036664992" y="1383.7654445002513" type="line"/>
      <point x="227.6705173279759" y="1511.249121044701" type="line"/>
      <point x="121.3837267704671" y="1326.6695128076344" type="line"/>
      <point x="322.11953792064287" y="1234.4143646408838" type="line"/>
      <point x="553.6840783525868" y="1167.8322451029635" type="line"/>
    </contour>
  </outline>
</glyph>
<glyph name="plus" format="2">
  <advance width="1265.643897538925"/>
  <unicode hex="002B"/>
  <outline>
    <contour>
      <point x="361.96182822702156" y="711.5464590657961" type="line"/>
      <point x="169.45153189352084" y="711.5464590657961" type="line"/>
      <point x="169.45153189352084" y="540.9889502762431" type="line"/>
      <point x="361.96182822702156" y="540.9889502762431" type="line"/>
      <point x="552.657458563536" y="547.082370668006" type="line"/>
      <point x="547.748367654445" y="381.652938221999" type="line"/>
      <point x="547.748367654445" y="156.27021597187343" type="line"/>
      <point x="717.121546961326" y="156.27021597187343" type="line"/>
      <point x="717.121546961326" y="381.652938221999" type="line"/>
      <point x="709.9839276745354" y="547.082370668006" type="line"/>
      <point x="874.5861376192869" y="540.9889502762431" type="line"/>
      <point x="1096.1923656454044" y="540.9889502762431" type="line"/>
      <point x="1096.1923656454044" y="711.5464590657961" type="line"/>
      <point x="874.5861376192869" y="711.5464590657961" type="line"/>
      <point x="709.9839276745354" y="702.1803114013059" type="line"/>
      <point x="717.121546961326" y="871.1526870919135" type="line"/>
      <point x="717.121546961326" y="1099.2702159718735" type="line"/>
      <point x="547.748367654445" y="1099.2702159718735" type="line"/>
      <point x="547.748367654445" y="871.1526870919135" type="line"/>
      <point x="552.657458563536" y="702.1803114013059" type="line"/>
    </contour>
  </outline>
</glyph>
<glyph name="hyphen" format="2">
  <advance width="1135.106479156203"/>
  <unicode hex="002D"/>
  <outline>
    <contour>
      <point x="965.6549472626821" y="712.377197388247" type="line"/>
      <point x="169.45153189352084" y="712.377197388247" type="line"/>
      <point x="169.45153189352084" y="544.0798593671522" type="line"/>
      <point x="965.6549472626821" y="544.0798593671522" type="line"/>
    </contour>
  </outline>
</glyph>
<glyph name="period" format="2">
  <advance width="567.195379206429"/>
  <unicode hex="002E"/>
  <outline>
    <contour>
      <point x="268.66047212456056" y="-17.65745856353591" type="curve" smooth="yes"/>
      <point x="374.16926167754895" y="-17.65745856353591"/>
      <point x="452.1160220994475" y="43.73581115017579"/>
      <point x="452.1160220994475" y="146.44550477147163" type="curve" smooth="yes"/>
      <point x="452.1160220994475" y="223.1054746358614"/>
      <point x="397.45454545454544" y="295.81567051732793"/>
      <point x="295.9291813159216" y="295.81567051732793" type="curve" smooth="yes"/>
      <point x="197.789552988448" y="295.81567051732793"/>
      <point x="115.67152184831743" y="228.21145153189354"/>
      <point x="115.67152184831743" y="131.12054244098442" type="curve" smooth="yes"/>
      <point x="115.67152184831743" y="43.24510296333501"/>
      <point x="188.05072827724766" y="-17.65745856353591"/>
    </contour>
  </outline>
</glyph>
<glyph name="slash" format="2">
  <advance width="819.5419387242591"/>
  <unicode hex="002F"/>
  <outline>
    <contour>
      <point x="757.5570065293822" y="1562.0" type="line"/>
      <point x="574.952285283777" y="1562.0" type="line"/>
      <point x="61.98493219487695" y="-354.0" type="line"/>
      <point x="246.03716725263686" y="-354.0" type="line"/>
    </contour>
  </outline>
</glyph>
<glyph name="zero" format="2">
  <advance width="1460.383224510296"/>
  <unicode hex="0030"/>
  <outline>
    <contour>
      <point x="703.0517327975891" y="-20.171270718232044" type="curve" smooth="yes"/>
      <point x="1102.3686589653441" y="-20.171270718232044"/>
      <point x="1380.0964339527877" y="243.82772476142642"/>
      <point x="1381.2913108990456" y="758.2641888498241" type="curve" smooth="yes"/>
      <point x="1382.486187845304" y="1235.4098442993472"/>
      <point x="1148.6353591160218" y="1504.7237569060774"/>
      <point x="759.4912104470114" y="1504.7237569060774" type="curve" smooth="yes"/>
      <point x="379.82571572074335" y="1504.7237569060774"/>
      <point x="80.41838272225014" y="1251.09141135108"/>
      <point x="79.09191361125062" y="732.8262179809141" type="curve" smooth="yes"/>
      <point x="77.76544450025115" y="261.89050728277243"/>
      <point x="313.0552486187845" y="-20.171270718232044"/>
    </contour>
    <contour>
      <point x="731.3038674033149" y="88.80010045203416" type="curve" smooth="yes"/>
      <point x="530.8458061275741" y="88.80010045203416"/>
      <point x="421.54947262682066" y="282.42240080361626"/>
      <point x="421.54947262682066" y="748.9191361125063" type="curve" smooth="yes"/>
      <point x="421.54947262682066" y="1242.0060271220493"/>
      <point x="535.4585635359116" y="1396.2787543947763"/>
      <point x="731.2611752887997" y="1396.2787543947763" type="curve" smooth="yes"/>
      <point x="928.9422400803617" y="1396.2787543947763"/>
      <point x="1038.8337518834755" y="1239.6433952787545"/>
      <point x="1038.8337518834755" y="729.6042189854344" type="curve" smooth="yes"/>
      <point x="1038.8337518834755" y="265.50828729281767"/>
      <point x="948.9397287795077" y="88.80010045203416"/>
    </contour>
  </outline>
</glyph>
<glyph name="one" format="2">
  <advance width="925.0929181315921"/>
  <unicode hex="0031"/>
  <outline>
    <contour>
      <point x="347.6378704168759" y="125.9025615268709" type="line"/>
      <point x="106.24610748367655" y="103.22752385735811" type="line"/>
      <point x="106.24610748367655" y="0.0" type="line"/>
      <point x="879.2395781014565" y="0.0" type="line"/>
      <point x="879.2395781014565" y="103.22752385735811" type="line"/>
      <point x="655.3289804118534" y="125.50477147162229" type="line"/>
      <point x="656.5133098945254" y="1483.865394274234" type="line"/>
      <point x="499.4289301858363" y="1505.4475138121547" type="line"/>
      <point x="495.5866398794575" y="1505.4475138121547" type="line"/>
      <point x="402.66348568558516" y="1419.9186338523357"/>
      <point x="219.20140632847819" y="1334.5062782521347"/>
      <point x="58.250125565042694" y="1303.1903566047213" type="curve"/>
      <point x="82.75539929683576" y="1173.6403817177297" type="line"/>
      <point x="156.26318432948267" y="1180.948267202411"/>
      <point x="297.8819688598694" y="1214.0361627322952"/>
      <point x="347.3867403314917" y="1231.312908086389" type="curve"/>
    </contour>
  </outline>
</glyph>
<glyph name="two" format="2">
  <advance width="1229.2440984429934"/>
  <unicode hex="0032"/>
  <outline>
    <contour>
      <point x="29.133098945253636" y="115.08186840783526" type="curve"/>
      <point x="73.54796584630841" y="0.0" type="line"/>
      <point x="1120.1170266197892" y="0.0" type="line"/>
      <point x="1179.963335007534" y="352.71622300351584" type="line"/>
      <point x="1056.1546961325969" y="377.0758412857861" type="line"/>
      <point x="976.2933199397289" y="219.27021597187343" type="line"/>
      <point x="320.4103465595178" y="164.2270215971874" type="line"/>
      <point x="687.0728277247613" y="386.238573581115"/>
      <point x="1072.7870416875944" y="723.1109994977398"/>
      <point x="1072.7870416875944" y="1088.277749874435" type="curve" smooth="yes"/>
      <point x="1072.7870416875944" y="1345.8573581115018"/>
      <point x="864.2757408337519" y="1503.4475138121547"/>
      <point x="595.615770969362" y="1503.4475138121547" type="curve" smooth="yes"/>
      <point x="383.37518834756406" y="1503.4475138121547"/>
      <point x="170.24309392265195" y="1393.7398292315418"/>
      <point x="58.83676544450025" y="1245.4173782019088" type="curve"/>
      <point x="142.92265193370167" y="1151.5278754394774" type="line"/>
      <point x="240.99748869914617" y="1256.309894525364"/>
      <point x="377.1818181818182" y="1308.6378704168758"/>
      <point x="487.23807132094424" y="1308.6378704168758" type="curve" smooth="yes"/>
      <point x="657.1185334003013" y="1308.6378704168758"/>
      <point x="767.0331491712708" y="1217.2988448016076"/>
      <point x="767.8227021597188" y="1040.0572576594677" type="curve" smooth="yes"/>
      <point x="769.2702159718734" y="697.5369161225515"/>
      <point x="372.1386238071321" y="319.1356102461075"/>
    </contour>
  </outline>
</glyph>
<glyph name="three" format="2">
  <advance width="1172.3234555499753"/>
  <unicode hex="0033"/>
  <outline>
    <contour>
      <point x="396.5730788548468" y="-32.448016072325466" type="curve" smooth="yes"/>
      <point x="739.8583626318434" y="-32.749372174786544"/>
      <point x="1093.1486690105473" y="151.93420391762933"/>
      <point x="1091.7925665494727" y="457.930688096434" type="curve" smooth="yes"/>
      <point x="1091.1145153189352" y="677.095429432446"/>
      <point x="877.7965846308388" y="809.0527373179306"/>
      <point x="583.5328980411853" y="772.6393771973882" type="curve"/>
      <point x="821.8955298844803" y="845.3159216474135"/>
      <point x="1015.8382722250126" y="978.932697137117"/>
      <point x="1015.8382722250126" y="1188.1004520341537" type="curve" smooth="yes"/>
      <point x="1015.8382722250126" y="1398.1597187343043"/>
      <point x="793.5821195379208" y="1502.8553490708186"/>
      <point x="558.7066800602712" y="1502.8553490708186" type="curve" smooth="yes"/>
      <point x="336.1195379206429" y="1502.8553490708186"/>
      <point x="135.96584630838777" y="1403.8975389251636"/>
      <point x="56.08186840783526" y="1331.3822199899548" type="curve"/>
      <point x="121.56604721245606" y="1223.021597187343" type="line"/>
      <point x="200.84279256654946" y="1281.2661978905076"/>
      <point x="306.85936715218486" y="1330.5298844801605"/>
      <point x="444.43997990959315" y="1330.6303365143142" type="curve" smooth="yes"/>
      <point x="586.6469110999498" y="1330.7810145655449"/>
      <point x="691.4053239578102" y="1274.4485183324962"/>
      <point x="690.9532898041185" y="1138.3068809643396" type="curve" smooth="yes"/>
      <point x="690.501255650427" y="1007.702661978905"/>
      <point x="590.6870919136113" y="908.6017076845807"/>
      <point x="430.5344048216977" y="842.4811652435963" type="curve" smooth="yes"/>
      <point x="378.00452034153693" y="820.5765946760423"/>
      <point x="316.5389251632346" y="803.7016574585635"/>
      <point x="258.13058764439984" y="794.0929181315922" type="curve"/>
      <point x="299.26569563033655" y="680.0271220492215" type="line"/>
      <point x="329.24309392265195" y="686.7127071823204"/>
      <point x="401.17729784028126" y="705.6137619286792"/>
      <point x="433.0241084881969" y="713.5755901557006" type="curve"/>
      <point x="634.6609743847312" y="708.988950276243"/>
      <point x="753.4962330487192" y="615.5539929683575"/>
      <point x="753.5966850828729" y="450.16373681567046" type="curve" smooth="yes"/>
      <point x="753.7473631341034" y="236.87845303867408"/>
      <point x="564.3746860873932" y="108.07985936715218"/>
      <point x="311.12807634354596" y="108.33098945253641" type="curve" smooth="yes"/>
      <point x="214.91612255148166" y="108.38121546961327"/>
      <point x="154.1833249623305" y="121.2069311903566"/>
      <point x="91.5334003013561" y="139.85585133098942" type="curve"/>
      <point x="88.50678051230537" y="8.430436966348568" type="line"/>
      <point x="150.7277749874435" y="-11.371672526368659"/>
      <point x="261.7925665494726" y="-32.39779005524862"/>
    </contour>
  </outline>
</glyph>
<glyph name="four" format="2">
  <advance width="1311.81717729784"/>
  <unicode hex="0034"/>
  <outline>
    <contour>
      <point x="788.835258663988" y="0.0" type="line"/>
      <point x="1064.9552988448015" y="0.0" type="line"/>
      <point x="1064.9552988448015" y="294.9578101456554" type="line"/>
      <point x="1272.7805123053745" y="294.9578101456554" type="line"/>
      <point x="1272.7302862882975" y="488.6921145153189" type="line"/>
      <point x="1064.7734806629833" y="473.75188347564034" type="line"/>
      <point x="1064.8237066800602" y="880.739829231542" type="line"/>
      <point x="810.2847815168257" y="862.2918131592165" type="line"/>
      <point x="790.2325464590658" y="454.769964841788" type="line"/>
      <point x="288.7880462079358" y="424.3485685585133" type="line"/>
      <point x="414.56604721245606" y="589.4023103967855" type="line"/>
      <point x="869.3455549974888" y="1374.5871421396284" type="line"/>
      <point x="611.228026117529" y="1496.8563535911603" type="line"/>
      <point x="539.0723254645907" y="1496.8563535911603" type="line"/>
      <point x="409.48618784530385" y="1199.0441988950276"/>
      <point x="198.74886991461574" y="710.4284279256653"/>
      <point x="40.42491210447012" y="405.75037669512807" type="curve"/>
      <point x="107.67604218985434" y="294.9578101456554" type="line"/>
      <point x="788.835258663988" y="294.9578101456554" type="line"/>
    </contour>
  </outline>
</glyph>
<glyph name="five" format="2">
  <advance width="1219.052737317931"/>
  <unicode hex="0035"/>
  <outline>
    <contour>
      <point x="115.66599698643898" y="104.60522350577598" type="curve"/>
      <point x="115.89804118533402" y="-13.695128076343547" type="line"/>
      <point x="168.20341536916118" y="-27.94776494224008"/>
      <point x="256.3144148669011" y="-31.592667001506783"/>
      <point x="306.4188849824209" y="-31.197890507282775" type="curve" smooth="yes"/>
      <point x="766.1828227021597" y="-29.487192365645406"/>
      <point x="1133.2661978905073" y="202.2908086388749"/>
      <point x="1133.2661978905073" y="547.685585133099" type="curve" smooth="yes"/>
      <point x="1133.2661978905073" y="791.9613259668508"/>
      <point x="973.965344048217" y="939.4003013561025"/>
      <point x="683.2199899547967" y="939.4003013561025" type="curve" smooth="yes"/>
      <point x="532.5991963837267" y="939.4003013561025"/>
      <point x="366.6931190356605" y="885.0999497739829"/>
      <point x="297.2024108488196" y="839.9065796082372" type="curve"/>
      <point x="391.5951783023606" y="1266.166750376695" type="line"/>
      <point x="1043.8151682571572" y="1266.166750376695" type="line"/>
      <point x="1086.4239075841285" y="1523.7488699146156" type="line"/>
      <point x="951.785032646911" y="1523.7488699146156" type="line"/>
      <point x="930.3686589653439" y="1485.949773982923" type="line"/>
      <point x="207.8071320944249" y="1485.949773982923" type="line"/>
      <point x="107.15218483174284" y="745.6765444500252" type="line"/>
      <point x="183.24861878453038" y="699.5198392767454" type="line"/>
      <point x="262.6700150678051" y="738.0532395781014"/>
      <point x="400.87995981918635" y="771.6931190356604"/>
      <point x="507.09894525364143" y="771.6931190356604" type="curve" smooth="yes"/>
      <point x="696.1069814163736" y="771.6931190356604"/>
      <point x="800.5047714716222" y="684.9055750878955"/>
      <point x="800.5047714716222" y="512.5223505775991" type="curve" smooth="yes"/>
      <point x="800.5047714716222" y="268.0858864892014"/>
      <point x="562.6052235057759" y="98.96534404821698"/>
      <point x="274.11652435961827" y="97.78101456554495" type="curve" smooth="yes"/>
      <point x="228.4962330487192" y="97.25464590657961"/>
      <point x="157.38272225012554" y="99.96283274736314"/>
    </contour>
  </outline>
</glyph>
<glyph name="six" format="2">
  <advance width="1302.015067805123"/>
  <unicode hex="0036"/>
  <outline>
    <contour>
      <point x="655.722250125565" y="-32.31642390758413" type="curve" smooth="yes"/>
      <point x="1008.9758915118031" y="-32.366649924660976"/>
      <point x="1238.5605223505777" y="196.4018081366148"/>
      <point x="1238.5605223505777" y="494.54244098442996" type="curve" smooth="yes"/>
      <point x="1238.5605223505777" y="778.8016072325465"/>
      <point x="1056.4439979909594" y="951.4495228528378"/>
      <point x="775.4178804620793" y="951.4495228528378" type="curve" smooth="yes"/>
      <point x="622.5539929683575" y="951.4495228528378"/>
      <point x="507.3917629331994" y="892.8367654445003"/>
      <point x="438.23154193872426" y="820.9844299347062" type="curve"/>
      <point x="510.6238071320944" y="1091.244600703164"/>
      <point x="672.5429432446007" y="1332.9070818684079"/>
      <point x="1013.7875439477649" y="1447.0376695128077" type="curve"/>
      <point x="960.2285283776997" y="1545.6815670517326" type="line"/>
      <point x="508.53992968357613" y="1471.7890507282773"/>
      <point x="83.3360120542441" y="1079.8181818181818"/>
      <point x="83.3360120542441" y="577.8131592164741" type="curve" smooth="yes"/>
      <point x="83.3360120542441" y="239.98794575590153"/>
      <point x="303.00703164239076" y="-32.266197890507286"/>
    </contour>
    <contour>
      <point x="674.1145153189353" y="805.4876946258163" type="curve" smooth="yes"/>
      <point x="820.841788046208" y="805.4374686087394"/>
      <point x="918.5233550979408" y="681.1903566047213"/>
      <point x="918.5233550979408" y="429.22350577599195" type="curve" smooth="yes"/>
      <point x="918.5233550979408" y="226.5484681064792"/>
      <point x="833.6901054746359" y="78.18884982420894"/>
      <point x="665.9959819186339" y="78.18884982420894" type="curve" smooth="yes"/>
      <point x="478.1667503766951" y="78.18884982420894"/>
      <point x="402.97438473129074" y="272.64389753892516"/>
      <point x="402.97438473129074" y="536.815670517328" type="curve" smooth="yes"/>
      <point x="402.97438473129074" y="608.3646408839779"/>
      <point x="406.3716725263686" y="651.1722752385737"/>
      <point x="410.27975891511795" y="686.9372174786539" type="curve"/>
      <point x="448.8297338021095" y="735.3822199899549"/>
      <point x="541.5082872928177" y="805.537920642893"/>
    </contour>
  </outline>
</glyph>
<glyph name="seven" format="2">
  <advance width="1231.8603716725263"/>
  <unicode hex="0037"/>
  <outline>
    <contour>
      <point x="691.7217478653943" y="-0.5524861878453038" type="line"/>
      <point x="1180.492214967353" y="1422.1295831240582" type="line"/>
      <point x="1129.0215971873429" y="1486.0" type="line"/>
      <point x="108.80713209442492" y="1486.0" type="line"/>
      <point x="56.27122049221496" y="1038.6258161727774" type="line"/>
      <point x="207.822199899548" y="1009.5479658463083" type="line"/>
      <point x="302.60673028628827" y="1275.0185836263186" type="line"/>
      <point x="936.5705675539929" y="1284.9663485685585" type="line"/>
      <point x="766.9352084379708" y="887.0708186840783"/>
      <point x="563.3058764439979" y="460.47614264188843"/>
      <point x="332.50226017076847" y="0.0" type="curve"/>
    </contour>
  </outline>
</glyph>
<glyph name="eight" format="2">
  <advance width="1358.0165745856357"/>
  <unicode hex="0038"/>
  <outline>
    <contour>
      <point x="92.09944751381215" y="359.47915620291315" type="curve" smooth="yes"/>
      <point x="92.09944751381215" y="87.01406328478151"/>
      <point x="382.3465595178302" y="-20.94525364138624"/>
      <point x="660.1692616775489" y="-20.94525364138624" type="curve" smooth="yes"/>
      <point x="985.1557006529381" y="-20.94525364138624"/>
      <point x="1265.9171270718234" y="114.63184329482671"/>
      <point x="1265.9171270718234" y="403.57157207433454" type="curve" smooth="yes"/>
      <point x="1265.9171270718234" y="592.3254645906578"/>
      <point x="1105.8558513309897" y="734.5077850326469"/>
      <point x="896.1461577096936" y="823.0637870416876" type="curve"/>
      <point x="1087.5770969362131" y="901.2084379708689"/>
      <point x="1183.9331993972876" y="1019.4229030637871"/>
      <point x="1183.9331993972876" y="1169.613761928679" type="curve" smooth="yes"/>
      <point x="1183.9331993972876" y="1369.591662481165"/>
      <point x="992.6283274736313" y="1505.4475138121547"/>
      <point x="691.4193872425917" y="1505.4475138121547" type="curve" smooth="yes"/>
      <point x="411.81265695630333" y="1505.4475138121547"/>
      <point x="160.33701657458562" y="1368.8915118031136"/>
      <point x="160.33701657458562" y="1103.2616775489703" type="curve" smooth="yes"/>
      <point x="160.33701657458562" y="944.6534404821697"/>
      <point x="262.74485183324964" y="798.7217478653944"/>
      <point x="421.8879959819187" y="722.8643897538925" type="curve"/>
      <point x="196.75188347564037" y="656.4756403817178"/>
      <point x="92.09944751381215" y="504.5107985936715"/>
    </contour>
    <contour>
      <point x="434.37167252636874" y="1186.4856855851328" type="curve" smooth="yes"/>
      <point x="434.37167252636874" y="1323.249121044701"/>
      <point x="556.5660472124559" y="1402.0954294324458"/>
      <point x="688.3184329482673" y="1402.0954294324458" type="curve" smooth="yes"/>
      <point x="853.8950276243094" y="1402.0954294324458"/>
      <point x="947.7056755399298" y="1299.726268206931"/>
      <point x="947.7056755399298" y="1135.479156202913" type="curve" smooth="yes"/>
      <point x="947.7056755399298" y="1029.8789552988449"/>
      <point x="893.5685585133099" y="924.320944249121"/>
      <point x="790.5705675539929" y="866.2466097438473" type="curve"/>
      <point x="596.6760421898546" y="946.9507785032647"/>
      <point x="434.37167252636874" y="1029.426921145153"/>
    </contour>
    <contour>
      <point x="957.2958312405826" y="326.12707182320446" type="curve" smooth="yes"/>
      <point x="957.2958312405826" y="173.3345052737318"/>
      <point x="821.7900552486188" y="88.61978905072827"/>
      <point x="674.898041185334" y="88.61978905072827" type="curve" smooth="yes"/>
      <point x="476.7523857358112" y="88.61978905072827"/>
      <point x="351.5052737317931" y="217.04419889502762"/>
      <point x="351.5052737317931" y="401.91310899045703" type="curve" smooth="yes"/>
      <point x="351.5052737317931" y="512.141135107986"/>
      <point x="412.3711702661979" y="628.3335007533905"/>
      <point x="517.1928679055752" y="678.7744851833249" type="curve"/>
      <point x="745.2822702159717" y="588.0286288297336"/>
      <point x="957.2958312405826" y="498.3370165745856"/>
    </contour>
  </outline>
</glyph>
<glyph name="nine" format="2">
  <advance width="1302.687091913611"/>
  <unicode hex="0039"/>
  <outline>
    <contour>
      <point x="652.4625816172779" y="1505.4475138121547" type="curve" smooth="yes"/>
      <point x="298.1436464088397" y="1505.4475138121547"/>
      <point x="63.454545454545446" y="1281.9121044701153"/>
      <point x="63.454545454545446" y="983.8749372174785" type="curve" smooth="yes"/>
      <point x="63.454545454545446" y="677.3636363636364"/>
      <point x="252.46710195881465" y="490.2621798091411"/>
      <point x="530.3038674033149" y="490.2621798091411" type="curve" smooth="yes"/>
      <point x="681.5655449522853" y="490.2621798091411"/>
      <point x="797.7368156705176" y="551.9844299347061"/>
      <point x="862.0411853340029" y="627.8990457056756" type="curve"/>
      <point x="791.5012556504269" y="339.1099949773983"/>
      <point x="631.733299849322" y="115.16926167754899"/>
      <point x="296.4203917629332" y="8.488196885986941" type="curve"/>
      <point x="348.4003013561025" y="-89.89251632345555" type="line"/>
      <point x="786.3621295831241" y="-16.51531893520844"/>
      <point x="1219.3510798593672" y="345.2134605725766"/>
      <point x="1219.3510798593672" y="898.2039176293318" type="curve" smooth="yes"/>
      <point x="1219.3510798593672" y="1244.0783525866398"/>
      <point x="1020.7543947764942" y="1505.4475138121547"/>
    </contour>
    <contour>
      <point x="627.4364640883979" y="636.6187845303867" type="curve" smooth="yes"/>
      <point x="468.07835258663994" y="636.6690105474636"/>
      <point x="385.18232044198885" y="815.4309392265193"/>
      <point x="385.18232044198885" y="1036.7428427925663" type="curve" smooth="yes"/>
      <point x="385.18232044198885" y="1234.3114013058766"/>
      <point x="466.96333500753383" y="1395.6002009040683"/>
      <point x="632.0200904068307" y="1395.6002009040683" type="curve" smooth="yes"/>
      <point x="828.1888498242089" y="1395.6002009040683"/>
      <point x="897.6559517830235" y="1187.2129583124056"/>
      <point x="897.6559517830236" y="909.5263686589655" type="curve" smooth="yes"/>
      <point x="897.6559517830236" y="848.4374686087393"/>
      <point x="894.2586639879457" y="801.3701657458564"/>
      <point x="890.1687594173783" y="762.0120542440983" type="curve"/>
      <point x="848.9869412355599" y="705.433952787544"/>
      <point x="758.0683073832245" y="636.5685585133099"/>
    </contour>
  </outline>
</glyph>
<glyph name="colon" format="2">
  <advance width="681.1320944249121"/>
  <unicode hex="003A"/>
  <outline>
    <contour>
      <point x="325.03666499246617" y="786.1707684580614" type="curve" smooth="yes"/>
      <point x="431.13761928679054" y="786.1707684580614"/>
      <point x="508.49221496735305" y="847.5640381717731"/>
      <point x="508.49221496735305" y="950.2737317930689" type="curve" smooth="yes"/>
      <point x="508.49221496735305" y="1026.9337016574584"/>
      <point x="454.42290306378703" y="1099.6438975389253"/>
      <point x="352.3053741838272" y="1099.6438975389253" type="curve" smooth="yes"/>
      <point x="254.1657458563536" y="1099.6438975389253"/>
      <point x="172.047714716223" y="1032.0396785534906"/>
      <point x="172.047714716223" y="934.3566047212457" type="curve" smooth="yes"/>
      <point x="172.047714716223" y="847.0733299849322"/>
      <point x="244.4269211451532" y="786.1707684580614"/>
    </contour>
    <contour>
      <point x="325.03666499246617" y="-17.65745856353591" type="curve" smooth="yes"/>
      <point x="431.13761928679054" y="-17.65745856353591"/>
      <point x="508.49221496735305" y="43.73581115017579"/>
      <point x="508.49221496735305" y="146.44550477147163" type="curve" smooth="yes"/>
      <point x="508.49221496735305" y="223.1054746358614"/>
      <point x="454.42290306378703" y="295.81567051732793"/>
      <point x="352.3053741838272" y="295.81567051732793" type="curve" smooth="yes"/>
      <point x="254.1657458563536" y="295.81567051732793"/>
      <point x="172.047714716223" y="228.21145153189354"/>
      <point x="172.047714716223" y="131.12054244098442" type="curve" smooth="yes"/>
      <point x="172.047714716223" y="43.24510296333501"/>
      <point x="244.4269211451532" y="-17.65745856353591"/>
    </contour>
  </outline>
</glyph>
<glyph name="semicolon" format="2">
  <advance width="581.0557508789553"/>
  <unicode hex="003B"/>
  <outline>
    <contour>
      <point x="313.6022099447514" y="786.1707684580614" type="curve" smooth="yes"/>
      <point x="419.11099949773984" y="786.1707684580614"/>
      <point x="497.0577599196384" y="847.5640381717731"/>
      <point x="497.0577599196384" y="950.2737317930689" type="curve" smooth="yes"/>
      <point x="497.0577599196384" y="1026.9337016574584"/>
      <point x="442.98844801607237" y="1099.6438975389253"/>
      <point x="340.8709191361125" y="1099.6438975389253" type="curve" smooth="yes"/>
      <point x="242.73129080863887" y="1099.6438975389253"/>
      <point x="160.6132596685083" y="1032.0396785534906"/>
      <point x="160.6132596685083" y="934.3566047212457" type="curve" smooth="yes"/>
      <point x="160.6132596685083" y="847.0733299849322"/>
      <point x="232.99246609743847" y="786.1707684580614"/>
    </contour>
    <contour>
      <point x="327.1200401808137" y="327.85534907081865" type="curve"/>
      <point x="316.32546459065804" y="327.85534907081865" type="line" smooth="yes"/>
      <point x="231.5781014565545" y="327.85534907081865"/>
      <point x="170.35158211953794" y="274.3345052737318"/>
      <point x="170.35158211953794" y="191.06680060271222" type="curve" smooth="yes"/>
      <point x="170.35158211953794" y="52.50929181315922"/>
      <point x="291.6624811652436" y="54.77950778503264"/>
      <point x="291.6624811652436" y="-48.50276243093923" type="curve" smooth="yes"/>
      <point x="291.6624811652436" y="-172.8518332496233"/>
      <point x="229.56454043194373" y="-333.2024108488197"/>
      <point x="165.07383224510295" y="-388.8965344048217" type="curve"/>
      <point x="165.07383224510295" y="-413.96082370668006" type="line"/>
      <point x="241.08940231039682" y="-465.39176293319935" type="line"/>
      <point x="243.03917629331997" y="-465.260170768458" type="line"/>
      <point x="354.75941737820193" y="-406.4118533400302"/>
      <point x="508.9713711702662" y="-177.20492214967354"/>
      <point x="508.9713711702662" y="70.11250627825214" type="curve" smooth="yes"/>
      <point x="508.9713711702662" y="221.156202913109"/>
      <point x="426.6961325966852" y="327.85534907081865"/>
    </contour>
  </outline>
</glyph>
<glyph name="less" format="2">
  <advance width="1485.8021094927171"/>
  <unicode hex="003C"/>
  <outline>
    <contour>
      <point x="1238.5404319437469" y="1100.909090909091" type="line"/>
      <point x="181.67955801104972" y="617.8749372174785" type="line"/>
      <point x="181.67955801104972" y="507.5796082370668" type="line"/>
      <point x="1238.5404319437469" y="27.090909090909093" type="line"/>
      <point x="1238.5404319437469" y="214.81567051732796" type="line"/>
      <point x="412.8247112004018" y="563.6363636363637" type="line"/>
      <point x="1238.5404319437469" y="909.863385233551" type="line"/>
    </contour>
  </outline>
</glyph>
<glyph name="equal" format="2">
  <advance width="1341.007031642391"/>
  <unicode hex="003D"/>
  <outline>
    <contour>
      <point x="1171.5554997488703" y="978.030637870417" type="line"/>
      <point x="169.45153189352084" y="978.030637870417" type="line"/>
      <point x="169.45153189352084" y="817.2199899547967" type="line"/>
      <point x="1171.5554997488703" y="817.2199899547967" type="line"/>
    </contour>
    <contour>
      <point x="1171.5554997488703" y="438.95479658463086" type="line"/>
      <point x="169.45153189352084" y="438.95479658463086" type="line"/>
      <point x="169.45153189352084" y="278.1441486690105" type="line"/>
      <point x="1171.5554997488703" y="278.1441486690105" type="line"/>
    </contour>
  </outline>
</glyph>
<glyph name="greater" format="2">
  <advance width="1484.2199899547963"/>
  <unicode hex="003E"/>
  <outline>
    <contour>
      <point x="1294.776494224008" y="538.670517327976" type="line"/>
      <point x="1294.776494224008" y="648.9658463083877" type="line"/>
      <point x="244.36363636363637" y="1132.0" type="line"/>
      <point x="244.36363636363637" y="941.3490708186841" type="line"/>
      <point x="1063.4997488699148" y="594.7272727272727" type="line"/>
      <point x="244.36363636363637" y="245.6433952787544" type="line"/>
      <point x="244.36363636363637" y="58.18181818181818" type="line"/>
    </contour>
  </outline>
</glyph>
<glyph name="question" format="2">
  <advance width="978.7227523857357"/>
  <unicode hex="003F"/>
  <outline>
    <contour>
      <point x="336.24912104470116" y="498.3671521848317" type="curve"/>
      <point x="490.1923656454044" y="498.3671521848317" type="line"/>
      <point x="477.3304871923657" y="582.8513309894525"/>
      <point x="472.65344048216974" y="666.6619789050728"/>
      <point x="472.65344048216974" y="745.8056253139126" type="curve" smooth="yes"/>
      <point x="471.46911099949773" y="772.7538925163234"/>
      <point x="477.32496233048715" y="801.3460572576594"/>
      <point x="484.0467101958815" y="814.7800100452033" type="curve"/>
      <point x="575.0863887493722" y="954.1597187343045"/>
      <point x="929.1933701657459" y="1016.2742340532395"/>
      <point x="929.1933701657458" y="1342.2245102963334" type="curve" smooth="yes"/>
      <point x="929.1933701657458" y="1582.5640381717728"/>
      <point x="768.7187343043697" y="1807.0698141637367"/>
      <point x="367.2867905575088" y="1807.0698141637367" type="curve" smooth="yes"/>
      <point x="226.8879959819186" y="1807.0698141637367"/>
      <point x="123.87292817679558" y="1777.6870919136113"/>
      <point x="75.09593169261677" y="1751.5158211953792" type="curve"/>
      <point x="112.0301356102461" y="1609.539929683576" type="line"/>
      <point x="148.81667503766948" y="1627.539929683576"/>
      <point x="216.13008538422903" y="1643.8493219487693"/>
      <point x="290.1717729784028" y="1643.8493219487693" type="curve" smooth="yes"/>
      <point x="541.8061275740833" y="1643.8493219487693"/>
      <point x="652.1200401808136" y="1480.7272727272725"/>
      <point x="652.1200401808136" y="1311.288297338021" type="curve" smooth="yes"/>
      <point x="652.1200401808136" y="1194.4495228528378"/>
      <point x="586.2561526870919" y="1093.1230537418382"/>
      <point x="521.6659969864389" y="1054.4419889502763" type="curve" smooth="yes"/>
      <point x="333.6393771973883" y="946.9121044701155"/>
      <point x="247.51029633350075" y="886.01958814666"/>
      <point x="247.51029633350075" y="771.8432948267202" type="curve"/>
      <point x="252.2184831742843" y="680.6569563033652"/>
      <point x="297.7207433450527" y="570.9030637870418"/>
    </contour>
    <contour>
      <point x="382.9558011049724" y="-17.65745856353591" type="curve" smooth="yes"/>
      <point x="489.9105976896032" y="-17.65745856353591"/>
      <point x="568.3596182822703" y="42.69161225514817"/>
      <point x="568.3596182822703" y="145.40130587644398" type="curve" smooth="yes"/>
      <point x="568.3596182822703" y="221.46911099949776"/>
      <point x="513.1958814665998" y="293.1351079859367"/>
      <point x="410.2245102963335" y="293.1351079859367" type="curve" smooth="yes"/>
      <point x="312.5871421396284" y="293.1351079859367"/>
      <point x="230.10698141637369" y="226.12305374183828"/>
      <point x="230.10698141637369" y="129.48417880462077" type="curve" smooth="yes"/>
      <point x="230.10698141637369" y="41.60873932697137"/>
      <point x="303.4404821697639" y="-17.65745856353591"/>
    </contour>
  </outline>
</glyph>
<glyph name="at" format="2">
  <advance width="2231.1898543445504"/>
  <unicode hex="0040"/>
  <outline>
    <contour>
      <point x="147.17076845806127" y="348.06830738322446" type="curve" smooth="yes"/>
      <point x="147.17076845806127" y="-199.25514816675042"/>
      <point x="513.1165243596182" y="-515.9226519337017"/>
      <point x="979.7307885484679" y="-515.9226519337017" type="curve" smooth="yes"/>
      <point x="1181.056755399297" y="-515.9226519337017"/>
      <point x="1381.5419387242591" y="-458.5414364640884"/>
      <point x="1491.6082370668005" y="-368.8563535911602" type="curve"/>
      <point x="1455.9713711702661" y="-290.32395781014566" type="line"/>
      <point x="1372.3726770467101" y="-344.7122049221497"/>
      <point x="1195.6489201406328" y="-388.1582119537921"/>
      <point x="1034.9673530889004" y="-388.1582119537921" type="curve" smooth="yes"/>
      <point x="653.5951783023604" y="-388.1582119537921"/>
      <point x="330.3234555499749" y="-134.6906077348066"/>
      <point x="330.3234555499749" y="387.27523857358113" type="curve" smooth="yes"/>
      <point x="330.3234555499749" y="968.7041687594175"/>
      <point x="706.7117026619788" y="1401.9618282270217"/>
      <point x="1247.2827724761426" y="1401.9618282270217" type="curve" smooth="yes"/>
      <point x="1577.8674033149168" y="1401.9618282270217"/>
      <point x="1937.3947764942238" y="1228.7694625816175"/>
      <point x="1937.3947764942238" y="741.2792566549472" type="curve" smooth="yes"/>
      <point x="1937.3947764942238" y="365.212456052235"/>
      <point x="1720.9181315921649" y="143.48568558513313"/>
      <point x="1554.1426418884982" y="143.48568558513313" type="curve" smooth="yes"/>
      <point x="1530.3636363636363" y="143.48568558513313"/>
      <point x="1513.203917629332" y="197.28779507785032"/>
      <point x="1520.4088397790053" y="329.25113008538415" type="curve" smooth="yes"/>
      <point x="1529.7920642893016" y="531.9844299347063"/>
      <point x="1595.18282270216" y="831.8874937217479"/>
      <point x="1627.8322451029635" y="977.2219989954796" type="curve"/>
      <point x="1559.05876443998" y="995.9095931692617"/>
      <point x="1483.824208940231" y="1022.3204419889503"/>
      <point x="1461.130085384229" y="1025.6433952787543" type="curve" smooth="yes"/>
      <point x="1434.794073329985" y="1029.4329482672024"/>
      <point x="1414.3169261677551" y="1011.4460070316424"/>
      <point x="1402.7599196383728" y="977.8754394776495" type="curve"/>
      <point x="1332.5856353591162" y="1014.0919136112506"/>
      <point x="1234.226017076846" y="1032.230537418383"/>
      <point x="1158.0010045203414" y="1032.230537418383" type="curve" smooth="yes"/>
      <point x="816.4806629834253" y="1032.230537418383"/>
      <point x="613.6438975389252" y="677.1094927172275"/>
      <point x="613.6438975389252" y="378.11049723756906" type="curve" smooth="yes"/>
      <point x="613.6438975389252" y="121.96584630838775"/>
      <point x="762.9161225514816" y="-25.48016072325465"/>
      <point x="910.115017579106" y="-25.48016072325465" type="curve" smooth="yes"/>
      <point x="1090.3666499246613" y="-25.48016072325465"/>
      <point x="1240.7669512807636" y="197.46559517830235"/>
      <point x="1330.220994475138" y="436.4731290808638" type="curve"/>
      <point x="1306.3550979407332" y="300.30939226519337"/>
      <point x="1295.6283274736313" y="212.56052235057757"/>
      <point x="1299.030135610246" y="155.0115519839277" type="curve" smooth="yes"/>
      <point x="1305.7895529884477" y="34.36966348568558"/>
      <point x="1378.9517830236061" y="-11.46559517830236"/>
      <point x="1463.1034655951785" y="-11.46559517830236" type="curve" smooth="yes"/>
      <point x="1671.1793068809643" y="-11.46559517830236"/>
      <point x="2093.22199899548" y="259.6604721245605"/>
      <point x="2093.22199899548" y="794.8352586639879" type="curve" smooth="yes"/>
      <point x="2093.22199899548" y="1258.095429432446"/>
      <point x="1776.8553490708189" y="1542.1617277749876"/>
      <point x="1304.8302360622804" y="1542.1617277749876" type="curve" smooth="yes"/>
      <point x="648.4098442993471" y="1542.1617277749876"/>
      <point x="147.17076845806127" y="1010.1958814665996"/>
    </contour>
    <contour>
      <point x="870.0311401305877" y="448.8041185334003" type="curve" smooth="yes"/>
      <point x="870.0311401305877" y="675.2963335007535"/>
      <point x="973.963335007534" y="898.5615268709191"/>
      <point x="1132.9779005524865" y="898.5615268709191" type="curve" smooth="yes"/>
      <point x="1198.8990457056757" y="898.5615268709191"/>
      <point x="1305.718232044199" y="858.5514816675038"/>
      <point x="1344.609743847313" y="819.4344550477147" type="curve"/>
      <point x="1336.8232044198896" y="764.7664490205927"/>
      <point x="1316.7493721747867" y="678.3028628829734"/>
      <point x="1287.9337016574586" y="595.3576092415872" type="curve" smooth="yes"/>
      <point x="1206.2948267202412" y="362.004520341537"/>
      <point x="1073.8764439979911" y="180.80210949271722"/>
      <point x="984.1893520843797" y="180.80210949271722" type="curve" smooth="yes"/>
      <point x="907.3284781516826" y="180.80210949271722"/>
      <point x="870.0311401305877" y="317.0959316926168"/>
    </contour>
  </outline>
</glyph>
<glyph name="A" format="2">
  <advance width="1425.4821697639377"/>
  <unicode hex="0041"/>
  <anchor x="673.6489201406329" y="0.0" name="bottom"/>
  <anchor x="1272.8186840783528" y="20.0" name="ogonek"/>
  <anchor x="722.3219487694626" y="1486.0" name="top"/>
  <outline>
    <contour>
      <point x="58.17629331993973" y="127.53892516323455" type="line"/>
      <point x="-70.17679558011051" y="104.41185334003013" type="line"/>
      <point x="-68.99246609743848" y="0.0" type="line"/>
      <point x="435.4892014063285" y="0.0" type="line"/>
      <point x="435.4892014063285" y="104.41185334003013" type="line"/>
      <point x="261.2139628327473" y="125.72275238573583" type="line"/>
      <point x="349.41486690105467" y="407.8543445504772" type="line"/>
      <point x="922.5534907081869" y="407.8543445504772" type="line"/>
      <point x="1011.1190356604722" y="126.94676042189855" type="line"/>
      <point x="848.3967855349072" y="104.41185334003013" type="line"/>
      <point x="848.3967855349072" y="0.0" type="line"/>
      <point x="1484.2546459065795" y="0.0" type="line"/>
      <point x="1484.2546459065795" y="104.41185334003013" type="line"/>
      <point x="1359.3892516323453" y="126.55198392767454" type="line"/>
      <point x="895.7905575087896" y="1494.1441486690107" type="line"/>
      <point x="569.8995479658464" y="1494.1441486690107" type="line"/>
    </contour>
    <contour>
      <point x="883.8412857860372" y="533.698141637368" type="line"/>
      <point x="385.8674033149171" y="533.698141637368" type="line"/>
      <point x="602.0934203917631" y="1151.961828227022" type="line"/>
      <point x="656.6474133601207" y="1304.2019085886488" type="line"/>
      <point x="698.0421898543447" y="1153.9100954294324" type="line"/>
    </contour>
  </outline>
</glyph>
<glyph name="B" format="2">
  <advance width="1453.08488196886"/>
  <unicode hex="0042"/>
  <anchor x="717.479658463084" y="0.0" name="bottom"/>
  <anchor x="717.479658463084" y="1486.0" name="top"/>
  <outline>
    <contour>
      <point x="213.75841285786038" y="127.53892516323455" type="line"/>
      <point x="64.24309392265192" y="104.41185334003013" type="line"/>
      <point x="64.24309392265192" y="0.0" type="line"/>
      <point x="371.16373681567046" y="0.0" type="line" smooth="yes"/>
      <point x="497.23706680060275" y="0.0"/>
      <point x="586.4304369663485" y="-12.0"/>
      <point x="757.8623807132094" y="-12.0" type="curve" smooth="yes"/>
      <point x="1249.0341536916123" y="-12.0"/>
      <point x="1422.3867403314919" y="197.06579608237064"/>
      <point x="1422.1858362631845" y="447.75891511803115" type="curve" smooth="yes"/>
      <point x="1422.0351582119538" y="665.9799095931693"/>
      <point x="1256.0602712204923" y="794.9352084379709"/>
      <point x="987.5092918131594" y="792.9452536413862" type="curve"/>
      <point x="1182.167252636866" y="822.3917629331994"/>
      <point x="1318.834756403817" y="963.0336514314415"/>
      <point x="1318.6338523355098" y="1161.5881466599699" type="curve" smooth="yes"/>
      <point x="1318.3827222501254" y="1370.3917629331995"/>
      <point x="1162.4439979909594" y="1500.5524861878453"/>
      <point x="715.9141135107985" y="1500.5524861878453" type="curve" smooth="yes"/>
      <point x="608.7388247112004" y="1500.5524861878453"/>
      <point x="484.98191863385233" y="1486.0"/>
      <point x="370.74183827222504" y="1486.0" type="curve" smooth="yes"/>
      <point x="66.05273731793069" y="1486.0" type="line"/>
      <point x="66.05273731793069" y="1377.1140130587646" type="line"/>
      <point x="213.75841285786038" y="1349.0537418382723" type="line"/>
    </contour>
    <contour>
      <point x="519.3324962330488" y="832.4078352586641" type="curve"/>
      <point x="519.3827222501255" y="1379.7438473129082" type="line"/>
      <point x="552.6705173279759" y="1383.0406830738323"/>
      <point x="651.416373681567" y="1390.7101958814665"/>
      <point x="705.7694625816173" y="1390.7101958814665" type="curve" smooth="yes"/>
      <point x="909.0135610246108" y="1390.7101958814665"/>
      <point x="990.5796082370669" y="1305.651431441487"/>
      <point x="990.830738322451" y="1129.356102461075" type="curve" smooth="yes"/>
      <point x="991.1320944249122" y="946.6308387744853"/>
      <point x="918.2295328980412" y="828.6971371170267"/>
      <point x="740.6916122551482" y="828.6971371170267" type="curve" smooth="yes"/>
      <point x="689.0015067805124" y="828.6971371170267"/>
      <point x="563.7684580612757" y="828.4078352586639"/>
    </contour>
    <contour>
      <point x="519.282270215972" y="119.32797589151178" type="curve"/>
      <point x="519.3324962330488" y="700.6438975389251" type="line"/>
      <point x="562.739829231542" y="703.2466097438472"/>
      <point x="699.7880462079357" y="704.5866398794576"/>
      <point x="766.5123053741837" y="704.5866398794576" type="curve" smooth="yes"/>
      <point x="975.3314917127072" y="704.5866398794576"/>
      <point x="1066.9829231541937" y="625.8804620793571"/>
      <point x="1067.2340532395779" y="424.3144148669011" type="curve" smooth="yes"/>
      <point x="1067.4851833249622" y="227.43244600703164"/>
      <point x="971.9060773480661" y="102.56253139126068"/>
      <point x="726.4224008036164" y="102.56253139126068" type="curve" smooth="yes"/>
      <point x="664.828729281768" y="102.56253139126068"/>
      <point x="558.5720743345053" y="105.43847312908086"/>
    </contour>
  </outline>
</glyph>
<glyph name="C" format="2">
  <advance width="1394.305374183827"/>
  <unicode hex="0043"/>
  <anchor x="733.9763937719738" y="0.0" name="bottom"/>
  <anchor x="751.7413360120543" y="1486.0" name="top"/>
  <outline>
    <contour>
      <point x="783.220994475138" y="-22.162732295328983" type="curve" smooth="yes"/>
      <point x="1083.9512807634353" y="-22.162732295328983"/>
      <point x="1146.3294826720241" y="46.38121546961326"/>
      <point x="1269.212958312406" y="54.0" type="curve"/>
      <point x="1311.7865394274236" y="390.20642893018584" type="line"/>
      <point x="1148.6157709693623" y="406.11803114013065" type="line"/>
      <point x="1059.5238573581114" y="173.46308387744853" type="line"/>
      <point x="1022.1305876443998" y="132.21094927172274"/>
      <point x="952.2340532395782" y="92.89502762430939"/>
      <point x="800.4439979909594" y="92.89502762430939" type="curve" smooth="yes"/>
      <point x="510.3726770467102" y="92.89502762430939"/>
      <point x="382.33852335509795" y="379.7589151180311"/>
      <point x="382.33852335509795" y="757.2887995981919" type="curve" smooth="yes"/>
      <point x="382.33852335509795" y="1180.6976393771972"/>
      <point x="550.002009040683" y="1393.2430939226517"/>
      <point x="817.9221496735308" y="1393.2430939226517" type="curve" smooth="yes"/>
      <point x="925.2375690607735" y="1393.2430939226517"/>
      <point x="1013.7965846308389" y="1360.6388749372177"/>
      <point x="1048.151682571572" y="1324.2305374183827" type="curve"/>
      <point x="1108.2405826217982" y="1035.7388247112003" type="line"/>
      <point x="1283.1391260673026" y="1035.7388247112003" type="line"/>
      <point x="1309.3375188347563" y="1452.3435459568057" type="line"/>
      <point x="1181.305374183827" y="1454.7122049221496"/>
      <point x="1095.807132094425" y="1505.2898041185335"/>
      <point x="826.2958312405827" y="1505.2898041185335" type="curve" smooth="yes"/>
      <point x="334.74886991461574" y="1505.2898041185335"/>
      <point x="23.507785032646908" y="1203.9256654947262"/>
      <point x="23.507785032646908" y="728.2099447513813" type="curve" smooth="yes"/>
      <point x="23.507785032646908" y="261.9944751381215"/>
      <point x="299.8623807132094" y="-22.162732295328983"/>
    </contour>
  </outline>
</glyph>
<glyph name="D" format="2">
  <advance width="1558.2606730286286"/>
  <unicode hex="0044"/>
  <anchor x="748.8508287292817" y="0.0" name="bottom"/>
  <anchor x="809.1406328478153" y="763.8995479658463" name="center"/>
  <anchor x="379.54394776494223" y="763.0" name="lstem"/>
  <anchor x="748.8508287292817" y="1486.0" name="top"/>
  <outline>
    <contour>
      <point x="215.1602209944751" y="127.93370165745858" type="line"/>
      <point x="64.24309392265192" y="104.41185334003013" type="line"/>
      <point x="64.24309392265192" y="0.0" type="line"/>
      <point x="367.6438975389251" y="0.0" type="line" smooth="yes"/>
      <point x="455.0045203415369" y="0.0"/>
      <point x="616.8648920140632" y="-14.150678051230535"/>
      <point x="728.3018583626318" y="-16.050226017076845" type="curve" smooth="yes"/>
      <point x="1207.3792064289305" y="-25.05876443997991"/>
      <point x="1519.628327473631" y="313.5625313912607"/>
      <point x="1519.628327473631" y="792.915620291311" type="curve" smooth="yes"/>
      <point x="1519.628327473631" y="1233.45102963335"/>
      <point x="1274.2837769964842" y="1499.5775991963835"/>
      <point x="757.5374183827223" y="1499.5775991963835" type="curve" smooth="yes"/>
      <point x="625.247112004018" y="1499.5775991963835"/>
      <point x="492.6092415871422" y="1486.0"/>
      <point x="363.7358111501757" y="1486.0" type="curve" smooth="yes"/>
      <point x="70.74033149171271" y="1486.0" type="line"/>
      <point x="70.74033149171271" y="1377.7061778001005" type="line"/>
      <point x="215.1602209944751" y="1349.6459065796082" type="line"/>
    </contour>
    <contour>
      <point x="537.1988950276244" y="122.49824208940231" type="curve"/>
      <point x="537.1988950276242" y="1369.7302862882975" type="line"/>
      <point x="568.4902059266701" y="1372.2566549472629"/>
      <point x="639.0904068307383" y="1385.557006529382"/>
      <point x="721.2541436464088" y="1385.557006529382" type="curve" smooth="yes"/>
      <point x="1048.1567051732798" y="1385.557006529382"/>
      <point x="1180.156202913109" y="1142.0281265695633"/>
      <point x="1180.156202913109" y="747.9467604218986" type="curve" smooth="yes"/>
      <point x="1180.156202913109" y="306.58111501757907"/>
      <point x="1013.8402812656957" y="102.74786539427421"/>
      <point x="750.5002511300854" y="101.44902059266701" type="curve" smooth="yes"/>
      <point x="676.9281767955802" y="101.09141135107986"/>
      <point x="595.8623807132094" y="106.40632847815168"/>
    </contour>
  </outline>
</glyph>
<glyph name="E" format="2">
  <advance width="1385.9372174786542"/>
  <unicode hex="0045"/>
  <anchor x="668.5524861878454" y="0.0" name="bottom"/>
  <anchor x="1157.1923656454044" y="20.0" name="ogonek"/>
  <anchor x="730.2084379708689" y="1486.0" name="top"/>
  <anchor x="26.208437970868918" y="1486.0" name="topleft"/>
  <outline>
    <contour>
      <point x="222.566047212456" y="127.07835258663988" type="line"/>
      <point x="64.24309392265194" y="104.2802611752888" type="line"/>
      <point x="64.24309392265194" y="0.0" type="line"/>
      <point x="1304.1170266197892" y="0.0" type="line"/>
      <point x="1362.3726770467104" y="371.5560020090407" type="line"/>
      <point x="1193.8056253139127" y="413.22953289804116" type="line"/>
      <point x="1081.423405323958" y="144.88749372174786" type="line"/>
      <point x="546.9447513812154" y="114.94726268206931" type="line"/>
      <point x="546.9447513812154" y="704.8116524359617" type="line"/>
      <point x="857.2270215971874" y="698.6192867905575" type="line"/>
      <point x="905.3410346559516" y="512.5233550979408" type="line"/>
      <point x="1032.9537920642892" y="512.5233550979408" type="line"/>
      <point x="1032.9537920642892" y="1007.7523857358112" type="line"/>
      <point x="905.3410346559516" y="1007.7523857358112" type="line"/>
      <point x="856.0426921145153" y="832.1044701155199" type="line"/>
      <point x="546.9447513812154" y="825.3008538422904" type="line"/>
      <point x="546.9447513812154" y="1376.8468106479156" type="line"/>
      <point x="1028.0743345052738" y="1356.826720241085" type="line"/>
      <point x="1103.8061275740836" y="1146.6664992466099" type="line"/>
      <point x="1259.0356604721244" y="1146.6664992466099" type="line"/>
      <point x="1230.4977398292317" y="1486.0" type="line"/>
      <point x="65.78101456554495" y="1486.0" type="line"/>
      <point x="65.78101456554495" y="1377.7061778001007" type="line"/>
      <point x="222.566047212456" y="1349.6459065796082" type="line"/>
    </contour>
  </outline>
</glyph>
<glyph name="F" format="2">
  <advance width="1291.8985434455046"/>
  <unicode hex="0046"/>
  <anchor x="615.7458563535912" y="0.0" name="bottom"/>
  <anchor x="664.889502762431" y="1486.0" name="top"/>
  <outline>
    <contour>
      <point x="222.1140130587644" y="127.53892516323455" type="line"/>
      <point x="66.9552988448016" y="104.41185334003013" type="line"/>
      <point x="66.9552988448016" y="0.0" type="line"/>
      <point x="795.9216474133601" y="0.0" type="line"/>
      <point x="795.9216474133601" y="104.41185334003013" type="line"/>
      <point x="526.3842290306379" y="127.53892516323455" type="line"/>
      <point x="526.3842290306379" y="666.0708186840783" type="line"/>
      <point x="862.7101958814667" y="657.9512807634354" type="line"/>
      <point x="909.8538422903064" y="466.52586639879456" type="line"/>
      <point x="1030.9352084379707" y="466.52586639879456" type="line"/>
      <point x="1030.9352084379707" y="980.7041687594174" type="line"/>
      <point x="909.3932697137117" y="980.7041687594174" type="line"/>
      <point x="862.7101958814666" y="796.4856855851331" type="line"/>
      <point x="526.3842290306379" y="789.8518332496233" type="line"/>
      <point x="526.3842290306379" y="1376.4831742842791" type="line"/>
      <point x="1017.1813159216474" y="1353.997488699146" type="line"/>
      <point x="1104.1049723756907" y="1111.4133601205424" type="line"/>
      <point x="1256.0944249121046" y="1111.4133601205424" type="line"/>
      <point x="1229.2290306378702" y="1486.0" type="line"/>
      <point x="64.42491210447011" y="1486.0" type="line"/>
      <point x="64.42491210447011" y="1377.7061778001005" type="line"/>
      <point x="222.1140130587644" y="1349.6459065796084" type="line"/>
    </contour>
  </outline>
</glyph>
<glyph name="G" format="2">
  <advance width="1497.2571572074335"/>
  <unicode hex="0047"/>
  <anchor x="722.8608739326972" y="0.0" name="bottom"/>
  <anchor x="1285.341099949774" y="349.0" name="rstem"/>
  <anchor x="782.8608739326972" y="1486.0" name="top"/>
  <outline>
    <contour>
      <point x="769.3189352084381" y="-21.89954796584631" type="curve" smooth="yes"/>
      <point x="1073.2295328980413" y="-21.89954796584631"/>
      <point x="1259.4851833249625" y="76.52636865896534"/>
      <point x="1379.9532898041186" y="80.0" type="curve"/>
      <point x="1379.9532898041186" y="614.5032646911101" type="line"/>
      <point x="1480.15017579106" y="632.776996484179" type="line"/>
      <point x="1480.15017579106" y="752.1451531893521" type="line"/>
      <point x="855.8036162732295" y="752.1451531893521" type="line"/>
      <point x="855.8036162732295" y="632.776996484179" type="line"/>
      <point x="1081.6840783525865" y="611.54244098443" type="line"/>
      <point x="1081.6840783525865" y="176.76745354093418" type="line"/>
      <point x="1033.5891511803113" y="126.02260170768459"/>
      <point x="918.1120040180814" y="91.62481165243597"/>
      <point x="797.598694123556" y="91.62481165243597" type="curve" smooth="yes"/>
      <point x="508.6127574083375" y="91.62481165243597"/>
      <point x="398.50326469111" y="393.16172777498747"/>
      <point x="398.7664490205927" y="760.3606228026117" type="curve" smooth="yes"/>
      <point x="399.02963335007536" y="1178.7297840281262"/>
      <point x="568.0386740331492" y="1393.6378704168758"/>
      <point x="832.3962832747363" y="1393.6378704168758" type="curve" smooth="yes"/>
      <point x="993.7584128578603" y="1393.6378704168758"/>
      <point x="1055.9532898041184" y="1354.4912104470113"/>
      <point x="1076.004018081366" y="1327.4143646408838" type="curve"/>
      <point x="1130.1903566047213" y="1063.785032646911" type="line"/>
      <point x="1341.8689100954293" y="1063.785032646911" type="line"/>
      <point x="1368.1486690105473" y="1442.0396785534904" type="line"/>
      <point x="1274.3566047212455" y="1455.1305876443998"/>
      <point x="1100.9447513812154" y="1505.0924158714215"/>
      <point x="844.6007031642391" y="1505.0924158714215" type="curve" smooth="yes"/>
      <point x="361.865394274234" y="1505.0924158714215"/>
      <point x="43.85233550979406" y="1224.226017076846"/>
      <point x="43.85233550979406" y="727.5128076343547" type="curve" smooth="yes"/>
      <point x="43.85233550979406" y="304.0246107483677"/>
      <point x="296.41637368156705" y="-21.89954796584631"/>
    </contour>
  </outline>
</glyph>
<glyph name="H" format="2">
  <advance width="1730.0813661476645"/>
  <unicode hex="0048"/>
  <anchor x="835.5178302360623" y="0.0" name="bottom"/>
  <anchor x="1670.7749874434955" y="0.0" name="bottomright"/>
  <anchor x="831.5986941235559" y="743.0" name="center"/>
  <anchor x="865.2415871421397" y="1486.0" name="top"/>
  <anchor x="3.0276243093922606" y="1486.0" name="topleft"/>
  <outline>
    <contour>
      <point x="212.2707182320442" y="126.94676042189855" type="line"/>
      <point x="64.24309392265192" y="104.2802611752888" type="line"/>
      <point x="64.24309392265192" y="0.0" type="line"/>
      <point x="688.8729281767957" y="0.0" type="line"/>
      <point x="688.8729281767957" y="104.2802611752888" type="line"/>
      <point x="521.7995981918633" y="126.94676042189855" type="line"/>
      <point x="521.7995981918633" y="691.4977398292315" type="line"/>
      <point x="1207.9804118533402" y="691.4977398292315" type="line"/>
      <point x="1207.9804118533402" y="127.53892516323455" type="line"/>
      <point x="1048.8684078352587" y="104.2802611752888" type="line"/>
      <point x="1048.8684078352587" y="0.0" type="line"/>
      <point x="1665.988950276243" y="0.0" type="line"/>
      <point x="1665.988950276243" y="104.2802611752888" type="line"/>
      <point x="1517.9613259668508" y="126.94676042189855" type="line"/>
      <point x="1517.9613259668508" y="1350.2380713209443" type="line"/>
      <point x="1662.6830738322453" y="1377.7061778001007" type="line"/>
      <point x="1662.6830738322453" y="1486.0" type="line"/>
      <point x="1048.868407835259" y="1486.0" type="line"/>
      <point x="1048.868407835259" y="1377.7061778001007" type="line"/>
      <point x="1207.9804118533402" y="1349.514314414867" type="line"/>
      <point x="1207.9804118533402" y="827.3304871923656" type="line"/>
      <point x="521.7995981918633" y="827.3304871923656" type="line"/>
      <point x="521.7995981918633" y="1350.2380713209443" type="line"/>
      <point x="688.1491712707184" y="1377.7061778001007" type="line"/>
      <point x="688.1491712707184" y="1486.0" type="line"/>
      <point x="66.37317930688096" y="1486.0" type="line"/>
      <point x="66.37317930688096" y="1377.7061778001007" type="line"/>
      <point x="212.2707182320442" y="1350.2380713209443" type="line"/>
    </contour>
  </outline>
</glyph>
<glyph name="I" format="2">
  <advance width="788.2174786539427"/>
  <unicode hex="0049"/>
  <anchor x="390.03465595178295" y="-18.81767955801105" name="bottom"/>
  <anchor x="455.2893018583626" y="20.0" name="ogonek"/>
  <anchor x="389.94625816172777" y="1485.8493219487696" name="top"/>
  <anchor x="11.720743345052737" y="1486.0" name="topleft"/>
  <outline>
    <contour>
      <point x="237.37468608739331" y="127.53892516323455" type="line"/>
      <point x="69.26670015067806" y="104.54344550477147" type="line"/>
      <point x="69.26670015067806" y="0.0" type="line"/>
      <point x="720.1351079859367" y="0.0" type="line"/>
      <point x="720.1351079859367" y="102.7754897036665" type="line"/>
      <point x="547.7132094424911" y="126.94676042189855" type="line"/>
      <point x="547.7132094424911" y="1349.6459065796082" type="line"/>
      <point x="720.0035158211954" y="1377.7061778001007" type="line"/>
      <point x="720.0035158211954" y="1486.0" type="line"/>
      <point x="68.26418884982421" y="1486.0" type="line"/>
      <point x="68.26418884982421" y="1377.7061778001007" type="line"/>
      <point x="237.37468608739331" y="1349.6459065796082" type="line"/>
    </contour>
  </outline>
</glyph>
<glyph name="J" format="2">
  <advance width="788.2174786539427"/>
  <unicode hex="004A"/>
  <anchor x="413.8759417378202" y="1486.0" name="top"/>
  <outline>
    <contour>
      <point x="-30.730788548468098" y="-280.94876946258165" type="curve"/>
      <point x="31.23154193872426" y="-375.6740331491713" type="line"/>
      <point x="282.3184329482673" y="-336.2390758412858"/>
      <point x="465.9050728277247" y="-185.6484178804621"/>
      <point x="522.1682571572074" y="32.390256152687094" type="curve" smooth="yes"/>
      <point x="547.7473631341035" y="133.9537920642893"/>
      <point x="551.9447513812155" y="306.53842290306386"/>
      <point x="551.9447513812155" y="546.2832747363134" type="curve" smooth="yes"/>
      <point x="551.9447513812155" y="1349.7860371672525" type="line"/>
      <point x="714.179809141135" y="1377.7061778001005" type="line"/>
      <point x="714.179809141135" y="1486.0" type="line"/>
      <point x="68.49773982923155" y="1486.0" type="line"/>
      <point x="68.49773982923155" y="1377.7061778001005" type="line"/>
      <point x="244.72727272727272" y="1348.6017076845806" type="line"/>
      <point x="244.72727272727272" y="407.8322451029633" type="line" smooth="yes"/>
      <point x="244.72727272727272" y="172.79909593169262"/>
      <point x="232.76594676042185" y="64.28628829733802"/>
      <point x="203.5811150175791" y="-25.105976896032146" type="curve" smooth="yes"/>
      <point x="157.43947764942237" y="-166.22250125565043"/>
      <point x="69.96484178804621" y="-247.36966348568558"/>
    </contour>
  </outline>
</glyph>
<glyph name="K" format="2">
  <advance width="1490.7423405323957"/>
  <unicode hex="004B"/>
  <anchor x="812.4118533400301" y="0.0" name="bottom"/>
  <anchor x="792.5831240582622" y="1483.828729281768" name="top"/>
  <outline>
    <contour>
      <point x="1131.7795077850326" y="0.0" type="curve"/>
      <point x="1501.5173279758912" y="0.13159216474133603" type="line"/>
      <point x="1501.5173279758912" y="103.49924660974386" type="line"/>
      <point x="1411.6695128076344" y="126.659467604219" type="line"/>
      <point x="1321.3530889000504" y="174.45504771471622"/>
      <point x="1007.0266197890508" y="845.3641386238072"/>
      <point x="827.188347564038" y="942.815670517328" type="curve"/>
      <point x="785.4038171772979" y="808.8206931190356" type="line"/>
      <point x="1266.490708186841" y="1349.943746860874" type="line"/>
      <point x="1433.179809141135" y="1377.9035660472125" type="line"/>
      <point x="1433.179809141135" y="1486.1315921647413" type="line"/>
      <point x="909.5851330989453" y="1486.0" type="line"/>
      <point x="909.5851330989453" y="1377.574585635359" type="line"/>
      <point x="1075.198895027624" y="1349.6459065796084" type="line"/>
      <point x="446.5268709191362" y="573.5931692616774" type="line"/>
      <point x="525.6845806127573" y="563.4284279256656" type="line"/>
      <point x="525.6845806127573" y="1349.6459065796084" type="line"/>
      <point x="678.4113510798593" y="1377.7061778001005" type="line"/>
      <point x="678.4113510798593" y="1486.0" type="line"/>
      <point x="65.92114515318934" y="1486.0" type="line"/>
      <point x="65.92114515318934" y="1377.7061778001005" type="line"/>
      <point x="218.9763937719739" y="1349.6459065796084" type="line"/>
      <point x="218.9763937719739" y="127.40733299849322" type="line"/>
      <point x="64.24309392265192" y="104.41185334003013" type="line"/>
      <point x="64.24309392265192" y="0.0" type="line"/>
      <point x="692.6865896534405" y="0.0" type="line"/>
      <point x="692.6865896534405" y="103.36765444500253" type="line"/>
      <point x="525.6845806127573" y="126.81516825715721" type="line"/>
      <point x="525.6845806127573" y="613.2395781014567" type="line"/>
      <point x="443.9055750878956" y="405.07985936715215" type="line"/>
      <point x="777.0828729281768" y="795.2410848819688" type="line"/>
      <point x="654.6926167754898" y="742.0035158211953" type="line"/>
      <point x="804.0768458061277" y="621.2440984429934"/>
      <point x="1041.1823204419888" y="0.0"/>
    </contour>
  </outline>
</glyph>
<glyph name="L" format="2">
  <advance width="1298.579608237067"/>
  <unicode hex="004C"/>
  <anchor x="666.7870416875942" y="0.0" name="bottom"/>
  <anchor x="634.4972375690608" y="744.0000000000001" name="center"/>
  <anchor x="391.27624309392274" y="1486.0" name="top"/>
  <anchor x="949.2225012556505" y="1110.7237569060774" name="topright"/>
  <outline>
    <contour>
      <point x="217.44751381215468" y="127.07835258663988" type="line"/>
      <point x="64.24309392265192" y="104.2802611752888" type="line"/>
      <point x="64.24309392265192" y="0.0" type="line"/>
      <point x="1213.8016072325465" y="0.0" type="line"/>
      <point x="1284.6433952787545" y="495.21848317428424" type="line"/>
      <point x="1127.6559517830235" y="518.8508287292818" type="line"/>
      <point x="986.2742340532395" y="152.36263184329482" type="line"/>
      <point x="526.3234555499748" y="126.81165243596182" type="line"/>
      <point x="526.3736815670517" y="1350.6986438975393" type="line"/>
      <point x="714.1662481165245" y="1377.7061778001005" type="line"/>
      <point x="714.1662481165245" y="1486.0" type="line"/>
      <point x="66.51330989452535" y="1486.0" type="line"/>
      <point x="66.51330989452535" y="1377.7061778001005" type="line"/>
      <point x="217.44751381215468" y="1349.6459065796087" type="line"/>
    </contour>
  </outline>
</glyph>
<glyph name="M" format="2">
  <advance width="2059.1120040180813"/>
  <unicode hex="004D"/>
  <anchor x="1001.2651933701658" y="0.0" name="bottom"/>
  <anchor x="2084.113008538423" y="0.0" name="bottomright"/>
  <anchor x="1031.5816172777502" y="1485.3219487694626" name="top"/>
  <outline>
    <contour>
      <point x="150.2536413862381" y="126.46358613761927" type="line"/>
      <point x="-14.100452034153694" y="104.14866901054747" type="line"/>
      <point x="-14.100452034153694" y="0.0" type="line"/>
      <point x="531.8653942742341" y="0.0" type="line"/>
      <point x="531.8653942742341" y="104.14866901054747" type="line"/>
      <point x="328.42641888498247" y="127.05575087895528" type="line"/>
      <point x="430.7458563535912" y="1019.94776494224" type="line"/>
      <point x="470.5213460572577" y="1381.5419387242591" type="line"/>
      <point x="567.1285786037166" y="1025.7523857358112" type="line"/>
      <point x="837.5534907081869" y="61.14364640883978" type="line"/>
      <point x="1086.2290306378702" y="61.14364640883978" type="line"/>
      <point x="1371.303365143144" y="1068.1285786037167" type="line"/>
      <point x="1450.1185334003014" y="1380.949773982923" type="line"/>
      <point x="1487.3375188347563" y="1019.6845806127574" type="line"/>
      <point x="1581.913108990457" y="127.18734304369661" type="line"/>
      <point x="1404.402812656956" y="104.41185334003013" type="line"/>
      <point x="1404.402812656956" y="0.0" type="line"/>
      <point x="2073.2124560522348" y="0.0" type="line"/>
      <point x="2073.2124560522348" y="104.14866901054747" type="line"/>
      <point x="1907.550979407333" y="128.33199397287794" type="line"/>
      <point x="1738.940733299849" y="1349.5765946760423" type="line"/>
      <point x="1960.030637870417" y="1377.8879959819187" type="line"/>
      <point x="1960.030637870417" y="1486.0" type="line"/>
      <point x="1324.9809141135108" y="1486.0" type="line"/>
      <point x="1088.1210447011551" y="607.991461577097" type="line"/>
      <point x="1034.9296835760922" y="366.8488196885987" type="line"/>
      <point x="974.3350075339026" y="607.4650929181316" type="line"/>
      <point x="760.9904570567555" y="1486.0" type="line"/>
      <point x="107.61426418884983" y="1486.0" type="line"/>
      <point x="107.61426418884983" y="1377.8879959819187" type="line"/>
      <point x="327.0336514314415" y="1349.5765946760423" type="line"/>
    </contour>
  </outline>
</glyph>
<glyph name="N" format="2">
  <advance width="1618.1722752385735"/>
  <unicode hex="004E"/>
  <anchor x="817.3766951280764" y="0.0" name="bottom"/>
  <anchor x="821.3219487694626" y="1486.0" name="top"/>
  <outline>
    <contour>
      <point x="204.9136112506278" y="130.4254143646409" type="line"/>
      <point x="45.60371672526369" y="104.14866901054747" type="line"/>
      <point x="45.60371672526369" y="0.0" type="line"/>
      <point x="534.5760924158714" y="0.0" type="line"/>
      <point x="534.5760924158714" y="104.14866901054747" type="line"/>
      <point x="360.0271220492215" y="130.56554495228528" type="line"/>
      <point x="359.4866901054747" y="1228.0753390256152" type="line"/>
      <point x="507.1396283274737" y="979.5258663987946" type="line"/>
      <point x="1172.045203415369" y="0.0" type="line"/>
      <point x="1438.1009542943245" y="0.0" type="line"/>
      <point x="1439.0552486187846" y="1347.5560020090404" type="line"/>
      <point x="1600.1029633350074" y="1377.7061778001007" type="line"/>
      <point x="1600.1029633350074" y="1486.0" type="line"/>
      <point x="1111.2993470617785" y="1486.0" type="line"/>
      <point x="1111.2993470617785" y="1377.7061778001007" type="line"/>
      <point x="1283.7574083375189" y="1347.5560020090404" type="line"/>
      <point x="1284.8242089402308" y="328.7800100452034" type="line"/>
      <point x="1159.8242089402308" y="555.130085384229" type="line"/>
      <point x="526.5695630336513" y="1485.7739829231543" type="line"/>
      <point x="37.14917127071823" y="1486.0" type="line"/>
      <point x="37.14917127071823" y="1375.3375188347566" type="line"/>
      <point x="93.10195881466598" y="1367.923656454043"/>
      <point x="157.50226017076844" y="1347.2159718734304"/>
      <point x="205.93018583626318" y="1325.7769964841787" type="curve"/>
    </contour>
  </outline>
</glyph>
<glyph name="O" format="2">
  <advance width="1531.166750376695"/>
  <unicode hex="004F"/>
  <anchor x="765.5600200904067" y="1.7763568394002505e-15" name="bottom"/>
  <anchor x="770.2717227523858" y="741.0" name="center"/>
  <anchor x="847.6885986941236" y="20.0" name="ogonek"/>
  <anchor x="924.340861878453" y="0.0" name="qq"/>
  <anchor x="772.1205424409845" y="1486.0" name="top"/>
  <anchor x="43.84329482672024" y="1486.0" name="topleft"/>
  <anchor x="1208.1305876443996" y="1486.0" name="topright"/>
  <outline>
    <contour>
      <point x="752.6393771973883" y="-22.263184329482673" type="curve" smooth="yes"/>
      <point x="1197.820190858865" y="-18.904570567553993"/>
      <point x="1492.9708689100955" y="297.6338523355098"/>
      <point x="1492.9708689100955" y="764.7423405323958" type="curve" smooth="yes"/>
      <point x="1492.9708689100955" y="1214.2350577599198"/>
      <point x="1267.9773982923157" y="1502.8553490708186"/>
      <point x="782.2531391260673" y="1504.0396785534908" type="curve" smooth="yes"/>
      <point x="335.75288799598184" y="1504.631843294827"/>
      <point x="38.195881466599694" y="1202.2546459065798"/>
      <point x="38.195881466599694" y="735.8749372174786" type="curve" smooth="yes"/>
      <point x="38.195881466599694" y="283.2390758412858"/>
      <point x="263.4756403817177" y="-26.21396283274736"/>
    </contour>
    <contour>
      <point x="766.4068307383224" y="1394.7790055248618" type="curve" smooth="yes"/>
      <point x="1003.8975389251631" y="1394.7790055248618"/>
      <point x="1135.6278252134607" y="1180.8729281767958"/>
      <point x="1135.6278252134607" y="763.7840281265694" type="curve" smooth="yes"/>
      <point x="1135.6278252134607" y="329.39075841285785"/>
      <point x="990.5991963837267" y="87.94977398292316"/>
      <point x="762.4465092918132" y="87.94977398292316" type="curve" smooth="yes"/>
      <point x="527.0060271220493" y="87.94977398292316"/>
      <point x="394.8151682571572" y="322.03716725263683"/>
      <point x="394.8151682571572" y="736.4671019588147" type="curve" smooth="yes"/>
      <point x="394.8151682571572" y="1174.2315419387244"/>
      <point x="538.8463083877449" y="1394.7790055248618"/>
    </contour>
  </outline>
</glyph>
<glyph name="P" format="2">
  <advance width="1398.6629834254145"/>
  <unicode hex="0050"/>
  <anchor x="510.8669010547464" y="0.0" name="bottom"/>
  <anchor x="718.5946760421899" y="1486.0" name="top"/>
  <outline>
    <contour>
      <point x="218.31843294826723" y="127.12857860371673" type="line"/>
      <point x="64.24309392265192" y="104.2802611752888" type="line"/>
      <point x="64.24309392265192" y="0.0" type="line"/>
      <point x="775.5851330989453" y="0.0" type="line"/>
      <point x="775.5851330989453" y="104.41185334003013" type="line"/>
      <point x="524.4344550477147" y="127.44902059266701" type="line"/>
      <point x="524.5660472124559" y="536.8227021597186" type="line"/>
      <point x="542.8468106479155" y="534.1195379206428"/>
      <point x="684.0336514314415" y="529.8874937217477"/>
      <point x="746.3324962330488" y="529.8874937217477" type="curve" smooth="yes"/>
      <point x="1118.3505775991964" y="529.8874937217477"/>
      <point x="1350.9040683073833" y="724.5590155700654"/>
      <point x="1350.9040683073833" y="1055.8493219487696" type="curve" smooth="yes"/>
      <point x="1350.9040683073833" y="1334.997990959317"/>
      <point x="1207.244600703164" y="1498.3239578101454"/>
      <point x="783.9703666499246" y="1497.9291813159214" type="curve" smooth="yes"/>
      <point x="623.8729281767955" y="1497.79758915118"/>
      <point x="482.83927674535414" y="1486.0"/>
      <point x="378.40281265695626" y="1486.0" type="curve" smooth="yes"/>
      <point x="70.69010547463587" y="1486.0" type="line"/>
      <point x="70.69010547463587" y="1377.7061778001005" type="line"/>
      <point x="218.31843294826723" y="1349.6459065796084" type="line"/>
    </contour>
    <contour>
      <point x="523.8422903063786" y="652.6840783525867" type="curve"/>
      <point x="523.8422903063786" y="1375.373179306881" type="line"/>
      <point x="560.8633852335511" y="1378.9919638372673"/>
      <point x="629.8970366649925" y="1387.724761426419"/>
      <point x="709.0688096433954" y="1387.724761426419" type="curve" smooth="yes"/>
      <point x="909.9331993972878" y="1387.724761426419"/>
      <point x="1014.600703164239" y="1278.5499748869915"/>
      <point x="1014.600703164239" y="1050.2807634354597" type="curve" smooth="yes"/>
      <point x="1014.600703164239" y="745.7267704671018"/>
      <point x="876.583626318433" y="643.3576092415872"/>
      <point x="699.5775991963836" y="643.3576092415872" type="curve" smooth="yes"/>
      <point x="625.3455549974886" y="643.3576092415872"/>
      <point x="551.6388749372176" y="646.282270215972"/>
    </contour>
  </outline>
</glyph>
<glyph name="R" format="2">
  <advance width="1495.8970366649926"/>
  <unicode hex="0052"/>
  <anchor x="784.9136112506279" y="0.0" name="bottom"/>
  <anchor x="707.5434455047716" y="1486.0" name="top"/>
  <outline>
    <contour>
      <point x="64.24309392265192" y="0.0" type="line"/>
      <point x="708.1416373681567" y="0.0" type="line"/>
      <point x="708.1416373681567" y="104.41185334003013" type="line"/>
      <point x="526.0135610246108" y="126.9969864389754" type="line"/>
      <point x="526.0135610246108" y="642.720241084882" type="line"/>
      <point x="569.6062280261176" y="642.1677548970366"/>
      <point x="701.0110497237569" y="641.8352586639879"/>
      <point x="756.4314414866901" y="641.9859367152184" type="curve"/>
      <point x="909.889502762431" y="585.6047212456052"/>
      <point x="1034.7584128578603" y="0.0"/>
      <point x="1134.1833249623305" y="0.0" type="curve" smooth="yes"/>
      <point x="1489.0899045705673" y="0.0" type="line"/>
      <point x="1489.0899045705673" y="103.36765444500253" type="line"/>
      <point x="1424.7975891511803" y="124.20090406830738" type="line"/>
      <point x="1332.0095429432447" y="149.6433952787544"/>
      <point x="1219.852837769965" y="607.6639879457559"/>
      <point x="999.362129583124" y="689.0060271220493" type="curve"/>
      <point x="1199.7393269713714" y="748.0723254645907"/>
      <point x="1307.5720743345055" y="918.6579608237066"/>
      <point x="1307.5720743345055" y="1103.7373179306878" type="curve" smooth="yes"/>
      <point x="1307.5720743345055" y="1370.1632345554997"/>
      <point x="1149.7659467604217" y="1499.828729281768"/>
      <point x="736.429934706178" y="1499.828729281768" type="curve" smooth="yes"/>
      <point x="613.4424912104471" y="1499.828729281768"/>
      <point x="499.00301356102466" y="1486.0"/>
      <point x="377.5268709191362" y="1486.0" type="curve" smooth="yes"/>
      <point x="70.69010547463587" y="1486.0" type="line"/>
      <point x="70.69010547463587" y="1379.2024108488195" type="line"/>
      <point x="219.83174284279255" y="1350.0979407333" type="line"/>
      <point x="219.83174284279255" y="127.12857860371673" type="line"/>
      <point x="64.24309392265192" y="104.2802611752888" type="line"/>
    </contour>
    <contour>
      <point x="732.3987945755902" y="751.9186338523355" type="curve" smooth="yes"/>
      <point x="697.1632345554997" y="751.9186338523355"/>
      <point x="567.1255650426922" y="750.370668006027"/>
      <point x="526.0135610246108" y="756.8432948267202" type="curve"/>
      <point x="526.0135610246108" y="1378.2335509794073" type="line"/>
      <point x="563.4681064791562" y="1382.1833249623305"/>
      <point x="634.5891511803114" y="1388.909090909091"/>
      <point x="707.1436464088397" y="1388.909090909091" type="curve" smooth="yes"/>
      <point x="907.8036162732295" y="1388.909090909091"/>
      <point x="991.4394776494225" y="1281.433952787544"/>
      <point x="991.4394776494225" y="1091.5866398794576" type="curve" smooth="yes"/>
      <point x="991.4394776494225" y="867.839276745354"/>
      <point x="898.1672526368659" y="751.9186338523355"/>
    </contour>
  </outline>
</glyph>
<glyph name="S" format="2">
  <advance width="1256.1200401808135"/>
  <unicode hex="0053"/>
  <anchor x="616.7840281265696" y="0.0" name="bottom"/>
  <anchor x="659.5414364640884" y="1486.0" name="top"/>
  <outline>
    <contour>
      <point x="589.826720241085" y="-22.0" type="curve" smooth="yes"/>
      <point x="1063.8950276243093" y="-22.0"/>
      <point x="1205.6418884982422" y="204.96885986941234"/>
      <point x="1205.6418884982422" y="411.4475138121547" type="curve" smooth="yes"/>
      <point x="1205.6418884982422" y="679.0637870416878"/>
      <point x="964.978402812657" y="774.314414866901"/>
      <point x="763.1175288799598" y="861.4213962832748" type="curve" smooth="yes"/>
      <point x="570.054244098443" y="944.4992466097439"/>
      <point x="380.468608739327" y="1012.7910597689602"/>
      <point x="380.468608739327" y="1182.7488699146156" type="curve" smooth="yes"/>
      <point x="380.468608739327" y="1291.0356604721248"/>
      <point x="458.27322953289803" y="1394.152184831743"/>
      <point x="661.8191863385234" y="1394.152184831743" type="curve" smooth="yes"/>
      <point x="772.1411351079859" y="1394.152184831743"/>
      <point x="851.9005524861878" y="1360.641888498242"/>
      <point x="873.3410346559518" y="1337.628829733802" type="curve"/>
      <point x="923.9603214465092" y="1086.1818181818182" type="line"/>
      <point x="1101.3957810145653" y="1086.1818181818182" type="line"/>
      <point x="1118.1245605223505" y="1432.5002511300854" type="line"/>
      <point x="1042.8945253641386" y="1437.7212456052234"/>
      <point x="911.2079357106982" y="1504.8292315419387"/>
      <point x="667.3114013058764" y="1504.8292315419387" type="curve" smooth="yes"/>
      <point x="268.98744349573076" y="1504.8292315419387"/>
      <point x="85.79256654947262" y="1318.415871421396"/>
      <point x="85.79256654947262" y="1110.0924158714213" type="curve" smooth="yes"/>
      <point x="85.79256654947262" y="820.9116022099448"/>
      <point x="335.35057759919636" y="707.7267704671018"/>
      <point x="521.3375188347562" y="630.7247614264189" type="curve" smooth="yes"/>
      <point x="730.5866398794575" y="544.0120542440984"/>
      <point x="899.5534907081868" y="470.6760421898544"/>
      <point x="899.5534907081868" y="318.96634856855843" type="curve" smooth="yes"/>
      <point x="899.5534907081868" y="182.18734304369661"/>
      <point x="809.3957810145656" y="91.22601707684579"/>
      <point x="590.2456052235059" y="91.48920140632846" type="curve" smooth="yes"/>
      <point x="464.9357106981417" y="91.6207935710698"/>
      <point x="362.3314917127072" y="133.25213460572576"/>
      <point x="324.52235057759924" y="172.49070818684078" type="curve"/>
      <point x="275.33802109492717" y="434.84028126569564" type="line"/>
      <point x="90.30185836263183" y="434.84028126569564" type="line"/>
      <point x="68.19136112506277" y="64.86790557508789" type="line"/>
      <point x="165.82722250125565" y="60.249623304871925"/>
      <point x="337.6931190356604" y="-22.0"/>
    </contour>
  </outline>
</glyph>
<glyph name="T" format="2">
  <advance width="1496.8588648920143"/>
  <unicode hex="0054"/>
  <anchor x="750.3606228026118" y="0.0" name="bottom"/>
  <anchor x="1176.4937217478653" y="0.0" name="bottomright"/>
  <anchor x="748.6102461074838" y="657.2998493219488" name="center"/>
  <anchor x="750.8126569563034" y="1486.0" name="top"/>
  <outline>
    <contour>
      <point x="595.3556002009041" y="126.47061778001006" type="line"/>
      <point x="325.99296835760924" y="104.41185334003013" type="line"/>
      <point x="325.99296835760924" y="0.0" type="line"/>
      <point x="1172.9146157709695" y="0.0" type="line"/>
      <point x="1172.9146157709695" y="104.41185334003013" type="line"/>
      <point x="902.8191863385234" y="126.20743345052739" type="line"/>
      <point x="902.8191863385234" y="1368.9080863887493" type="line"/>
      <point x="1210.0929181315921" y="1356.8508287292816" type="line"/>
      <point x="1309.4068307383225" y="896.1627322953291" type="line"/>
      <point x="1476.7528879959823" y="896.1627322953291" type="line"/>
      <point x="1443.8990457056752" y="1486.0" type="line"/>
      <point x="57.050728277247615" y="1486.0" type="line"/>
      <point x="20.105976896032143" y="896.1627322953291" type="line"/>
      <point x="187.18884982420894" y="896.1627322953291" type="line"/>
      <point x="291.03867403314916" y="1356.8508287292816" type="line"/>
      <point x="595.3556002009041" y="1368.9080863887493" type="line"/>
    </contour>
  </outline>
</glyph>
<glyph name="U" format="2">
  <advance width="1500.1793068809645"/>
  <unicode hex="0055"/>
  <anchor x="811.5243596182823" y="0.0" name="bottom"/>
  <anchor x="888.1617277749874" y="20.0" name="ogonek"/>
  <anchor x="806.2596685082873" y="1486.0" name="top"/>
  <anchor x="1450.325966850829" y="1486.0" name="topright"/>
  <outline>
    <contour>
      <point x="784.4198895027623" y="-16.200904068307384" type="curve" smooth="yes"/>
      <point x="1101.850828729282" y="-16.200904068307384"/>
      <point x="1337.5092918131593" y="157.7242591662481"/>
      <point x="1337.8106479156204" y="592.8864892014063" type="curve" smooth="yes"/>
      <point x="1338.262682069312" y="1349.6961325966852" type="line"/>
      <point x="1475.18935208438" y="1377.7061778001005" type="line"/>
      <point x="1475.18935208438" y="1486.0" type="line"/>
      <point x="997.5534907081869" y="1486.0" type="line"/>
      <point x="997.5534907081869" y="1377.7061778001005" type="line"/>
      <point x="1166.7137117026623" y="1348.5514816675036" type="line"/>
      <point x="1166.9648417880467" y="579.4254143646409" type="line" smooth="yes"/>
      <point x="1167.0652938222" y="279.52887995981916"/>
      <point x="1054.4982420894023" y="97.5826217980914"/>
      <point x="821.4163736815668" y="97.5826217980914" type="curve" smooth="yes"/>
      <point x="599.9337016574585" y="97.5826217980914"/>
      <point x="483.4188849824209" y="239.6413862380713"/>
      <point x="483.4188849824209" y="569.0301356102461" type="curve" smooth="yes"/>
      <point x="483.4188849824209" y="1347.9196383726771" type="line"/>
      <point x="650.58161727775" y="1377.7061778001005" type="line"/>
      <point x="650.58161727775" y="1486.0" type="line"/>
      <point x="39.707684580612764" y="1486.0" type="line"/>
      <point x="39.707684580612764" y="1377.7061778001005" type="line"/>
      <point x="174.2486187845304" y="1349.6961325966852" type="line"/>
      <point x="174.2486187845304" y="601.0532395781015" type="line" smooth="yes"/>
      <point x="174.2486187845304" y="169.14213962832744"/>
      <point x="374.96132596685084" y="-16.200904068307384"/>
    </contour>
  </outline>
</glyph>
<glyph name="V" format="2">
  <advance width="1448.1888498242088"/>
  <unicode hex="0056"/>
  <outline>
    <contour>
      <point x="-38.94274234053239" y="1378.069814163737" type="line"/>
      <point x="83.74033149171268" y="1350.1531893520842" type="line"/>
      <point x="608.3525866398795" y="-13.302360622802611" type="line"/>
      <point x="857.5705675539929" y="-13.302360622802611" type="line"/>
      <point x="1364.0813661476643" y="1350.1531893520842" type="line"/>
      <point x="1498.5429432446006" y="1378.069814163737" type="line"/>
      <point x="1498.5429432446006" y="1486.0" type="line"/>
      <point x="1006.9804118533402" y="1486.0" type="line"/>
      <point x="1006.9804118533402" y="1378.069814163737" type="line"/>
      <point x="1172.4334505273728" y="1350.1531893520842" type="line"/>
      <point x="854.5544952285283" y="444.0015067805122" type="line"/>
      <point x="802.1009542943244" y="262.7252636865897" type="line"/>
      <point x="746.6288297338021" y="442.4048216976393" type="line"/>
      <point x="440.58262179809145" y="1350.7453540934202" type="line"/>
      <point x="615.373179306881" y="1378.069814163737" type="line"/>
      <point x="615.373179306881" y="1486.0" type="line"/>
      <point x="-38.94274234053239" y="1486.0" type="line"/>
    </contour>
  </outline>
</glyph>
<glyph name="W" format="2">
  <advance width="2137.308890005023"/>
  <unicode hex="0057"/>
  <anchor x="1059.4972375690606" y="0.0" name="bottom"/>
  <anchor x="1080.6594676042193" y="1486.0" name="top"/>
  <outline>
    <contour>
      <point x="-42.01607232546459" y="1378.1200401808137" type="line"/>
      <point x="89.13159216474133" y="1349.6112506278255" type="line"/>
      <point x="524.7117026619787" y="-8.985434455047713" type="line"/>
      <point x="796.3169261677549" y="-8.985434455047713" type="line"/>
      <point x="1072.3264691109998" y="920.281767955801" type="line"/>
      <point x="1358.8262179809142" y="-8.985434455047713" type="line"/>
      <point x="1634.5519839276744" y="-8.985434455047713" type="line"/>
      <point x="2042.6303365143146" y="1350.2847815168257" type="line"/>
      <point x="2177.4168759417375" y="1378.01958814666" type="line"/>
      <point x="2177.4168759417375" y="1486.0" type="line"/>
      <point x="1684.9382219989952" y="1486.0" type="line"/>
      <point x="1684.9382219989952" y="1378.01958814666" type="line"/>
      <point x="1873.674535409342" y="1350.2847815168257" type="line"/>
      <point x="1621.126067302863" y="424.0406830738323" type="line"/>
      <point x="1576.3827222501257" y="194.0160723254646" type="line"/>
      <point x="1519.1115017579107" y="423.68910095429436" type="line"/>
      <point x="1254.3224510296334" y="1350.887493721748" type="line"/>
      <point x="1447.5544952285284" y="1378.01958814666" type="line"/>
      <point x="1447.5544952285284" y="1486.0" type="line"/>
      <point x="797.7674535409342" y="1486.0" type="line"/>
      <point x="797.7674535409342" y="1378.01958814666" type="line"/>
      <point x="933.6087393269712" y="1350.887493721748" type="line"/>
      <point x="999.5519839276747" y="1144.0321446509292" type="line"/>
      <point x="780.3540934203917" y="424.0406830738323" type="line"/>
      <point x="732.347061778001" y="209.50728277247615" type="line"/>
      <point x="681.7644399799096" y="423.7393269713712" type="line"/>
      <point x="412.4234053239578" y="1350.3350075339026" type="line"/>
      <point x="589.0909090909091" y="1378.069814163737" type="line"/>
      <point x="589.0909090909091" y="1486.0" type="line"/>
      <point x="-42.01607232546459" y="1486.050226017077" type="line"/>
    </contour>
  </outline>
</glyph>
<glyph name="X" format="2">
  <advance width="1561.5755901557006"/>
  <unicode hex="0058"/>
  <anchor x="1556.258161727775" y="0.0" name="bottomright"/>
  <outline>
    <contour>
      <point x="190.65745856353593" y="126.56403817177298" type="line"/>
      <point x="19.11401305876444" y="104.41185334003013" type="line"/>
      <point x="19.11401305876444" y="0.0" type="line"/>
      <point x="562.0271220492215" y="0.0" type="line"/>
      <point x="562.0271220492217" y="104.41185334003013" type="line"/>
      <point x="367.8824711200402" y="126.7147162230035" type="line"/>
      <point x="699.3505775991964" y="627.692114515319" type="line"/>
      <point x="1020.269211451532" y="127.28779507785032" type="line"/>
      <point x="859.8206931190357" y="104.41185334003013" type="line"/>
      <point x="859.8206931190357" y="0.0" type="line"/>
      <point x="1542.4615770969363" y="0.0" type="line"/>
      <point x="1542.4615770969363" y="104.41185334003013" type="line"/>
      <point x="1399.1883475640382" y="127.43847312908085" type="line"/>
      <point x="928.4655951783025" y="798.5695630336513" type="line"/>
      <point x="1358.8196885986943" y="1349.2546459065795" type="line"/>
      <point x="1523.7774987443497" y="1377.7061778001005" type="line"/>
      <point x="1523.7774987443497" y="1486.0" type="line"/>
      <point x="1007.4193872425916" y="1486.0" type="line"/>
      <point x="1007.4193872425916" y="1377.7061778001005" type="line"/>
      <point x="1186.5575087895525" y="1349.8277247614265" type="line"/>
      <point x="858.0813661476644" y="882.0487192365646" type="line"/>
      <point x="560.2019085886488" y="1348.5308890005022" type="line"/>
      <point x="722.865394274234" y="1377.7061778001005" type="line"/>
      <point x="722.865394274234" y="1486.0" type="line"/>
      <point x="35.935710698141634" y="1486.0" type="line"/>
      <point x="35.935710698141634" y="1377.7061778001005" type="line"/>
      <point x="181.00401808136613" y="1349.103967855349" type="line"/>
      <point x="624.7880462079356" y="715.2802611752888" type="line"/>
    </contour>
  </outline>
</glyph>
<glyph name="Y" format="2">
  <advance width="1379.5966850828727"/>
  <unicode hex="0059"/>
  <anchor x="699.6670015067805" y="0.0" name="bottom"/>
  <anchor x="695.0364801607232" y="547.0" name="center"/>
  <anchor x="735.652938221999" y="1486.0" name="top"/>
  <anchor x="85.87694625816172" y="1486.0" name="topleft"/>
  <outline>
    <contour>
      <point x="539.3505775991964" y="127.63937719738823" type="line"/>
      <point x="328.7599196383727" y="104.41185334003013" type="line"/>
      <point x="328.7599196383727" y="0.0" type="line"/>
      <point x="1068.5710698141636" y="0.0" type="line"/>
      <point x="1068.5710698141636" y="104.41185334003013" type="line"/>
      <point x="850.342541436464" y="127.36765444500253" type="line"/>
      <point x="850.342541436464" y="577.1531893520844" type="line"/>
      <point x="1294.0356604721246" y="1353.1436464088397" type="line"/>
      <point x="1438.7619286790557" y="1377.7564038171772" type="line"/>
      <point x="1438.7619286790557" y="1486.0" type="line"/>
      <point x="930.2882973380212" y="1486.0" type="line"/>
      <point x="930.2882973380212" y="1377.7564038171772" type="line"/>
      <point x="1105.7127071823204" y="1350.1481667503767" type="line"/>
      <point x="825.2194876946259" y="819.6027122049221" type="line"/>
      <point x="767.8970366649925" y="684.4721245605223" type="line"/>
      <point x="712.1210447011553" y="819.4711200401807" type="line"/>
      <point x="419.9131089904571" y="1350.1481667503767" type="line"/>
      <point x="573.9728779507785" y="1377.7564038171772" type="line"/>
      <point x="573.9728779507785" y="1486.0" type="line"/>
      <point x="-53.506780512305376" y="1485.949773982923" type="line"/>
      <point x="-53.506780512305376" y="1377.7061778001005" type="line"/>
      <point x="72.62631843294828" y="1350.8719236564539" type="line"/>
      <point x="539.3505775991964" y="570.6790557508789" type="line"/>
    </contour>
  </outline>
</glyph>
<glyph name="Z" format="2">
  <advance width="1310.7373179306878"/>
  <unicode hex="005A"/>
  <anchor x="650.5851330989452" y="0.0" name="bottom"/>
  <anchor x="677.1762933199396" y="1486.0" name="top"/>
  <outline>
    <contour>
      <point x="798.8171772978403" y="1239.221496735309" type="line"/>
      <point x="42.75590155700653" y="97.71572074334505" type="line"/>
      <point x="97.40883977900552" y="0.0" type="line"/>
      <point x="1214.848317428428" y="0.0" type="line"/>
      <point x="1261.505775991964" y="440.93169261677554" type="line"/>
      <point x="1109.3073832245102" y="471.31893520843795" type="line"/>
      <point x="986.7458563535912" y="151.38674033149172" type="line"/>
      <point x="370.54394776494223" y="110.92817679558011" type="line"/>
      <point x="499.3701657458564" y="255.9738824711201" type="line"/>
      <point x="1245.3329984932193" y="1391.546961325967" type="line"/>
      <point x="1201.9929683576095" y="1490.316926167755" type="line"/>
      <point x="168.8041185334003" y="1490.316926167755" type="line"/>
      <point x="125.45956805625313" y="1096.405826217981" type="line"/>
      <point x="276.6499246609743" y="1075.549472626821" type="line"/>
      <point x="390.633350075339" y="1356.860873932697" type="line"/>
      <point x="920.7910597689603" y="1383.4751381215467" type="line"/>
    </contour>
  </outline>
</glyph>
<glyph name="bracketleft" format="2">
  <advance width="888.240582621798"/>
  <unicode hex="005B"/>
  <outline>
    <contour>
      <point x="194.1160220994475" y="1400.9010547463586" type="curve"/>
      <point x="194.1160220994475" y="-66.9010547463586" type="line" smooth="yes"/>
      <point x="194.1160220994475" y="-241.42893018583626"/>
      <point x="270.55148166750377" y="-274.0"/>
      <point x="418.56002009040685" y="-274.0" type="curve" smooth="yes"/>
      <point x="524.6012054244098" y="-274.0"/>
      <point x="613.3450527373178" y="-255.82872928176795"/>
      <point x="696.737317930688" y="-235.1049723756906" type="curve"/>
      <point x="696.737317930688" y="-144.58714213962833" type="line"/>
      <point x="444.147664490206" y="-144.58714213962833" type="line"/>
      <point x="444.147664490206" y="1480.5871421396284" type="line"/>
      <point x="696.737317930688" y="1480.5871421396284" type="line"/>
      <point x="696.737317930688" y="1569.657458563536" type="line"/>
      <point x="615.5133098945253" y="1587.828729281768"/>
      <point x="527.427423405324" y="1608.0"/>
      <point x="418.56002009040685" y="1608.0" type="curve" smooth="yes"/>
      <point x="270.55148166750377" y="1608.0"/>
      <point x="194.1160220994475" y="1575.428930185836"/>
    </contour>
  </outline>
</glyph>
<glyph name="backslash" format="2">
  <advance width="833.0416875941738"/>
  <unicode hex="005C"/>
  <outline>
    <contour>
      <point x="747.158211953792" y="-354.0" type="line"/>
      <point x="223.48267202410847" y="1562.0" type="line"/>
      <point x="41.0286288297338" y="1562.0" type="line"/>
      <point x="563.2566549472627" y="-354.0" type="line"/>
    </contour>
  </outline>
</glyph>
<glyph name="bracketright" format="2">
  <advance width="876.3972877950779"/>
  <unicode hex="005D"/>
  <outline>
    <contour>
      <point x="682.2812656956304" y="1400.9010547463586" type="line"/>
      <point x="682.2812656956304" y="1575.428930185836"/>
      <point x="617.6891009542943" y="1608.0"/>
      <point x="469.6805625313913" y="1608.0" type="curve" smooth="yes"/>
      <point x="360.81315921647416" y="1608.0"/>
      <point x="272.72727272727275" y="1587.828729281768"/>
      <point x="191.50326469110996" y="1569.657458563536" type="curve"/>
      <point x="191.50326469110996" y="1480.5871421396284" type="line"/>
      <point x="444.09291813159217" y="1480.5871421396284" type="line"/>
      <point x="444.09291813159217" y="-144.58714213962833" type="line"/>
      <point x="191.50326469110996" y="-144.58714213962833" type="line"/>
      <point x="191.50326469110996" y="-235.1049723756906" type="line"/>
      <point x="274.8955298844802" y="-255.82872928176795"/>
      <point x="363.6393771973883" y="-274.0"/>
      <point x="469.6805625313913" y="-274.0" type="curve" smooth="yes"/>
      <point x="617.6891009542943" y="-274.0"/>
      <point x="682.2812656956304" y="-241.42893018583626"/>
      <point x="682.2812656956304" y="-66.9010547463586" type="curve" smooth="yes"/>
    </contour>
  </outline>
</glyph>
<glyph name="asciicircum" format="2">
  <advance width="1458.904570567554"/>
  <unicode hex="005E"/>
  <outline>
    <contour>
      <point x="825.0175791059769" y="1496.0" type="line"/>
      <point x="631.1838272225011" y="1496.0" type="line"/>
      <point x="181.40381717729778" y="266.7739829231542" type="line"/>
      <point x="365.50326469110996" y="266.7739829231542" type="line"/>
      <point x="728.3651431441488" y="1226.0728277247615" type="line"/>
      <point x="1081.1958814665995" y="266.7739829231542" type="line"/>
      <point x="1276.948267202411" y="266.7739829231542" type="line"/>
    </contour>
  </outline>
</glyph>
<glyph name="a" format="2">
  <advance width="1149.6675037669515"/>
  <unicode hex="0061"/>
  <anchor x="539.4304369663486" y="0.0" name="bottom"/>
  <anchor x="927.0396785534906" y="20.0" name="ogonek"/>
  <anchor x="544.5735811150176" y="1110.592164741336" name="top"/>
  <outline>
    <contour>
      <point x="39.41838272225013" y="302.3033651431441" type="curve" smooth="yes"/>
      <point x="39.41838272225013" y="92.095429432446"/>
      <point x="205.79758915118032" y="-21.72978402812657"/>
      <point x="391.65946760421895" y="-21.72978402812657" type="curve" smooth="yes"/>
      <point x="566.585635359116" y="-21.72978402812657"/>
      <point x="686.7378201908589" y="77.03716725263688"/>
      <point x="731.0406830738323" y="139.94676042189855" type="curve"/>
      <point x="731.0406830738323" y="78.83023606228026" type="line" smooth="yes"/>
      <point x="731.0406830738323" y="0.1557006529382221"/>
      <point x="768.2501255650427" y="-21.584128578603718"/>
      <point x="855.3465595178303" y="-21.584128578603718" type="curve" smooth="yes"/>
      <point x="966.6107483676543" y="-21.584128578603718"/>
      <point x="1066.203917629332" y="-1.9738824711200404"/>
      <point x="1113.455047714716" y="8.547463586137619" type="curve"/>
      <point x="1113.455047714716" y="109.43847312908086" type="line"/>
      <point x="1017.5655449522853" y="109.43847312908086" type="line"/>
      <point x="1017.5655449522853" y="722.3108990457056" type="line" smooth="yes"/>
      <point x="1017.5655449522853" y="992.3214465092917"/>
      <point x="895.381215469613" y="1117.8663987945756"/>
      <point x="615.0180813661476" y="1117.8663987945756" type="curve" smooth="yes"/>
      <point x="366.1115017579106" y="1117.8663987945756"/>
      <point x="144.97086891009545" y="1016.3460572576595"/>
      <point x="90.74033149171272" y="966.0858864892015" type="curve"/>
      <point x="147.8181818181818" y="849.5223505775992" type="line"/>
      <point x="226.7528879959819" y="889.7433450527374"/>
      <point x="350.1587142139628" y="937.5660472124559"/>
      <point x="524.7413360120541" y="937.4344550477147" type="curve" smooth="yes"/>
      <point x="670.6891009542942" y="937.171270718232"/>
      <point x="716.2857860371672" y="869.028126569563"/>
      <point x="716.2857860371672" y="738.1677548970367" type="curve" smooth="yes"/>
      <point x="716.2857860371672" y="665.6318432948268" type="line"/>
      <point x="305.98242089402305" y="662.499246609744"/>
      <point x="39.41838272225013" y="553.5434455047714"/>
    </contour>
    <contour>
      <point x="513.4505273731793" y="137.79055750878953" type="curve" smooth="yes"/>
      <point x="415.292817679558" y="137.79055750878953"/>
      <point x="350.03566047212456" y="207.71069814163738"/>
      <point x="350.03566047212456" y="332.6107483676544" type="curve" smooth="yes"/>
      <point x="350.03566047212456" y="455.0306378704169"/>
      <point x="443.14163736815675" y="553.9799095931693"/>
      <point x="716.2857860371672" y="555.0241084881967" type="curve"/>
      <point x="716.2857860371672" y="223.43144148669006" type="line"/>
      <point x="668.3108990457057" y="176.720241084882"/>
      <point x="593.3455549974886" y="137.79055750878953"/>
    </contour>
  </outline>
</glyph>
<glyph name="b" format="2">
  <advance width="1255.2295328980413"/>
  <unicode hex="0062"/>
  <anchor x="580.2285283776996" y="-2.1712707182320443" name="bottom"/>
  <anchor x="818.7508789552988" y="1110.7237569060774" name="top"/>
  <outline>
    <contour>
      <point x="-16.8884982420894" y="1493.592667001507" type="line"/>
      <point x="121.8608739326971" y="1466.396785534907" type="line"/>
      <point x="121.8608739326971" y="54.0" type="line"/>
      <point x="150.71471622300353" y="34.372174786539425"/>
      <point x="324.6072325464591" y="-21.407835258663987"/>
      <point x="589.6338523355098" y="-21.40783525866399" type="curve" smooth="yes"/>
      <point x="975.3164239075842" y="-21.407835258663987"/>
      <point x="1205.4997488699148" y="235.98844801607234"/>
      <point x="1205.4997488699144" y="588.670015067805" type="curve" smooth="yes"/>
      <point x="1205.4997488699146" y="963.5580110497239"/>
      <point x="1001.3721747865395" y="1122.2440984429936"/>
      <point x="743.9753892516324" y="1122.2440984429936" type="curve" smooth="yes"/>
      <point x="592.7875439477651" y="1122.2440984429936"/>
      <point x="483.62380713209444" y="1051.5489703666497"/>
      <point x="421.8558513309895" y="989.2631843294827" type="curve"/>
      <point x="421.8558513309895" y="1602.1998995479657" type="line"/>
      <point x="366.25213460572576" y="1638.0657960823708" type="line"/>
      <point x="355.6433952787544" y="1638.0657960823708" type="line"/>
      <point x="-16.8884982420894" y="1585.809141135108" type="line"/>
    </contour>
    <contour>
      <point x="630.5213460572577" y="955.0567553992968" type="curve" smooth="yes"/>
      <point x="777.4615770969364" y="955.0567553992968"/>
      <point x="888.433952787544" y="845.0030135610247"/>
      <point x="886.5258663987945" y="551.5851330989453" type="curve" smooth="yes"/>
      <point x="884.2887995981918" y="238.47513812154696"/>
      <point x="776.4932194876947" y="85.71572074334505"/>
      <point x="583.8282270215971" y="85.71572074334506" type="curve" smooth="yes"/>
      <point x="508.62933199397287" y="85.71572074334505"/>
      <point x="439.04520341536914" y="108.15871421396287"/>
      <point x="421.8558513309895" y="142.23907584128577" type="curve"/>
      <point x="421.8558513309895" y="869.3530889000501" type="line"/>
      <point x="459.14364640883974" y="909.0889000502259"/>
      <point x="533.7985936715219" y="955.0567553992968"/>
    </contour>
  </outline>
</glyph>
<glyph name="c" format="2">
  <advance width="1033.8046207935708"/>
  <unicode hex="0063"/>
  <anchor x="541.9748869914616" y="0.0" name="bottom"/>
  <anchor x="604.4028126569564" y="1110.7237569060774" name="top"/>
  <outline>
    <contour>
      <point x="46.70015067805123" y="538.1557006529382" type="curve" smooth="yes"/>
      <point x="45.51582119537921" y="195.1878453038674"/>
      <point x="239.5595178302361" y="-22.0"/>
      <point x="596.2727272727273" y="-22.0" type="curve" smooth="yes"/>
      <point x="770.1305876443998" y="-22.0"/>
      <point x="932.3586137619286" y="59.915620291310894"/>
      <point x="994.2581617277749" y="121.85233550979406" type="curve"/>
      <point x="949.2702159718733" y="216.25514816675036" type="line"/>
      <point x="884.0075339025616" y="178.14063284781517"/>
      <point x="791.505273731793" y="142.66248116524358"/>
      <point x="694.7388247112003" y="142.66248116524358" type="curve" smooth="yes"/>
      <point x="490.30436966348566" y="142.66248116524358"/>
      <point x="370.81617277749876" y="295.1145153189353"/>
      <point x="371.4942240080362" y="617.1150175791058" type="curve" smooth="yes"/>
      <point x="371.94625816172777" y="873.7483676544449"/>
      <point x="470.68307383224516" y="1005.2225012556504"/>
      <point x="618.03917629332" y="1005.2225012556504" type="curve" smooth="yes"/>
      <point x="667.2571572074334" y="1005.2225012556504"/>
      <point x="718.460070316424" y="987.6675037669512"/>
      <point x="728.52938221999" y="941.0165745856353" type="curve" smooth="yes"/>
      <point x="776.7880462079357" y="728.4696132596683" type="line"/>
      <point x="981.1356102461074" y="728.4696132596683" type="line"/>
      <point x="993.4409844299347" y="1060.815670517328" type="line"/>
      <point x="931.0371672526368" y="1072.885484681065"/>
      <point x="810.1767955801106" y="1122.162732295329"/>
      <point x="631.8734304369664" y="1122.162732295329" type="curve" smooth="yes"/>
      <point x="310.37769964841794" y="1122.162732295329"/>
      <point x="47.884480160723264" y="908.7619286790557"/>
    </contour>
  </outline>
</glyph>
<glyph name="e" format="2">
  <advance width="1125.7267704671017"/>
  <unicode hex="0065"/>
  <anchor x="611.1049723756906" y="0.0" name="bottom"/>
  <anchor x="709.1265695630336" y="20.0" name="ogonek"/>
  <anchor x="627.4947262682068" y="1110.0" name="top"/>
  <outline>
    <contour>
      <point x="596.8227021597187" y="-22.263184329482673" type="curve" smooth="yes"/>
      <point x="804.0944249121044" y="-22.263184329482673"/>
      <point x="975.0683073832245" y="64.16624811652436"/>
      <point x="1041.3671521848314" y="132.42139628327473" type="curve"/>
      <point x="995.0582621798092" y="230.1767955801105" type="line"/>
      <point x="932.8026117528881" y="187.3500753390256"/>
      <point x="823.3726770467101" y="141.28930185836262"/>
      <point x="705.7880462079357" y="141.28930185836262" type="curve" smooth="yes"/>
      <point x="486.210447011552" y="141.28930185836262"/>
      <point x="380.69110999497747" y="302.3043696634857"/>
      <point x="378.05926670015066" y="533.1672526368659" type="curve"/>
      <point x="1060.2440984429936" y="533.1672526368659" type="line"/>
      <point x="1071.5851330989453" y="578.2596685082873"/>
      <point x="1076.630838774485" y="638.1742842792567"/>
      <point x="1076.580612757408" y="724.679055750879" type="curve"/>
      <point x="1070.4565544952286" y="977.8186840783527"/>
      <point x="909.781014565545" y="1122.0311401305878"/>
      <point x="632.748367654445" y="1122.0311401305878" type="curve" smooth="yes"/>
      <point x="300.3566047212456" y="1122.0311401305878"/>
      <point x="48.30788548468106" y="918.8879959819185"/>
      <point x="47.715720743345045" y="545.3108990457058" type="curve" smooth="yes"/>
      <point x="47.12355600200904" y="193.04721245605225"/>
      <point x="249.55600200904067" y="-22.263184329482673"/>
    </contour>
    <contour>
      <point x="377.20843797086894" y="641.9603214465092" type="line"/>
      <point x="386.7292817679557" y="925.6142641888498"/>
      <point x="485.20441988950284" y="1009.2862882973379"/>
      <point x="595.062782521346" y="1009.2862882973379" type="curve" smooth="yes"/>
      <point x="722.9522852837771" y="1009.2862882973379"/>
      <point x="769.0095429432447" y="903.0200904068306"/>
      <point x="769.0095429432447" y="736.5695630336514" type="curve" smooth="yes"/>
      <point x="769.0095429432447" y="712.9010547463587"/>
      <point x="767.1099949773984" y="672.412355600201"/>
      <point x="765.1366147664492" y="644.5750878955298" type="curve"/>
    </contour>
  </outline>
</glyph>
<glyph name="f" format="2">
  <advance width="785.8442993470617"/>
  <unicode hex="0066"/>
  <anchor x="411.03817177297844" y="1506.6363636363637" name="top"/>
  <outline>
    <contour>
      <point x="218.939226519337" y="125.31039678553489" type="line"/>
      <point x="65.49171270718232" y="104.41185334003013" type="line"/>
      <point x="65.49171270718232" y="0.0" type="line"/>
      <point x="697.7975891511802" y="0.0" type="line"/>
      <point x="697.7975891511802" y="104.41185334003013" type="line"/>
      <point x="502.03314917127074" y="124.16574585635357" type="line"/>
      <point x="502.16474133601207" y="949.4776494224009" type="line"/>
      <point x="750.7528879959818" y="949.4776494224009" type="line"/>
      <point x="750.7528879959818" y="1091.501255650427" type="line"/>
      <point x="502.16474133601207" y="1091.501255650427" type="line"/>
      <point x="502.42792566549474" y="1283.858864892014" type="line" smooth="yes"/>
      <point x="502.5595178302361" y="1415.4108488196885"/>
      <point x="555.5600200904067" y="1461.2074334505273"/>
      <point x="665.6383726770466" y="1461.2074334505273" type="curve" smooth="yes"/>
      <point x="742.8689100954293" y="1461.2074334505273"/>
      <point x="815.0241084881968" y="1439.728779507785"/>
      <point x="850.4324460070318" y="1412.8016072325463" type="curve"/>
      <point x="851.0246107483676" y="1650.5133098945255" type="line"/>
      <point x="833.1351079859368" y="1657.0311401305878"/>
      <point x="795.3661476644902" y="1667.829231541939"/>
      <point x="726.3194374686088" y="1667.829231541939" type="curve" smooth="yes"/>
      <point x="465.0205926670015" y="1667.829231541939"/>
      <point x="218.939226519337" y="1455.2435961828228"/>
      <point x="218.939226519337" y="1176.4379708689103" type="curve" smooth="yes"/>
      <point x="218.939226519337" y="1089.0406830738323" type="line"/>
      <point x="58.55750878955299" y="1047.254143646409" type="line"/>
      <point x="58.55750878955299" y="949.4776494224009" type="line"/>
      <point x="218.939226519337" y="949.4776494224009" type="line"/>
    </contour>
  </outline>
</glyph>
<glyph name="g" format="2">
  <advance width="1255.285786037167"/>
  <unicode hex="0067"/>
  <anchor x="622.0748367654444" y="0.0" name="bottom"/>
  <anchor x="602.7503766951281" y="1110.5921647413359" name="top"/>
  <outline>
    <contour>
      <point x="572.6906077348067" y="-528.4881968859869" type="curve"/>
      <point x="925.4987443495731" y="-528.4881968859869"/>
      <point x="1221.9306880964339" y="-360.90256152687095"/>
      <point x="1221.9306880964339" y="-106.1783023606228" type="curve" smooth="yes"/>
      <point x="1221.9306880964339" y="80.700652938222"/>
      <point x="1082.6880964339525" y="182.3530889000502"/>
      <point x="807.5580110497239" y="182.3530889000502" type="curve" smooth="yes"/>
      <point x="587.8729281767954" y="182.3530889000502" type="line" smooth="yes"/>
      <point x="419.2857860371672" y="182.3530889000502"/>
      <point x="355.4153691612255" y="213.149673530889"/>
      <point x="355.4153691612255" y="296.1898543445505" type="curve" smooth="yes"/>
      <point x="355.4153691612255" y="336.39879457559016"/>
      <point x="374.4671019588147" y="366.609743847313"/>
      <point x="405.23103967855354" y="394.0492214967353" type="curve"/>
      <point x="453.35308890005024" y="384.43345052737317"/>
      <point x="512.1235560020091" y="379.42039176293315"/>
      <point x="573.7016574585635" y="379.42039176293315" type="curve" smooth="yes"/>
      <point x="880.3842290306379" y="379.42039176293315"/>
      <point x="1080.3018583626317" y="533.9467604218985"/>
      <point x="1079.7096936212956" y="771.7147162230034" type="curve" smooth="yes"/>
      <point x="1079.7096936212956" y="825.6147664490205"/>
      <point x="1065.7980914113514" y="877.5414364640885"/>
      <point x="1045.9753892516324" y="911.6564540431943" type="curve"/>
      <point x="1232.8196885986945" y="911.7066800602712" type="line"/>
      <point x="1232.8699146157712" y="1122.6870919136113" type="line"/>
      <point x="1180.01958814666" y="1122.6870919136113" type="line" smooth="yes"/>
      <point x="1080.6172777498743" y="1122.6870919136113"/>
      <point x="999.0602712204922" y="1066.0743345052738"/>
      <point x="968.1878453038673" y="1026.7433450527374" type="curve"/>
      <point x="888.3561024610749" y="1088.9974886991463"/>
      <point x="768.4982420894023" y="1120.188849824209"/>
      <point x="604.5263686589655" y="1120.188849824209" type="curve" smooth="yes"/>
      <point x="330.4560522350578" y="1120.188849824209"/>
      <point x="92.5128076343546" y="984.4796584630838"/>
      <point x="92.5128076343546" y="748.3269713711703" type="curve" smooth="yes"/>
      <point x="92.5128076343546" y="596.5489703666499"/>
      <point x="159.85082872928177" y="478.05625313912606"/>
      <point x="318.63837267704673" y="418.55148166750377" type="curve"/>
      <point x="217.51029633350075" y="374.7282772476143"/>
      <point x="148.33048719236564" y="288.5861376192868"/>
      <point x="148.33048719236564" y="196.292817679558" type="curve" smooth="yes"/>
      <point x="148.33048719236564" y="119.67604218985433"/>
      <point x="180.748367654445" y="60.91461577096937"/>
      <point x="250.62581617277746" y="22.671019588146656" type="curve"/>
      <point x="136.44249121044703" y="-11.966850828729282"/>
      <point x="47.15519839276745" y="-99.90708186840784"/>
      <point x="47.15519839276745" y="-222.38874937217483" type="curve" smooth="yes"/>
      <point x="47.15519839276745" y="-423.6147664490206"/>
      <point x="260.52787543947767" y="-528.4881968859869"/>
    </contour>
    <contour>
      <point x="604.2767453540935" y="-405.52938221998994" type="curve"/>
      <point x="425.41637368156705" y="-405.3977900552486"/>
      <point x="315.55951783023613" y="-320.9060773480664"/>
      <point x="315.55951783023613" y="-176.74635861376194" type="curve" smooth="yes"/>
      <point x="315.55951783023613" y="-103.1813159216474"/>
      <point x="347.0552486187845" y="-50.48216976393772"/>
      <point x="380.06479156202914" y="-13.605223505775992" type="curve"/>
      <point x="414.0396785534907" y="-19.78553490708187"/>
      <point x="452.86941235560016" y="-23.070316423907585"/>
      <point x="497.1657458563535" y="-23.070316423907585" type="curve" smooth="yes"/>
      <point x="735.0919136112506" y="-23.201908588648923" type="line" smooth="yes"/>
      <point x="879.2425916624811" y="-23.201908588648923"/>
      <point x="928.969864389754" y="-72.99547965846308"/>
      <point x="928.969864389754" y="-177.6654947262682" type="curve" smooth="yes"/>
      <point x="928.969864389754" y="-329.2747363134103"/>
      <point x="781.3561024610748" y="-405.7925665494726"/>
    </contour>
    <contour>
      <point x="592.4314414866901" y="491.12958312405823" type="curve" smooth="yes"/>
      <point x="447.8814665996986" y="491.3807132094425"/>
      <point x="393.3942742340533" y="601.5323957810145"/>
      <point x="393.3942742340533" y="760.0763435459568" type="curve" smooth="yes"/>
      <point x="393.3942742340533" y="932.809141135108"/>
      <point x="466.60823706680065" y="1012.0326469111"/>
      <point x="594.3756906077348" y="1012.0326469111" type="curve" smooth="yes"/>
      <point x="722.861376192868" y="1012.0326469111"/>
      <point x="783.7629331993973" y="922.917629331994"/>
      <point x="783.7629331993973" y="753.5328980411855" type="curve" smooth="yes"/>
      <point x="783.7629331993973" y="586.8719236564542"/>
      <point x="727.0567553992969" y="490.8282270215972"/>
    </contour>
  </outline>
</glyph>
<glyph name="h" format="2">
  <advance width="1369.8387744851834"/>
  <unicode hex="0068"/>
  <anchor x="707.4605725765946" y="0.0" name="bottom"/>
  <anchor x="252.02209944751382" y="1287.2872928176796" name="center"/>
  <anchor x="297.10346559517836" y="1593.2687091913613" name="top"/>
  <outline>
    <contour>
      <point x="174.1280763435459" y="124.7182320441989" type="line"/>
      <point x="49.76494224008036" y="104.41185334003013" type="line"/>
      <point x="49.76494224008036" y="0.0" type="line"/>
      <point x="604.826720241085" y="0.0" type="line"/>
      <point x="604.826720241085" y="104.41185334003013" type="line"/>
      <point x="478.9377197388248" y="125.31039678553489" type="line"/>
      <point x="478.9377197388248" y="856.6675037669513" type="line"/>
      <point x="541.0788548468106" y="900.9251632345555"/>
      <point x="641.0949271722753" y="950.3636363636363"/>
      <point x="758.3149171270718" y="950.3636363636363" type="curve" smooth="yes"/>
      <point x="900.9789050728278" y="950.3636363636363"/>
      <point x="927.2802611752887" y="859.819688598694"/>
      <point x="927.2802611752887" y="658.8508287292818" type="curve" smooth="yes"/>
      <point x="927.2802611752887" y="125.36062280261176" type="line"/>
      <point x="811.6258161727775" y="104.41185334003013" type="line"/>
      <point x="811.6258161727775" y="0.0" type="line"/>
      <point x="1353.7508789552987" y="-0.592164741336012" type="line"/>
      <point x="1353.7508789552987" y="105.00401808136616" type="line"/>
      <point x="1233.2742340532395" y="124.7182320441989" type="line"/>
      <point x="1233.2742340532395" y="660.5042692114516" type="line" smooth="yes"/>
      <point x="1233.2742340532395" y="977.5067805123053"/>
      <point x="1146.3641386238073" y="1117.3696634856856"/>
      <point x="875.5218483174284" y="1117.3696634856856" type="curve" smooth="yes"/>
      <point x="706.48367654445" y="1117.3696634856856"/>
      <point x="542.7006529382219" y="1027.703164239076"/>
      <point x="462.88598694123556" y="956.2702159718733" type="curve"/>
      <point x="474.2004018081367" y="1147.7689603214465" type="line"/>
      <point x="473.6082370668006" y="1601.3274736313408" type="line"/>
      <point x="419.67403314917124" y="1638.5178302360625" type="line"/>
      <point x="407.3681567051733" y="1638.5178302360625" type="line"/>
      <point x="24.38975389251632" y="1586.2611752887997" type="line"/>
      <point x="24.38975389251632" y="1491.3957810145657" type="line"/>
      <point x="174.1280763435459" y="1464.331491712707" type="line"/>
    </contour>
  </outline>
</glyph>
<glyph name="k" format="2">
  <advance width="1225.2089402310398"/>
  <unicode hex="006B"/>
  <anchor x="667.1280763435459" y="0.0" name="bottom"/>
  <anchor x="675.0170768458062" y="1561.090909090909" name="top"/>
  <outline>
    <contour>
      <point x="164.56253139126065" y="125.17880462079356" type="line"/>
      <point x="48.64289301858362" y="104.2802611752888" type="line"/>
      <point x="48.64289301858362" y="0.0" type="line"/>
      <point x="569.2757408337519" y="0.0" type="line"/>
      <point x="569.2757408337519" y="104.14866901054747" type="line"/>
      <point x="446.0200904068307" y="125.17880462079356" type="line"/>
      <point x="446.0200904068307" y="262.6991461577097" type="line"/>
      <point x="440.3525866398794" y="361.95379206428936" type="line"/>
      <point x="613.0421898543445" y="538.0095429432447" type="line"/>
      <point x="836.8382722250126" y="125.17880462079356" type="line"/>
      <point x="731.0005022601707" y="104.41185334003013" type="line"/>
      <point x="731.92164741336" y="0.0" type="line"/>
      <point x="1273.4686087393266" y="0.0" type="line"/>
      <point x="1273.4686087393266" y="104.51230537418382" type="line"/>
      <point x="1168.8221998995477" y="124.13460572576594" type="line"/>
      <point x="820.0025113008539" y="733.5931692616776" type="line"/>
      <point x="1052.8262179809142" y="963.7629331993974" type="line"/>
      <point x="1204.7327975891512" y="991.1240582621799" type="line"/>
      <point x="1204.7327975891512" y="1090.909090909091" type="line"/>
      <point x="706.5971873430436" y="1090.909090909091" type="line"/>
      <point x="706.5971873430436" y="991.1240582621799" type="line"/>
      <point x="857.4977398292316" y="965.9497739829231" type="line"/>
      <point x="441.6373681567051" y="521.0457056755399" type="line"/>
      <point x="446.61225514816675" y="644.2290306378703" type="line"/>
      <point x="446.61225514816675" y="1600.743847312908" type="line"/>
      <point x="394.9477649422401" y="1638.0657960823708" type="line"/>
      <point x="384.5565042692115" y="1638.0657960823708" type="line"/>
      <point x="24.38975389251632" y="1585.809141135108" type="line"/>
      <point x="24.38975389251632" y="1490.9437468608742" type="line"/>
      <point x="164.56253139126065" y="1463.7478653942742" type="line"/>
    </contour>
  </outline>
</glyph>
<glyph name="l" format="2">
  <advance width="651.8362631843295"/>
  <unicode hex="006C"/>
  <anchor x="323.1752887995982" y="0.0" name="bottom"/>
  <anchor x="312.2953289804118" y="1634.0" name="top"/>
  <anchor x="633.8628829733801" y="1110.7237569060774" name="topright"/>
  <outline>
    <contour>
      <point x="180.10647915620288" y="125.44198895027623" type="line"/>
      <point x="44.72325464590658" y="104.2802611752888" type="line"/>
      <point x="44.72325464590658" y="0.0" type="line"/>
      <point x="619.5107985936717" y="0.0" type="line"/>
      <point x="619.5107985936717" y="104.2802611752888" type="line"/>
      <point x="483.1396283274736" y="124.71823204419888" type="line"/>
      <point x="483.1396283274736" y="1600.8754394776493" type="line"/>
      <point x="428.51883475640386" y="1638.0657960823708" type="line"/>
      <point x="417.15419387242594" y="1638.0657960823708" type="line"/>
      <point x="31.552486187845304" y="1585.809141135108" type="line"/>
      <point x="31.552486187845304" y="1491.3957810145657" type="line"/>
      <point x="180.6986438975389" y="1464.1998995479657" type="line"/>
    </contour>
  </outline>
</glyph>
<glyph name="m" format="2">
  <advance width="2097.5138121546966"/>
  <unicode hex="006D"/>
  <anchor x="1062.2631843294826" y="0.0" name="bottom"/>
  <anchor x="1062.7152184831743" y="1110.7237569060774" name="top"/>
  <outline>
    <contour>
      <point x="49.389251632345555" y="0.0" type="line"/>
      <point x="605.2335509794074" y="0.0" type="line"/>
      <point x="605.2335509794074" y="104.41185334003012" type="line"/>
      <point x="480.40783525866397" y="125.31039678553489" type="line"/>
      <point x="480.5394274234053" y="856.0838774485184" type="line"/>
      <point x="539.3550979407333" y="900.4681064791562"/>
      <point x="638.2656956303365" y="949.4424912104469"/>
      <point x="753.4681064791562" y="949.4424912104469" type="curve" smooth="yes"/>
      <point x="884.4198895027624" y="949.4424912104469"/>
      <point x="924.2305374183827" y="871.3716725263688"/>
      <point x="924.2305374183827" y="665.373179306881" type="curve" smooth="yes"/>
      <point x="924.2305374183827" y="125.31039678553489" type="line"/>
      <point x="809.1908588648921" y="104.41185334003012" type="line"/>
      <point x="809.1908588648921" y="0.0" type="line"/>
      <point x="1351.3350075339024" y="0.0" type="line"/>
      <point x="1351.3350075339024" y="104.41185334003012" type="line"/>
      <point x="1230.2938221998993" y="125.31039678553489" type="line"/>
      <point x="1230.3440482169763" y="670.4706177800101" type="line" smooth="yes"/>
      <point x="1230.3440482169763" y="754.0567553992969"/>
      <point x="1225.641888498242" y="818.4605725765946"/>
      <point x="1215.4771471622303" y="862.4028126569564" type="curve"/>
      <point x="1269.3676544450025" y="902.8367654445002"/>
      <point x="1363.900050226017" y="949.442491210447"/>
      <point x="1482.9969864389755" y="949.442491210447" type="curve" smooth="yes"/>
      <point x="1612.8041185334002" y="949.442491210447"/>
      <point x="1654.468608739327" y="870.1873430436966"/>
      <point x="1654.468608739327" y="660.7759919638373" type="curve" smooth="yes"/>
      <point x="1654.468608739327" y="125.17880462079356" type="line"/>
      <point x="1539.9753892516324" y="104.41185334003013" type="line"/>
      <point x="1539.9753892516324" y="0.0" type="line"/>
      <point x="2081.425916624812" y="0.0" type="line"/>
      <point x="2081.425916624812" y="104.41185334003013" type="line"/>
      <point x="1961.1742842792569" y="125.17880462079356" type="line"/>
      <point x="1961.1742842792569" y="667.4615770969363" type="line" smooth="yes"/>
      <point x="1961.1742842792569" y="992.5946760421899"/>
      <point x="1857.5359116022098" y="1117.3696634856854"/>
      <point x="1602.3194374686086" y="1117.3696634856854" type="curve" smooth="yes"/>
      <point x="1432.3063787041688" y="1117.3696634856854"/>
      <point x="1267.7885484681067" y="1029.1798091411351"/>
      <point x="1186.5650426921145" y="954.1883475640382" type="curve"/>
      <point x="1136.5253641386237" y="1060.7564038171772"/>
      <point x="1038.7559015570062" y="1117.3696634856856"/>
      <point x="876.2792566549472" y="1117.3696634856856" type="curve" smooth="yes"/>
      <point x="706.5339025615269" y="1117.3696634856856"/>
      <point x="546.7815168257156" y="1029.3515821195379"/>
      <point x="458.7061778001005" y="949.0989452536414" type="curve"/>
      <point x="460.6800602712205" y="1079.2747363134104" type="line"/>
      <point x="411.5113008538423" y="1117.113008538423" type="line"/>
      <point x="391.58965344048215" y="1117.113008538423" type="line"/>
      <point x="39.766951280763436" y="1066.672526368659" type="line"/>
      <point x="39.766951280763436" y="946.8729281767955" type="line"/>
      <point x="173.6519337016575" y="909.3355097940735" type="line"/>
      <point x="173.6519337016575" y="125.31039678553489" type="line"/>
      <point x="49.389251632345555" y="104.41185334003012" type="line"/>
    </contour>
  </outline>
</glyph>
<glyph name="n" format="2">
  <advance width="1368.722250125565"/>
  <unicode hex="006E"/>
  <anchor x="702.3857358111502" y="0.0" name="bottom"/>
  <anchor x="672.4500251130086" y="1110.7237569060774" name="top"/>
  <outline>
    <contour>
      <point x="173.0241084881969" y="125.31039678553489" type="line"/>
      <point x="49.389251632345555" y="104.41185334003013" type="line"/>
      <point x="49.389251632345555" y="0.0" type="line"/>
      <point x="605.5494726268207" y="0.0" type="line"/>
      <point x="605.5494726268207" y="104.41185334003013" type="line"/>
      <point x="479.8613761928679" y="125.31039678553489" type="line"/>
      <point x="479.8613761928679" y="855.3028628829734" type="line"/>
      <point x="542.2014063284781" y="901.5173279758915"/>
      <point x="643.2079357106982" y="950.3636363636363"/>
      <point x="756.1752887995981" y="950.3636363636363" type="curve" smooth="yes"/>
      <point x="891.1546961325967" y="950.3636363636363"/>
      <point x="925.5529884480161" y="870.8453038674033"/>
      <point x="925.5529884480161" y="676.4841788046208" type="curve" smooth="yes"/>
      <point x="925.5027624309391" y="124.2661978905073" type="line"/>
      <point x="810.6916122551481" y="104.41185334003013" type="line"/>
      <point x="810.6916122551481" y="0.0" type="line"/>
      <point x="1352.6343545956804" y="0.0" type="line"/>
      <point x="1352.6343545956804" y="105.00401808136616" type="line"/>
      <point x="1232.3400301356103" y="124.2661978905073" type="line"/>
      <point x="1232.3902561526872" y="678.0060271220492" type="line" smooth="yes"/>
      <point x="1232.3902561526872" y="989.1732797589152"/>
      <point x="1137.728779507785" y="1117.3696634856856"/>
      <point x="874.2591662481165" y="1117.3696634856856" type="curve" smooth="yes"/>
      <point x="702.6363636363636" y="1117.3696634856856"/>
      <point x="545.2446007031642" y="1027.5213460572577"/>
      <point x="457.57609241587147" y="949.0989452536414" type="curve"/>
      <point x="460.0020090406831" y="1003.0090406830739" type="line"/>
      <point x="460.0020090406831" y="1079.2747363134104" type="line"/>
      <point x="410.783023606228" y="1117.113008538423" type="line"/>
      <point x="393.0984429934707" y="1117.113008538423" type="line"/>
      <point x="39.766951280763436" y="1066.6725263686592" type="line"/>
      <point x="39.766951280763436" y="946.8729281767955" type="line"/>
      <point x="173.0241084881969" y="909.3355097940733" type="line"/>
    </contour>
  </outline>
</glyph>
<glyph name="o" format="2">
  <advance width="1258.1592164741332"/>
  <unicode hex="006F"/>
  <anchor x="630.5841285786037" y="0.0" name="bottom"/>
  <anchor x="629.5293822199899" y="546.7905575087896" name="center"/>
  <anchor x="719.2225012556504" y="20.848819688598695" name="ogonek"/>
  <anchor x="629.8056253139125" y="1111.184329482672" name="top"/>
  <anchor x="977.0668006027123" y="1092.093420391763" name="topright"/>
  <outline>
    <contour>
      <point x="46.70015067805123" y="541.3500753390257" type="curve" smooth="yes"/>
      <point x="46.70015067805123" y="204.87192365645404"/>
      <point x="231.74635861376194" y="-22.263184329482673"/>
      <point x="614.8829733802111" y="-22.263184329482673" type="curve" smooth="yes"/>
      <point x="937.6017076845806" y="-22.263184329482673"/>
      <point x="1211.4590657960823" y="175.91511803114014"/>
      <point x="1211.4590657960823" y="557.9919638372678" type="curve" smooth="yes"/>
      <point x="1211.4590657960823" y="893.1541938724258"/>
      <point x="1027.0301356102464" y="1121.6363636363637"/>
      <point x="644.2661978905072" y="1121.6363636363637" type="curve" smooth="yes"/>
      <point x="320.76443997990964" y="1121.6363636363637"/>
      <point x="46.70015067805123" y="914.9547965846308"/>
    </contour>
    <contour>
      <point x="633.0487192365645" y="93.30236062280262" type="curve" smooth="yes"/>
      <point x="447.7066800602713" y="93.30236062280262"/>
      <point x="377.37267704671024" y="270.33098945253636"/>
      <point x="377.37267704671024" y="564.1938724259165" type="curve" smooth="yes"/>
      <point x="377.37267704671024" y="862.4977398292317"/>
      <point x="466.68709191361125" y="1005.939226519337"/>
      <point x="630.7634354595681" y="1005.939226519337" type="curve" smooth="yes"/>
      <point x="815.0462079357106" y="1005.939226519337"/>
      <point x="879.7157207433451" y="826.5072827724761"/>
      <point x="879.7157207433451" y="534.8849824208941" type="curve" smooth="yes"/>
      <point x="879.7157207433451" y="236.5198392767454"/>
      <point x="794.9211451531894" y="93.30236062280262"/>
    </contour>
  </outline>
</glyph>
<glyph name="p" format="2">
  <advance width="1298.9121044701155"/>
  <unicode hex="0070"/>
  <anchor x="637.8925163234554" y="1111.4475138121547" name="top"/>
  <outline>
    <contour>
      <point x="1249.1823204419893" y="588.6197890507282" type="curve" smooth="yes"/>
      <point x="1249.182320441989" y="963.5580110497239"/>
      <point x="1042.654445002511" y="1122.0934203917632"/>
      <point x="781.8367654445002" y="1122.0934203917632" type="curve" smooth="yes"/>
      <point x="625.4450025113008" y="1122.0934203917632"/>
      <point x="501.1109994977397" y="1039.9316926167753"/>
      <point x="439.3340030135611" y="967.4625816172777" type="curve"/>
      <point x="439.3340030135611" y="1078.566549472627" type="line"/>
      <point x="391.7870416875942" y="1117.113008538423" type="line"/>
      <point x="380.13661476644904" y="1117.113008538423" type="line"/>
      <point x="37.205424409844305" y="1066.0803616273229" type="line"/>
      <point x="37.205424409844305" y="946.8729281767955" type="line"/>
      <point x="166.7564038171773" y="909.9276745354093" type="line"/>
      <point x="166.88799598191864" y="-353.4475138121547" type="line"/>
      <point x="38.09743847312909" y="-379.3952787543948" type="line"/>
      <point x="38.09743847312909" y="-479.52184831742846" type="line"/>
      <point x="633.7448518332495" y="-479.52184831742846" type="line"/>
      <point x="633.7448518332495" y="-379.3952787543948" type="line"/>
      <point x="465.02159718734305" y="-353.4475138121547" type="line"/>
      <point x="465.02159718734305" y="-162.8950276243094" type="line"/>
      <point x="460.5645404319438" y="3.524861878453037" type="line"/>
      <point x="493.44550477147163" y="-9.48869914615771"/>
      <point x="553.3631341034657" y="-21.40783525866399"/>
      <point x="631.2024108488196" y="-21.40783525866399" type="curve" smooth="yes"/>
      <point x="1015.8749372174785" y="-21.40783525866399"/>
      <point x="1249.1823204419888" y="234.8940231039679"/>
    </contour>
    <contour>
      <point x="667.815670517328" y="954.9060773480662" type="curve" smooth="yes"/>
      <point x="815.8247112004017" y="954.9060773480662"/>
      <point x="931.6187845303868" y="851.7870416875942"/>
      <point x="930.4344550477146" y="551.8111501757911" type="curve" smooth="yes"/>
      <point x="930.3028628829734" y="238.92717227523855"/>
      <point x="817.3234555499749" y="85.71572074334506"/>
      <point x="629.2717227523858" y="85.71572074334506" type="curve" smooth="yes"/>
      <point x="551.6298342541437" y="85.71572074334506"/>
      <point x="486.6825715720743" y="109.84530386740332"/>
      <point x="465.7644399799096" y="140.37669512807634" type="curve"/>
      <point x="465.76443997990964" y="867.6624811652435" type="line"/>
      <point x="500.47915620291315" y="906.9462581617278"/>
      <point x="574.8779507785034" y="954.9060773480662"/>
    </contour>
  </outline>
</glyph>
<glyph name="q" format="2">
  <advance width="1215.5499748869915"/>
  <unicode hex="0071"/>
  <outline>
    <contour>
      <point x="606.9482672024109" y="-479.52184831742846" type="line"/>
      <point x="1220.0989452536417" y="-479.52184831742846" type="line"/>
      <point x="1220.0989452536417" y="-381.1617277749874" type="line"/>
      <point x="1090.3982923154194" y="-355.9879457559016" type="line"/>
      <point x="1090.3982923154194" y="1080.1898543445507" type="line"/>
      <point x="1044.845806127574" y="1113.6207935710697" type="line"/>
      <point x="1029.4289301858366" y="1113.6207935710697" type="line"/>
      <point x="899.9703666499245" y="1078.3124058262183" type="line"/>
      <point x="844.8493219487696" y="1095.1456554495232"/>
      <point x="754.5796082370667" y="1122.0060271220495"/>
      <point x="656.2159718734304" y="1122.0060271220495" type="curve" smooth="yes"/>
      <point x="269.43445504771466" y="1122.0060271220495"/>
      <point x="53.87493721747865" y="853.2747363134102"/>
      <point x="53.87493721747865" y="517.6217980914112" type="curve" smooth="yes"/>
      <point x="53.87493721747865" y="142.57358111501756"/>
      <point x="261.7709693621296" y="-22.037167252636866"/>
      <point x="495.8809643395279" y="-22.037167252636866" type="curve" smooth="yes"/>
      <point x="638.8186840783526" y="-22.037167252636866"/>
      <point x="748.7187343043697" y="42.93370165745857"/>
      <point x="816.3827222501257" y="114.81918633852335" type="curve"/>
      <point x="811.2104470115519" y="-46.0" type="line"/>
      <point x="811.4736313410345" y="-355.3957810145656" type="line"/>
      <point x="606.9482672024109" y="-381.1617277749874" type="line"/>
    </contour>
    <contour>
      <point x="607.0120542440984" y="132.1225514816675" type="curve" smooth="yes"/>
      <point x="467.366649924661" y="132.1225514816675"/>
      <point x="358.41084881968857" y="254.03264691109996"/>
      <point x="359.5951783023606" y="551.7142139628327" type="curve" smooth="yes"/>
      <point x="360.1873430436966" y="875.477649422401"/>
      <point x="474.23003515821193" y="1008.7348066298343"/>
      <point x="647.1722752385735" y="1008.7348066298343" type="curve" smooth="yes"/>
      <point x="720.8367654445002" y="1008.7348066298343"/>
      <point x="790.3907584128578" y="982.2360622802612"/>
      <point x="811.1290808638875" y="954.3621295831242" type="curve"/>
      <point x="811.1290808638873" y="222.40180813661476" type="line"/>
      <point x="775.5278754394776" y="182.05524861878453"/>
      <point x="701.8709191361125" y="132.1225514816675"/>
    </contour>
  </outline>
</glyph>
<glyph name="r" format="2">
  <advance width="877.3766951280763"/>
  <unicode hex="0072"/>
  <anchor x="317.3832245102963" y="0.0" name="bottom"/>
  <anchor x="463.1531893520843" y="1110.0" name="top"/>
  <outline>
    <contour>
      <point x="37.0637870416876" y="0.0" type="line"/>
      <point x="671.5966850828729" y="0.0" type="line"/>
      <point x="671.5966850828729" y="102.9156202913109" type="line"/>
      <point x="451.97237569060775" y="123.94575590155702" type="line"/>
      <point x="451.8407835258664" y="763.9688598694123" type="line"/>
      <point x="494.3134103465596" y="802.5369161225515"/>
      <point x="578.3847312908085" y="846.9040683073831"/>
      <point x="691.6147664490207" y="846.9040683073831" type="curve" smooth="yes"/>
      <point x="775.0326469110998" y="846.9040683073831"/>
      <point x="819.416373681567" y="834.3691612255149"/>
      <point x="842.9633350075338" y="816.4445002511301" type="curve"/>
      <point x="842.9633350075338" y="1098.2245102963336" type="line"/>
      <point x="828.192867905575" y="1104.3957810145655"/>
      <point x="804.8196885986941" y="1109.9904570567553"/>
      <point x="756.4886991461577" y="1109.9904570567553" type="curve" smooth="yes"/>
      <point x="572.3164239075843" y="1109.9904570567553"/>
      <point x="443.45354093420394" y="938.0693119035661"/>
      <point x="416.3043696634857" y="863.8342541436463" type="curve"/>
      <point x="409.9201406328478" y="862.8297338021096" type="line"/>
      <point x="415.87845303867397" y="1032.7885484681065" type="line"/>
      <point x="415.92867905575076" y="1078.8799598191863" type="line"/>
      <point x="365.3324962330487" y="1117.113008538423" type="line"/>
      <point x="350.442491210447" y="1117.113008538423" type="line"/>
      <point x="40.18935208437972" y="1066.672526368659" type="line"/>
      <point x="40.18935208437972" y="946.7413360120543" type="line"/>
      <point x="166.26720241084882" y="909.3355097940733" type="line"/>
      <point x="166.26720241084882" y="122.76996484178804" type="line"/>
      <point x="37.0637870416876" y="103.36765444500253" type="line"/>
    </contour>
  </outline>
</glyph>
<glyph name="s" format="2">
  <advance width="1036.6474133601205"/>
  <unicode hex="0073"/>
  <anchor x="489.8513309894525" y="-6.382219989954797" name="bottom"/>
  <anchor x="493.06027122049227" y="1110.7237569060774" name="top"/>
  <outline>
    <contour>
      <point x="240.7182320441989" y="317.82621798091407" type="line"/>
      <point x="77.33098945253641" y="317.82621798091407" type="line"/>
      <point x="76.14665996986437" y="56.51632345554997" type="line"/>
      <point x="147.0015067805123" y="38.2817679558011"/>
      <point x="317.58161727774984" y="-22.394776494224008"/>
      <point x="506.59919638372673" y="-22.394776494224008" type="curve" smooth="yes"/>
      <point x="822.8141637368155" y="-22.394776494224008"/>
      <point x="979.2872928176796" y="124.03766951280762"/>
      <point x="979.2872928176796" y="320.3149171270718" type="curve" smooth="yes"/>
      <point x="979.2872928176796" y="528.9839276745355"/>
      <point x="767.6117528879959" y="605.1486690105475"/>
      <point x="594.2978402812658" y="677.2466097438473" type="curve" smooth="yes"/>
      <point x="488.7338021094927" y="721.4309392265193"/>
      <point x="352.7383224510296" y="764.5233550979408"/>
      <point x="352.1461577096936" y="877.705173279759" type="curve" smooth="yes"/>
      <point x="351.5539929683576" y="959.5143144148668"/>
      <point x="427.74434957307886" y="1012.5886489201407"/>
      <point x="546.2410848819687" y="1012.1366147664489" type="curve" smooth="yes"/>
      <point x="623.7564038171773" y="1011.9105976896032"/>
      <point x="688.5565042692116" y="981.312405826218"/>
      <point x="703.5153189352084" y="946.6976393771974" type="curve"/>
      <point x="750.0482169763937" y="797.83023606228" type="line"/>
      <point x="900.3957810145656" y="797.83023606228" type="line"/>
      <point x="901.8432948267204" y="1058.8257157207431" type="line"/>
      <point x="838.6725263686591" y="1067.9603214465092"/>
      <point x="743.4967353088899" y="1118.403314917127"/>
      <point x="541.4103465595178" y="1118.403314917127" type="curve" smooth="yes"/>
      <point x="268.59316926167753" y="1118.403314917127"/>
      <point x="73.15067805123053" y="987.2727272727274"/>
      <point x="73.15067805123053" y="807.1587142139628" type="curve" smooth="yes"/>
      <point x="73.15067805123053" y="589.7830236062281"/>
      <point x="218.4128578603717" y="514.1597187343043"/>
      <point x="409.40934203917635" y="433.3134103465595" type="curve" smooth="yes"/>
      <point x="564.4465092918132" y="367.66951280763436"/>
      <point x="685.9638372677045" y="332.6273229532898"/>
      <point x="685.9638372677045" y="227.24460070316422" type="curve" smooth="yes"/>
      <point x="685.9638372677045" y="146.33500753390254"/>
      <point x="617.4023103967857" y="86.20441988950276"/>
      <point x="485.07785032646916" y="86.20441988950276" type="curve" smooth="yes"/>
      <point x="397.0828729281768" y="86.20441988950276"/>
      <point x="303.4912104470115" y="124.83375188347564"/>
      <point x="283.1998995479658" y="166.8925163234555" type="curve"/>
    </contour>
  </outline>
</glyph>
<glyph name="t" format="2">
  <advance width="776.2230035158212"/>
  <unicode hex="0074"/>
  <anchor x="409.8478151682571" y="0.0" name="bottom"/>
  <anchor x="310.082370668006" y="560.5203415369161" name="center"/>
  <anchor x="347.9578101456555" y="1369.3671521848319" name="top"/>
  <anchor x="650.3340030135611" y="1110.7237569060774" name="topright"/>
  <outline>
    <contour>
      <point x="399.4480160723255" y="-19.755901557006528" type="curve" smooth="yes"/>
      <point x="550.581115017579" y="-19.755901557006528"/>
      <point x="703.3882471120041" y="37.973882471120035"/>
      <point x="769.3892516323456" y="90.50828729281767" type="curve"/>
      <point x="733.1165243596182" y="191.82370668006027" type="line"/>
      <point x="691.9874434957308" y="174.232044198895"/>
      <point x="627.0145655449522" y="154.1587142139628"/>
      <point x="564.2913108990456" y="154.1587142139628" type="curve" smooth="yes"/>
      <point x="479.20994475138116" y="154.1587142139628"/>
      <point x="453.96634856855854" y="170.46007031642392"/>
      <point x="453.96634856855854" y="367.5163234555499" type="curve" smooth="yes"/>
      <point x="453.96634856855854" y="950.4922149673531" type="line"/>
      <point x="730.7453540934204" y="950.4922149673531" type="line"/>
      <point x="730.7453540934204" y="1091.501255650427" type="line"/>
      <point x="451.84530386740335" y="1091.501255650427" type="line"/>
      <point x="444.87091913611255" y="1392.494224008036" type="line"/>
      <point x="277.8985434455048" y="1392.494224008036" type="line"/>
      <point x="261.10597689603213" y="1333.629331993973"/>
      <point x="233.40683073832244" y="1241.5489703666499"/>
      <point x="213.16725263686592" y="1193.3706680060272" type="curve" smooth="yes"/>
      <point x="194.6906077348066" y="1149.5886489201405"/>
      <point x="180.232044198895" y="1120.239075841286"/>
      <point x="152.00904068307383" y="1097.4570567553992" type="curve" smooth="yes"/>
      <point x="126.25213460572577" y="1076.7669512807636"/>
      <point x="69.61577096936215" y="1066.5519839276747"/>
      <point x="25.145655449522856" y="1049.8859869412356" type="curve"/>
      <point x="25.145655449522856" y="950.4922149673531" type="line"/>
      <point x="155.66499246609743" y="950.4922149673531" type="line"/>
      <point x="155.66499246609743" y="218.73932697137116" type="line" smooth="yes"/>
      <point x="155.66499246609743" y="49.81466599698643"/>
      <point x="238.0637870416876" y="-19.755901557006528"/>
    </contour>
  </outline>
</glyph>
<glyph name="u" format="2">
  <advance width="1269.6273229532896"/>
  <unicode hex="0075"/>
  <anchor x="610.9201406328477" y="0.0" name="bottom"/>
  <anchor x="1004.7689603214465" y="20.0" name="ogonek"/>
  <anchor x="598.9206428930186" y="1111.184329482672" name="top"/>
  <anchor x="1017.8864892014063" y="1098.6609743847314" name="topright"/>
  <outline>
    <contour>
      <point x="983.702661978905" y="-19.215469613259668" type="curve" smooth="yes"/>
      <point x="1087.3299849321952" y="-19.215469613259668"/>
      <point x="1165.6675037669513" y="0.0"/>
      <point x="1215.0768458061275" y="10.652938221998996" type="curve"/>
      <point x="1215.528879959819" y="110.54846810647916" type="line"/>
      <point x="1110.8900050226016" y="118.83877448518332" type="line"/>
      <point x="1110.8900050226016" y="1087.6624811652437" type="line"/>
      <point x="1062.2029131089905" y="1115.928679055751" type="line"/>
      <point x="1051.075841285786" y="1115.928679055751" type="line"/>
      <point x="696.6167754897036" y="1077.0426921145154" type="line"/>
      <point x="696.6167754897036" y="980.1376192867905" type="line"/>
      <point x="828.6348568558515" y="946.7453540934204" type="line"/>
      <point x="828.6348568558515" y="227.82119537920642" type="line"/>
      <point x="787.1351079859367" y="191.77297840281264"/>
      <point x="705.1451531893521" y="140.79658463083877"/>
      <point x="597.4525364138624" y="140.79658463083877" type="curve" smooth="yes"/>
      <point x="459.94374686087394" y="140.79658463083877"/>
      <point x="415.21848317428424" y="206.60271220492217"/>
      <point x="415.21848317428424" y="386.6579608237067" type="curve" smooth="yes"/>
      <point x="415.21848317428424" y="1087.6624811652437" type="line"/>
      <point x="372.3073832245103" y="1115.928679055751" type="line"/>
      <point x="363.8432948267203" y="1115.928679055751" type="line"/>
      <point x="20.753390256152684" y="1077.0426921145154" type="line"/>
      <point x="20.753390256152684" y="977.7689603214466" type="line"/>
      <point x="125.85735811150175" y="946.7453540934204" type="line"/>
      <point x="125.9075841285786" y="387.38021094927166" type="line" smooth="yes"/>
      <point x="125.9075841285786" y="98.46107483676543"/>
      <point x="233.97086891009542" y="-21.636363636363637"/>
      <point x="491.6072325464591" y="-21.636363636363637" type="curve" smooth="yes"/>
      <point x="642.6308387744851" y="-21.636363636363637"/>
      <point x="791.4203917629331" y="66.63485685585134"/>
      <point x="856.5143144148668" y="148.9141135107986" type="curve"/>
      <point x="856.5143144148668" y="87.97589151180311" type="line" smooth="yes"/>
      <point x="856.5143144148668" y="12.582621798091413"/>
      <point x="897.3460572576596" y="-19.215469613259668"/>
    </contour>
  </outline>
</glyph>
<glyph name="v" format="2">
  <advance width="1146.9035660472125"/>
  <unicode hex="0076"/>
  <outline>
    <contour>
      <point x="-35.99949773982924" y="991.0045203415368" type="line"/>
      <point x="55.36514314414868" y="962.9146157709694" type="line"/>
      <point x="452.349070818684" y="-13.09090909090909" type="line"/>
      <point x="712.1546961325967" y="-13.09090909090909" type="line"/>
      <point x="1091.2521346057256" y="962.9146157709694" type="line"/>
      <point x="1198.455047714716" y="991.0045203415368" type="line"/>
      <point x="1198.455047714716" y="1091.501255650427" type="line"/>
      <point x="778.7930688096434" y="1091.501255650427" type="line"/>
      <point x="778.7930688096434" y="990.8729281767954" type="line"/>
      <point x="906.9407332998493" y="962.9146157709694" type="line"/>
      <point x="704.3741838272224" y="397.45002511300856" type="line"/>
      <point x="649.3510798593672" y="195.9367152184832" type="line"/>
      <point x="588.3309894525364" y="401.43646408839777" type="line"/>
      <point x="388.27322953289803" y="962.9146157709694" type="line"/>
      <point x="518.3782019085886" y="991.0045203415368" type="line"/>
      <point x="518.3782019085886" y="1091.501255650427" type="line"/>
      <point x="-35.99949773982924" y="1091.501255650427" type="line"/>
    </contour>
  </outline>
</glyph>
<glyph name="w" format="2">
  <advance width="1749.447011551984"/>
  <unicode hex="0077"/>
  <anchor x="897.7619286790557" y="0.0" name="bottom"/>
  <anchor x="931.9045705675541" y="1110.7237569060774" name="top"/>
  <outline>
    <contour>
      <point x="-13.380210949271724" y="991.0045203415369" type="line"/>
      <point x="86.84279256654949" y="965.7353088900051" type="line"/>
      <point x="401.77046710195884" y="-13.09090909090909" type="line"/>
      <point x="658.9753892516324" y="-13.09090909090909" type="line"/>
      <point x="827.7157207433451" y="630.6137619286791" type="line"/>
      <point x="877.4897036664993" y="846.1230537418382" type="line"/>
      <point x="930.7172275238572" y="630.7453540934205" type="line"/>
      <point x="1100.011049723757" y="-13.09090909090909" type="line"/>
      <point x="1373.9799095931694" y="-13.09090909090909" type="line"/>
      <point x="1694.3907584128578" y="964.6911099949774" type="line"/>
      <point x="1806.9422400803617" y="991.0045203415369" type="line"/>
      <point x="1806.9422400803617" y="1092.0934203917627" type="line"/>
      <point x="1371.6077348066297" y="1092.0934203917627" type="line"/>
      <point x="1371.6077348066297" y="991.1361125062782" type="line"/>
      <point x="1514.139126067303" y="962.9146157709694" type="line"/>
      <point x="1374.0939226519336" y="417.3164239075841" type="line"/>
      <point x="1318.3545956805624" y="202.19638372677048" type="line"/>
      <point x="1270.4947262682072" y="416.75339025615267" type="line"/>
      <point x="1096.9578101456552" y="1090.9090909090908" type="line"/>
      <point x="810.7322953289804" y="1090.9090909090908" type="line"/>
      <point x="643.6584630838775" y="418.2290306378704" type="line"/>
      <point x="594.7106981416375" y="202.6484178804621" type="line"/>
      <point x="545.1029633350075" y="415.7091913611251" type="line"/>
      <point x="399.83023606228033" y="964.550979407333" type="line"/>
      <point x="530.7021597187344" y="991.1361125062782" type="line"/>
      <point x="530.7021597187344" y="1092.0934203917627" type="line"/>
      <point x="-13.380210949271724" y="1092.0934203917627" type="line"/>
    </contour>
  </outline>
</glyph>
<glyph name="x" format="2">
  <advance width="1234.4088397790056"/>
  <unicode hex="0078"/>
  <outline>
    <contour>
      <point x="123.32446007031642" y="125.37970868910097" type="line"/>
      <point x="-0.18081366147664618" y="102.82571572074335" type="line"/>
      <point x="-0.18081366147664618" y="0.0" type="line"/>
      <point x="475.9311903566048" y="0.0" type="line"/>
      <point x="475.9311903566048" y="102.82571572074335" type="line"/>
      <point x="319.8272225012557" y="125.37970868910097" type="line"/>
      <point x="469.8543445504772" y="338.11401305876444" type="line"/>
      <point x="536.9110999497742" y="444.1411351079859" type="line"/>
      <point x="600.746358613762" y="354.8036162732295" type="line"/>
      <point x="766.7222501255651" y="125.37970868910097" type="line"/>
      <point x="638.1325966850827" y="102.82571572074335" type="line"/>
      <point x="638.1325966850827" y="0.0" type="line"/>
      <point x="1235.9558011049724" y="0.0" type="line"/>
      <point x="1235.9558011049724" y="102.82571572074335" type="line"/>
      <point x="1140.0803616273229" y="124.3355097940733" type="line"/>
      <point x="768.7790055248619" y="592.7081868407835" type="line"/>
      <point x="1111.9673530889002" y="966.0416875941737" type="line"/>
      <point x="1226.6740331491712" y="990.8729281767955" type="line"/>
      <point x="1226.6740331491712" y="1091.501255650427" type="line"/>
      <point x="791.53591160221" y="1091.501255650427" type="line"/>
      <point x="791.53591160221" y="990.8729281767955" type="line"/>
      <point x="924.9407332998492" y="965.9100954294324" type="line"/>
      <point x="761.6243093922651" y="764.290808638875" type="line"/>
      <point x="696.1115017579107" y="668.4399799095931" type="line"/>
      <point x="636.9221496735308" y="753.6233048719237" type="line"/>
      <point x="484.984932194877" y="966.0416875941737" type="line"/>
      <point x="619.8663987945756" y="990.8729281767955" type="line"/>
      <point x="619.8663987945756" y="1091.501255650427" type="line"/>
      <point x="6.689603214465091" y="1091.501255650427" type="line"/>
      <point x="6.689603214465091" y="990.8729281767955" type="line"/>
      <point x="108.48417880462078" y="966.0416875941737" type="line"/>
      <point x="460.80261175288797" y="526.3761928679055" type="line"/>
    </contour>
  </outline>
</glyph>
<glyph name="y" format="2">
  <advance width="1171.2390758412857"/>
  <unicode hex="0079"/>
  <anchor x="964.8277247614265" y="0.0" name="bottom"/>
  <anchor x="621.2204922149673" y="1110.7237569060774" name="top"/>
  <outline>
    <contour>
      <point x="321.5409342039177" y="-512.6489201406328" type="curve" smooth="yes"/>
      <point x="534.1491712707183" y="-512.6489201406328"/>
      <point x="607.8277247614265" y="-337.26469110999494"/>
      <point x="725.6449020592668" y="-27.184831742842793" type="curve"/>
      <point x="746.8181818181819" y="21.643395278754394"/>
      <point x="953.5851330989453" y="520.6544450025115"/>
      <point x="1107.42491210447" y="964.550979407333" type="curve"/>
      <point x="1218.2702159718735" y="991.0045203415368" type="line"/>
      <point x="1218.2702159718735" y="1091.5012556504266" type="line"/>
      <point x="792.0713209442491" y="1091.5012556504266" type="line"/>
      <point x="792.0713209442491" y="990.8729281767955" type="line"/>
      <point x="919.9763937719738" y="964.550979407333" type="line"/>
      <point x="717.9814163736816" y="376.9914615770969" type="line"/>
      <point x="660.5303867403314" y="181.46157709693625" type="line"/>
      <point x="601.6258161727775" y="378.90557508789556" type="line"/>
      <point x="394.44098442993464" y="963.9588146659969" type="line"/>
      <point x="520.2285283776997" y="990.9542943244601" type="line"/>
      <point x="520.2285283776997" y="1091.5012556504266" type="line"/>
      <point x="-35.95931692616776" y="1091.5012556504266" type="line"/>
      <point x="-35.95931692616776" y="991.0045203415368" type="line"/>
      <point x="61.06780512305376" y="962.9146157709694" type="line"/>
      <point x="453.28126569563034" y="0.0" type="line"/>
      <point x="608.4957307885486" y="0.0" type="line"/>
      <point x="535.9276745354096" y="-199.75439477649425"/>
      <point x="450.4128578603717" y="-288.2491210447012"/>
      <point x="316.603214465093" y="-288.2491210447012" type="curve" smooth="yes"/>
      <point x="273.73631341034655" y="-288.2491210447012"/>
      <point x="216.5208437970869" y="-278.52486187845307"/>
      <point x="197.37820190858866" y="-266.379708689101" type="curve"/>
      <point x="197.37820190858866" y="-494.1089904570568" type="line"/>
      <point x="220.665996986439" y="-506.0567553992969"/>
      <point x="272.94123556002006" y="-512.6489201406328"/>
    </contour>
  </outline>
</glyph>
<glyph name="z" format="2">
  <advance width="1110.171270718232"/>
  <unicode hex="007A"/>
  <anchor x="563.7468608739327" y="0.0" name="bottom"/>
  <anchor x="579.9251632345555" y="1110.7237569060774" name="top"/>
  <outline>
    <contour>
      <point x="738.9552988448017" y="976.6474133601205" type="line"/>
      <point x="590.859367152185" y="836.433952787544" type="line"/>
      <point x="27.602712204922145" y="100.55549974886992" type="line"/>
      <point x="77.42089402310397" y="0.0" type="line"/>
      <point x="1039.0492214967353" y="0.0" type="line"/>
      <point x="1083.474635861376" y="360.81115017579106" type="line"/>
      <point x="937.7764942240082" y="378.3380210949271" type="line"/>
      <point x="827.7654445002511" y="135.04068307383227" type="line"/>
      <point x="359.51431441486693" y="113.0045203415369" type="line"/>
      <point x="505.0231039678554" y="255.07282772476142" type="line"/>
      <point x="1066.5760924158712" y="996.05223505776" type="line"/>
      <point x="1021.9763937719739" y="1091.501255650427" type="line"/>
      <point x="108.84379708689099" y="1091.106479156203" type="line"/>
      <point x="106.47513812154695" y="752.5374183827221" type="line"/>
      <point x="255.57006529382218" y="752.9321948769461" type="line"/>
      <point x="307.0562531391261" y="960.6318432948268" type="line"/>
    </contour>
  </outline>
</glyph>
<glyph name="braceleft" format="2">
  <advance width="1060.9773982923155"/>
  <unicode hex="007B"/>
  <outline>
    <contour>
      <point x="642.3807132094424" y="-279.23756906077347" type="curve" smooth="yes"/>
      <point x="741.5318935208437" y="-279.23756906077347"/>
      <point x="824.865394274234" y="-258.394776494224"/>
      <point x="910.6047212456053" y="-238.0" type="curve"/>
      <point x="910.6047212456053" y="-137.5188347564038" type="line"/>
      <point x="876.4364640883977" y="-139.34756403817178"/>
      <point x="805.9683576092416" y="-141.17629331993973"/>
      <point x="770.3661476644901" y="-141.17629331993973" type="curve" smooth="yes"/>
      <point x="664.8131592164741" y="-141.17629331993973"/>
      <point x="567.2682069311904" y="-109.97790055248618"/>
      <point x="567.2682069311904" y="22.421396283274735" type="curve" smooth="yes"/>
      <point x="567.2682069311904" y="138.6700150678051"/>
      <point x="644.1486690105475" y="300.98442993470616"/>
      <point x="644.1486690105475" y="437.0231039678553" type="curve" smooth="yes"/>
      <point x="644.1486690105475" y="581.5846308387744"/>
      <point x="502.13410346559516" y="650.9542943244602"/>
      <point x="341.5886489201406" y="672.0" type="curve"/>
      <point x="502.13410346559516" y="694.3219487694624"/>
      <point x="644.1486690105475" y="753.5565042692116"/>
      <point x="644.1486690105475" y="898.318935208438" type="curve" smooth="yes"/>
      <point x="644.1486690105475" y="1035.805123053742"/>
      <point x="567.2682069311904" y="1202.9487694625816"/>
      <point x="567.2682069311904" y="1318.4736313410347" type="curve" smooth="yes"/>
      <point x="567.2682069311904" y="1448.3204419889503"/>
      <point x="664.3129080863887" y="1481.5188347564037"/>
      <point x="769.3134103465595" y="1481.5188347564037" type="curve" smooth="yes"/>
      <point x="803.4816675037669" y="1481.5188347564037"/>
      <point x="876.4364640883977" y="1480.834756403817"/>
      <point x="910.6047212456053" y="1479.006027122049" type="curve"/>
      <point x="910.6047212456053" y="1576.0" type="line"/>
      <point x="822.9658463083877" y="1596.7895529884481"/>
      <point x="742.9934706177801" y="1616.6850828729282"/>
      <point x="643.5911602209944" y="1616.6850828729282" type="curve" smooth="yes"/>
      <point x="391.40231039678554" y="1616.6850828729282"/>
      <point x="291.2199899547966" y="1517.9482672024108"/>
      <point x="291.2199899547966" y="1351.6057257659468" type="curve" smooth="yes"/>
      <point x="291.2199899547966" y="1167.7769964841789"/>
      <point x="408.9427423405324" y="1046.6228026117528"/>
      <point x="408.9427423405324" y="886.7378201908589" type="curve" smooth="yes"/>
      <point x="408.9427423405324" y="796.5690607734806"/>
      <point x="377.2958312405827" y="747.3465595178302"/>
      <point x="141.3787041687594" y="747.8990457056756" type="curve"/>
      <point x="141.3787041687594" y="608.0005022601707" type="line"/>
      <point x="377.2958312405827" y="608.5529884480161"/>
      <point x="408.9427423405324" y="538.01305876444"/>
      <point x="408.9427423405324" y="446.78804620793574" type="curve" smooth="yes"/>
      <point x="408.9427423405324" y="287.034655951783"/>
      <point x="291.2199899547966" y="168.7754897036665"/>
      <point x="291.2199899547966" y="-14.881968859869414" type="curve" smooth="yes"/>
      <point x="291.2199899547966" y="-179.94826720241085"/>
      <point x="391.0768458061276" y="-279.23756906077347"/>
    </contour>
  </outline>
</glyph>
<glyph name="bar" format="2">
  <advance width="878.6162732295329"/>
  <unicode hex="007C"/>
  <outline>
    <contour>
      <point x="532.552988448016" y="1738.0" type="line"/>
      <point x="346.65544952285285" y="1738.0" type="line"/>
      <point x="346.65544952285285" y="-182.0" type="line"/>
      <point x="532.552988448016" y="-182.0" type="line"/>
    </contour>
  </outline>
</glyph>
<glyph name="braceright" format="2">
  <advance width="1060.9773982923155"/>
  <unicode hex="007D"/>
  <outline>
    <contour>
      <point x="418.59668508287297" y="-279.23756906077347" type="curve" smooth="yes"/>
      <point x="669.900552486188" y="-279.23756906077347"/>
      <point x="769.7574083375188" y="-179.94826720241085"/>
      <point x="769.7574083375188" y="-14.881968859869414" type="curve" smooth="yes"/>
      <point x="769.7574083375188" y="168.7754897036665"/>
      <point x="652.0346559517831" y="287.034655951783"/>
      <point x="652.0346559517831" y="446.78804620793574" type="curve" smooth="yes"/>
      <point x="652.0346559517831" y="538.01305876444"/>
      <point x="683.6815670517328" y="608.5529884480161"/>
      <point x="919.5986941235559" y="608.0005022601707" type="curve"/>
      <point x="919.5986941235559" y="747.8990457056756" type="line"/>
      <point x="683.6815670517328" y="747.3465595178302"/>
      <point x="652.0346559517831" y="796.5690607734806"/>
      <point x="652.0346559517831" y="886.7378201908589" type="curve" smooth="yes"/>
      <point x="652.0346559517831" y="1046.6228026117528"/>
      <point x="769.7574083375188" y="1167.7769964841789"/>
      <point x="769.7574083375188" y="1351.6057257659468" type="curve" smooth="yes"/>
      <point x="769.7574083375188" y="1517.9482672024108"/>
      <point x="669.5750878955299" y="1616.6850828729282"/>
      <point x="417.386238071321" y="1616.6850828729282" type="curve" smooth="yes"/>
      <point x="317.98392767453544" y="1616.6850828729282"/>
      <point x="238.01155198392766" y="1596.7895529884481"/>
      <point x="150.3726770467102" y="1576.0" type="curve"/>
      <point x="150.3726770467102" y="1479.006027122049" type="line"/>
      <point x="184.54093420391763" y="1480.834756403817"/>
      <point x="257.4957307885484" y="1481.5188347564037"/>
      <point x="291.66398794575593" y="1481.5188347564037" type="curve" smooth="yes"/>
      <point x="396.66449020592665" y="1481.5188347564037"/>
      <point x="493.70919136112514" y="1448.3204419889503"/>
      <point x="493.70919136112514" y="1318.4736313410347" type="curve" smooth="yes"/>
      <point x="493.70919136112514" y="1202.9487694625816"/>
      <point x="416.828729281768" y="1035.805123053742"/>
      <point x="416.828729281768" y="898.318935208438" type="curve" smooth="yes"/>
      <point x="416.828729281768" y="753.5565042692116"/>
      <point x="558.8432948267202" y="694.3219487694624"/>
      <point x="719.3887493721747" y="672.0" type="curve"/>
      <point x="558.8432948267202" y="650.9542943244602"/>
      <point x="416.828729281768" y="581.5846308387744"/>
      <point x="416.828729281768" y="437.0231039678553" type="curve" smooth="yes"/>
      <point x="416.828729281768" y="300.98442993470616"/>
      <point x="493.70919136112514" y="138.6700150678051"/>
      <point x="493.70919136112514" y="22.421396283274735" type="curve" smooth="yes"/>
      <point x="493.70919136112514" y="-109.97790055248618"/>
      <point x="396.1642390758413" y="-141.17629331993973"/>
      <point x="290.61125062782526" y="-141.17629331993973" type="curve" smooth="yes"/>
      <point x="255.00904068307383" y="-141.17629331993973"/>
      <point x="184.54093420391763" y="-139.34756403817178"/>
      <point x="150.3726770467102" y="-137.5188347564038" type="curve"/>
      <point x="150.3726770467102" y="-238.0" type="line"/>
      <point x="236.11200401808134" y="-258.394776494224"/>
      <point x="319.44550477147163" y="-279.23756906077347"/>
    </contour>
  </outline>
</glyph>
<glyph name="asciitilde" format="2">
  <advance width="1372.9859367152183"/>
  <unicode hex="007E"/>
  <outline>
    <contour>
      <point x="169.45153189352084" y="546.1501757910597" type="curve"/>
      <point x="251.31240582621794" y="451.6946258161728" type="line"/>
      <point x="296.0005022601707" y="503.1441486690105"/>
      <point x="370.79859367152187" y="563.7262682069312"/>
      <point x="466.5208437970869" y="563.7262682069312" type="curve" smooth="yes"/>
      <point x="630.3490708186841" y="563.7262682069312"/>
      <point x="679.9487694625816" y="388.9839276745354"/>
      <point x="883.5118031140131" y="388.9839276745354" type="curve" smooth="yes"/>
      <point x="1034.4535409342038" y="388.9839276745354"/>
      <point x="1148.622802611753" y="485.92315419387245"/>
      <point x="1203.5344048216975" y="583.3561024610749" type="curve"/>
      <point x="1119.626820693119" y="679.2245102963336" type="line"/>
      <point x="1076.6293319939728" y="624.5022601707684"/>
      <point x="1005.7995981918634" y="564.5956805625315"/>
      <point x="913.2566549472626" y="564.5956805625315" type="curve" smooth="yes"/>
      <point x="754.7945755901557" y="564.5956805625315"/>
      <point x="693.9979909593169" y="737.5615268709191"/>
      <point x="491.796082370668" y="737.5615268709191" type="curve" smooth="yes"/>
      <point x="336.2621798091412" y="737.5615268709191"/>
      <point x="219.58915118031138" y="635.3520843797086"/>
    </contour>
  </outline>
</glyph>
<glyph name="exclamdown" format="2">
  <advance width="568.5565042692115"/>
  <unicode hex="00A1"/>
  <outline>
    <contour>
      <point x="128.05926670015066" y="-327.74786539427424" type="line"/>
      <point x="454.21195379206426" y="-327.74786539427424" type="line"/>
      <point x="364.63033651431437" y="958.7704671019587" type="line"/>
      <point x="214.65695630336515" y="958.7704671019587" type="line"/>
    </contour>
    <contour>
      <point x="298.41737820190855" y="1468.841788046208" type="curve" smooth="yes"/>
      <point x="191.61325966850825" y="1468.841788046208"/>
      <point x="113.01356102461074" y="1408.4927172275238"/>
      <point x="113.01356102461074" y="1305.7830236062282" type="curve" smooth="yes"/>
      <point x="113.01356102461074" y="1229.7152184831743"/>
      <point x="168.3279758915118" y="1158.0492214967355"/>
      <point x="271.14866901054745" y="1158.0492214967355" type="curve" smooth="yes"/>
      <point x="368.6353591160221" y="1158.0492214967355"/>
      <point x="451.2661978905073" y="1225.0612757408337"/>
      <point x="451.2661978905073" y="1321.7001506780512" type="curve" smooth="yes"/>
      <point x="451.2661978905073" y="1409.5755901557004"/>
      <point x="377.18985434455055" y="1468.841788046208"/>
    </contour>
  </outline>
</glyph>
<glyph name="cent" format="2">
  <advance width="1204.047714716223"/>
  <unicode hex="00A2"/>
  <outline>
    <contour>
      <point x="138.54696132596686" y="538.1557006529381" type="curve" smooth="yes"/>
      <point x="137.36263184329482" y="236.84379708689102"/>
      <point x="286.97137117026625" y="31.490708186840784"/>
      <point x="567.5449522852838" y="-12.692114515318934" type="curve"/>
      <point x="546.1632345554997" y="-252.0" type="line"/>
      <point x="692.7785032646912" y="-252.0" type="line"/>
      <point x="713.160220994475" y="-21.18181818181818" type="line"/>
      <point x="875.5494726268207" y="-12.974886991461576"/>
      <point x="1024.4309392265195" y="59.41988950276242"/>
      <point x="1086.1049723756903" y="121.85233550979405" type="curve"/>
      <point x="1041.117026619789" y="216.25514816675036" type="line"/>
      <point x="975.8543445504771" y="178.14063284781514"/>
      <point x="883.3520843797086" y="142.66248116524358"/>
      <point x="786.5856353591159" y="142.66248116524358" type="curve" smooth="yes"/>
      <point x="582.1511803114013" y="142.66248116524358"/>
      <point x="462.66298342541444" y="295.1145153189352"/>
      <point x="463.34103465595183" y="617.1150175791059" type="curve" smooth="yes"/>
      <point x="463.79306880964344" y="873.7483676544449"/>
      <point x="562.5298844801606" y="1003.7749874434955"/>
      <point x="709.8859869412355" y="1003.7749874434955" type="curve" smooth="yes"/>
      <point x="758.6519337016573" y="1003.7749874434955"/>
      <point x="810.3068809643394" y="987.6675037669512"/>
      <point x="820.3761928679055" y="941.0165745856355" type="curve" smooth="yes"/>
      <point x="868.6348568558511" y="728.4696132596683" type="line"/>
      <point x="1072.982420894023" y="728.4696132596683" type="line"/>
      <point x="1085.2877950778504" y="1060.815670517328" type="line"/>
      <point x="1032.8016072325463" y="1070.8412857860371"/>
      <point x="937.9964841788046" y="1107.5439477649422"/>
      <point x="805.0492214967354" y="1118.5178302360623" type="curve"/>
      <point x="824.805123053742" y="1356.6438975389249" type="line"/>
      <point x="677.2149673530889" y="1356.6438975389249" type="line"/>
      <point x="657.6393771973883" y="1119.028628829734" type="line"/>
      <point x="365.52184831742846" y="1092.316423907584"/>
      <point x="139.73129080863887" y="881.959316926168"/>
    </contour>
  </outline>
</glyph>
<glyph name="sterling" format="2">
  <advance width="1643.9291813159214"/>
  <unicode hex="00A3"/>
  <outline>
    <contour>
      <point x="1057.9035660472125" y="-14.0" type="curve" smooth="yes"/>
      <point x="1350.9638372677045" y="-14.0"/>
      <point x="1552.4143646408838" y="147.15419387242594"/>
      <point x="1552.4143646408838" y="359.08990457056757" type="curve" smooth="yes"/>
      <point x="1552.4143646408838" y="437.0788548468106"/>
      <point x="1526.991461577097" y="500.6283274736313"/>
      <point x="1503.1069814163734" y="522.7790055248619" type="curve"/>
      <point x="1204.0441988950276" y="522.7790055248619" type="line"/>
      <point x="1237.4766449020592" y="489.6027122049221"/>
      <point x="1252.1089904570567" y="415.64640883977904"/>
      <point x="1252.1089904570567" y="348.7257659467605" type="curve" smooth="yes"/>
      <point x="1252.1089904570567" y="196.97237569060772"/>
      <point x="1194.5931692616778" y="129.27624309392266"/>
      <point x="1029.4977398292315" y="129.27624309392266" type="curve" smooth="yes"/>
      <point x="876.3862380713209" y="129.27624309392266"/>
      <point x="755.0487192365645" y="184.6348568558513"/>
      <point x="610.5499748869914" y="203.299347061778" type="curve"/>
      <point x="695.5605223505775" y="271.29131089904575"/>
      <point x="729.2109492717227" y="386.92214967353084"/>
      <point x="729.2109492717227" y="538.5389251632346" type="curve" smooth="yes"/>
      <point x="729.2109492717227" y="752.5966850828729" type="line"/>
      <point x="1013.6609743847313" y="752.5966850828729" type="line"/>
      <point x="1013.6609743847313" y="875.0220994475138" type="line"/>
      <point x="729.2109492717227" y="875.0220994475138" type="line"/>
      <point x="729.2109492717227" y="1097.453540934204" type="line" smooth="yes"/>
      <point x="729.2109492717227" y="1261.1401305876443"/>
      <point x="770.1381215469613" y="1375.4635861376191"/>
      <point x="925.9864389753893" y="1375.4635861376191" type="curve" smooth="yes"/>
      <point x="1066.8975389251632" y="1375.4635861376191"/>
      <point x="1188.5107985936716" y="1280.3631341034654"/>
      <point x="1223.7508789552987" y="1214.4851833249622" type="curve"/>
      <point x="1361.4153691612255" y="1393.7418382722249" type="line"/>
      <point x="1276.2958312405826" y="1455.6082370668007"/>
      <point x="1131.86288297338" y="1504.171270718232"/>
      <point x="963.9939728779508" y="1504.171270718232" type="curve" smooth="yes"/>
      <point x="655.1074836765446" y="1504.171270718232"/>
      <point x="408.1501757910598" y="1298.8106479156206"/>
      <point x="408.1501757910598" y="998.7237569060774" type="curve" smooth="yes"/>
      <point x="408.1501757910598" y="875.0220994475138" type="line"/>
      <point x="200.88046207935713" y="875.0220994475138" type="line"/>
      <point x="200.88046207935713" y="752.5966850828729" type="line"/>
      <point x="408.1501757910598" y="752.5966850828729" type="line"/>
      <point x="408.1501757910598" y="467.74434957307886" type="line" smooth="yes"/>
      <point x="408.1501757910598" y="368.93119035660465"/>
      <point x="393.2712204922149" y="272.08538422903064"/>
      <point x="376.4625816172777" y="239.8623807132095" type="curve"/>
      <point x="253.1783023606228" y="240.05323957810145"/>
      <point x="119.17277749874434" y="183.1707684580613"/>
      <point x="119.17277749874434" y="96.0431943746861" type="curve" smooth="yes"/>
      <point x="119.17277749874434" y="36.90808638874937"/>
      <point x="175.70668006027122" y="0.0"/>
      <point x="241.4168759417378" y="0.0" type="curve" smooth="yes"/>
      <point x="341.3862380713209" y="0.0"/>
      <point x="420.5107985936716" y="44.045705675539935"/>
      <point x="485.98593671521843" y="105.9728779507785" type="curve"/>
      <point x="654.882973380211" y="103.05173279758915"/>
      <point x="802.9779005524863" y="-14.0"/>
    </contour>
  </outline>
</glyph>
<glyph name="currency" format="2">
  <advance width="1479.0115519839276"/>
  <unicode hex="00A4"/>
  <outline>
    <contour>
      <point x="385.47312908086394" y="484.4485183324963" type="curve"/>
      <point x="171.26971371170262" y="270.96885986941237" type="line"/>
      <point x="277.69110999497747" y="162.44701155198393" type="line"/>
      <point x="495.74384731290814" y="381.64590657960827" type="line"/>
      <point x="565.0165745856353" y="336.53942742340536"/>
      <point x="647.7247614264189" y="311.1436464088398"/>
      <point x="736.7689603214465" y="311.1436464088398" type="curve" smooth="yes"/>
      <point x="823.4756403817178" y="311.1436464088398"/>
      <point x="906.1371170266199" y="338.65193370165747"/>
      <point x="975.7388247112004" y="384.98794575590153" type="curve"/>
      <point x="1195.1888498242088" y="163.88950276243094" type="line"/>
      <point x="1306.2872928176794" y="276.88749372174783" type="line"/>
      <point x="1088.6865896534403" y="492.3169261677549" type="line"/>
      <point x="1145.5298844801607" y="569.4751381215469"/>
      <point x="1179.7965846308387" y="663.6569563033652"/>
      <point x="1179.7965846308387" y="764.4726268206932" type="curve" smooth="yes"/>
      <point x="1179.7965846308387" y="862.6494224008036"/>
      <point x="1147.2476142641888" y="951.8598694123557"/>
      <point x="1093.0311401305878" y="1025.1376192867906" type="curve"/>
      <point x="1308.6820693119034" y="1238.6172777498746" type="line"/>
      <point x="1201.6147664490204" y="1346.136614766449" type="line"/>
      <point x="980.2651933701658" y="1128.0336514314415" type="line"/>
      <point x="909.6298342541437" y="1173.4414866901054"/>
      <point x="825.6383726770467" y="1198.8563535911603"/>
      <point x="736.7689603214465" y="1198.8563535911603" type="curve" smooth="yes"/>
      <point x="648.6649924660974" y="1198.8563535911603"/>
      <point x="567.3922651933702" y="1172.5826217980912"/>
      <point x="500.3013561024611" y="1126.4093420391764" type="curve"/>
      <point x="278.90155700652946" y="1348.0602712204923" type="line"/>
      <point x="169.45153189352084" y="1235.162732295329" type="line"/>
      <point x="387.5042692114516" y="1016.557508789553" type="line"/>
      <point x="332.5710698141638" y="940.4676042189855"/>
      <point x="301.3987945755902" y="844.7498744349573"/>
      <point x="301.3987945755902" y="745.2260170768459" type="curve" smooth="yes"/>
      <point x="301.3987945755902" y="646.6700150678051"/>
      <point x="331.21697639377203" y="556.8362631843296"/>
    </contour>
    <contour>
      <point x="737.9015570065294" y="505.97388247112" type="curve" smooth="yes"/>
      <point x="612.6328478151684" y="505.97388247112"/>
      <point x="507.11049723756906" y="615.5052737317931"/>
      <point x="507.11049723756906" y="749.5273731793069" type="curve" smooth="yes"/>
      <point x="507.11049723756906" y="882.5655449522853"/>
      <point x="587.3771973882472" y="1003.7247614264189"/>
      <point x="732.746358613762" y="1003.7247614264189" type="curve" smooth="yes"/>
      <point x="856.9693621295833" y="1003.7247614264189"/>
      <point x="968.3912606730287" y="895.1205424409844"/>
      <point x="968.3912606730287" y="750.3721747865394" type="curve" smooth="yes"/>
      <point x="968.3912606730287" y="617.4550477147162"/>
      <point x="891.0698141637369" y="505.97388247112"/>
    </contour>
  </outline>
</glyph>
